<svg width="42" height="42" viewBox="0 0 42 42" fill="none" xmlns="http://www.w3.org/2000/svg">
<path d="M14.5731 0.0880508C11.7987 0.621593 9.5742 2.27148 8.39219 4.69295C7.65344 6.19508 7.48106 7.18008 7.48106 9.92168V11.8753H6.44681C5.87222 11.8753 5.2648 11.9163 5.10063 11.9656C4.5753 12.1215 4.02534 12.6058 3.74625 13.1476L3.5 13.6319V20.7731C3.5 27.857 3.5 27.9226 3.67238 28.292C3.92684 28.8502 4.23055 29.1621 4.78871 29.433L5.28943 29.6874H7.10348H8.91753L10.395 32.2567C11.2077 33.6603 11.9382 35.0147 12.0203 35.2445C12.0942 35.4826 12.1845 36.0079 12.2173 36.4183L12.2665 37.1571H11.8151C11.2569 37.1571 10.8547 37.3951 10.707 37.8137C10.5756 38.1995 10.5756 40.9575 10.707 41.3433C10.7644 41.5075 10.9286 41.7045 11.0845 41.8112L11.3718 42L17.3968 41.9836L23.4217 41.959L23.7008 41.6552L23.9799 41.3433V39.6114C23.9799 38.1421 23.9553 37.8466 23.8403 37.6496C23.6844 37.3787 23.4463 37.2309 23.0441 37.1653L22.7568 37.116L23.0852 36.3362C23.7665 34.6863 23.7583 34.752 23.7993 32.0925L23.8321 29.7039L25.3179 29.671C26.9759 29.6464 27.0991 29.6136 27.6983 29.039C28.1005 28.6614 28.3303 28.2264 28.3878 27.7092C28.4124 27.4876 28.4452 27.307 28.4535 27.307C28.4617 27.307 28.7161 27.4219 29.0198 27.5533C30.1198 28.054 31.5973 28.2756 32.7957 28.1279C36.8506 27.6189 39.7235 24.0483 39.3213 20.018C38.9602 16.4473 36.1611 13.7386 32.4673 13.3856C31.4167 13.2871 29.816 13.5908 28.8885 14.0587C28.6751 14.1654 28.4863 14.2557 28.4699 14.2557C28.4535 14.2557 28.4124 14.0751 28.3878 13.8535C28.2975 13.1229 27.8296 12.4581 27.1483 12.0969C26.861 11.9491 26.623 11.9163 25.6216 11.8753L24.4314 11.8342L24.3821 9.37172C24.3411 6.99129 24.3328 6.88458 24.1112 6.17045C23.6351 4.58624 22.9128 3.41244 21.7226 2.28789C20.6062 1.23722 19.4735 0.613384 17.9467 0.211174C17.1013 -0.0104523 15.4021 -0.0679092 14.5731 0.0880508ZM17.2572 1.4178C20.0152 1.93493 22.1905 3.98703 22.88 6.68758C23.0606 7.40992 23.077 7.61513 23.077 9.66722V11.8753H22.5106H21.9442L21.9032 9.67543C21.8703 7.22933 21.8211 6.97487 21.2793 5.84212C20.2943 3.79823 18.2422 2.51773 15.9849 2.51773C14.9589 2.51773 14.2283 2.6901 13.3172 3.14156C12.677 3.46169 12.4143 3.65048 11.8315 4.23328C11.0435 5.01307 10.6249 5.67795 10.2883 6.68758C10.0831 7.295 10.0749 7.40992 10.0421 9.59335L10.0092 11.8753H9.39361H8.77798L8.81082 9.59335C8.84365 7.58229 8.86828 7.24575 9.03244 6.66296C10.0174 3.01844 13.6209 0.728302 17.2572 1.4178ZM17.1177 3.9624C18.6198 4.34819 19.9085 5.60408 20.4339 7.1965C20.5242 7.47559 20.5652 8.10763 20.598 9.71647L20.6309 11.8753H15.9849H11.339V9.88064C11.339 7.62334 11.4047 7.18829 11.889 6.26896C12.4471 5.21008 13.6209 4.27432 14.7947 3.9624C15.3857 3.79823 16.4939 3.79823 17.1177 3.9624ZM26.6066 13.3117C26.9759 13.5005 27.0991 13.8207 27.0991 14.5594V15.2079L26.7215 15.569C25.8924 16.3817 25.1291 17.7278 24.7925 18.9755C24.653 19.5009 24.6119 19.862 24.6119 20.7814C24.6119 22.1193 24.7679 22.8252 25.2932 23.9252C25.6872 24.7624 25.9909 25.1975 26.6148 25.8623L27.0991 26.3877V27.0115C27.0991 28.2346 26.8939 28.3741 25.088 28.3741H23.8157V26.7488C23.8157 24.5244 23.668 24.0811 22.7568 23.5804C22.3793 23.3752 22.2643 23.3588 21.7144 23.3752C21.1152 23.3998 21.0988 23.3998 20.951 23.1618C20.7376 22.8088 20.2697 22.4148 19.9167 22.2999C19.7444 22.2424 19.3914 22.2178 19.1287 22.2342L18.6444 22.2671L18.5459 21.9552C18.4146 21.5037 17.8975 20.9455 17.4624 20.7814C17.2244 20.6911 16.9289 20.65 16.6006 20.6746L16.0999 20.6993V19.7964C16.0916 18.4666 15.8044 17.8674 14.9999 17.4898C14.2448 17.1368 13.4075 17.26 12.8329 17.8099C12.2583 18.3599 12.2912 18.089 12.2419 23.0797L12.2009 27.5943L11.774 26.8966C11.5442 26.5108 11.2651 26.1168 11.1584 26.0265C9.95178 24.9184 7.93252 25.8213 7.94894 27.4548C7.95715 27.7092 7.99819 28.0293 8.04744 28.1525L8.13773 28.3823L6.75052 28.3577C5.41255 28.3331 5.35509 28.3249 5.14988 28.1361C5.03497 28.0211 4.90363 27.7995 4.85438 27.6436C4.73946 27.2331 4.74767 14.3214 4.85438 13.9109C4.90363 13.7468 5.05138 13.5169 5.19092 13.402L5.44538 13.1886H15.9029C25.0962 13.1886 26.4014 13.205 26.6066 13.3117ZM33.4688 14.8713C33.7314 14.937 34.306 15.1668 34.7329 15.3802C35.3895 15.7004 35.6276 15.8727 36.2596 16.5048C36.8835 17.1286 37.064 17.3749 37.3842 18.0316C37.8602 19.0083 38.0326 19.7307 38.0326 20.7814C38.0326 22.4312 37.4991 23.7692 36.3335 25.0005C35.2172 26.1907 33.715 26.8309 31.9831 26.8391C30.8831 26.8473 30.2921 26.7078 29.2743 26.2071C27.8378 25.5012 26.7379 24.2699 26.2372 22.817C24.9977 19.2464 27.1729 15.5034 30.916 14.781C31.5891 14.6497 32.7546 14.6907 33.4688 14.8713ZM14.6141 18.8196C14.7865 19.033 14.7865 19.1151 14.7865 23.4655V27.8898L14.9917 28.0868C15.2051 28.3084 15.4103 28.3413 15.7141 28.2017C16.0834 28.0376 16.0999 27.8652 16.0999 25.0087C16.0999 22.4066 16.1081 22.2917 16.264 22.1357C16.3625 22.0372 16.5349 21.9716 16.7155 21.9716C16.8961 21.9716 17.0684 22.0372 17.1669 22.1357C17.3229 22.2917 17.3311 22.4066 17.3311 25.4109C17.3311 28.4316 17.3393 28.5219 17.5035 28.7353C17.7251 29.0144 18.1766 29.0308 18.4557 28.7681C18.6444 28.5957 18.6444 28.5875 18.6444 26.281C18.6444 24.0647 18.6527 23.958 18.8168 23.7446C19.0302 23.4737 19.4653 23.4491 19.7115 23.6953C19.8675 23.8513 19.8757 23.9662 19.8757 26.7653C19.8757 29.7531 19.9085 30.1061 20.204 30.262C20.4257 30.3769 20.8032 30.3605 20.992 30.2292C21.1398 30.1143 21.148 29.9665 21.189 27.5697C21.2301 25.2139 21.2383 25.0087 21.386 24.8527C21.5995 24.6147 22.092 24.6147 22.3054 24.8527C22.4531 25.0169 22.4613 25.2303 22.486 29.3099C22.5024 31.8873 22.4778 33.7998 22.4285 34.12C22.3793 34.4155 22.1166 35.2117 21.8375 35.9012L21.3286 37.1571H17.4542H13.5799L13.5224 36.3362C13.4403 34.9818 13.2926 34.6535 11.1748 30.9844C9.93536 28.8338 9.26228 27.5943 9.26228 27.4466C9.26228 27.1757 9.4839 26.9294 9.79582 26.8556C10.1406 26.7735 10.3622 27.0526 11.4211 28.8912C11.93 29.7859 12.4307 30.5739 12.521 30.6396C12.7673 30.812 13.0217 30.7792 13.2844 30.5575L13.5142 30.3605L13.5553 24.5982C13.5963 19.0166 13.6045 18.836 13.7523 18.7211C14.0231 18.5323 14.4253 18.5733 14.6141 18.8196ZM22.6665 39.5785V40.6867H17.2901H11.9136V39.5785V38.4704H17.2901H22.6665V39.5785Z" fill="url(#paint0_linear_712_2422)"/>
<path d="M33.0748 19.9769L31.3675 21.6761L30.2758 20.5926C29.2908 19.6158 29.1512 19.5091 28.8885 19.5091C28.5192 19.5091 28.2483 19.7881 28.2483 20.1657C28.2483 20.4202 28.3878 20.5844 29.6683 21.8649C30.9571 23.1536 31.113 23.2849 31.3675 23.2849C31.6301 23.2849 31.8107 23.1207 33.6822 21.2492C35.5127 19.427 35.7179 19.1889 35.7179 18.9509C35.7179 18.5897 35.406 18.2778 35.0448 18.2778C34.815 18.2778 34.5934 18.4666 33.0748 19.9769Z" fill="url(#paint1_linear_712_2422)"/>
<defs>
<linearGradient id="paint0_linear_712_2422" x1="21.4294" y1="42" x2="21.4294" y2="0" gradientUnits="userSpaceOnUse">
<stop offset="0.259609" stop-color="#023B8B"/>
<stop offset="0.70661" stop-color="#012558"/>
</linearGradient>
<linearGradient id="paint1_linear_712_2422" x1="31.9831" y1="23.2849" x2="31.9831" y2="18.2778" gradientUnits="userSpaceOnUse">
<stop offset="0.259609" stop-color="#023B8B"/>
<stop offset="0.70661" stop-color="#012558"/>
</linearGradient>
</defs>
</svg>
