<svg width="21" height="25" viewBox="0 0 21 25" fill="none" xmlns="http://www.w3.org/2000/svg">
<path d="M20.5599 19.4826C20.1828 20.356 19.7366 21.16 19.2195 21.8992C18.5147 22.9069 17.9376 23.6044 17.4928 23.9917C16.8034 24.6275 16.0647 24.9531 15.2737 24.9716C14.7058 24.9716 14.021 24.8096 13.2239 24.4809C12.4241 24.1537 11.6891 23.9917 11.0171 23.9917C10.3123 23.9917 9.55634 24.1537 8.7478 24.4809C7.93802 24.8096 7.28567 24.9809 6.78691 24.9979C6.02838 25.0303 5.27231 24.6954 4.51763 23.9917C4.03595 23.5704 3.43347 22.8482 2.71172 21.8251C1.93734 20.7326 1.30069 19.4656 0.801927 18.0212C0.267771 16.4611 0 14.9503 0 13.4877C0 11.8123 0.361029 10.3673 1.08416 9.15636C1.65248 8.18371 2.40855 7.41644 3.35483 6.85319C4.30111 6.28994 5.32356 6.00291 6.42465 5.98454C7.02714 5.98454 7.81721 6.17142 8.79904 6.53869C9.7781 6.9072 10.4067 7.09408 10.6824 7.09408C10.8884 7.09408 11.5868 6.87557 12.7707 6.43993C13.8902 6.03593 14.8351 5.86865 15.6092 5.93455C17.7067 6.10429 19.2826 6.93343 20.3306 8.42722C18.4546 9.567 17.5267 11.1634 17.5451 13.2113C17.5621 14.8065 18.1392 16.1339 19.2733 17.1879C19.7873 17.6771 20.3614 18.0552 21 18.3237C20.8615 18.7264 20.7153 19.1122 20.5599 19.4826ZM15.7492 0.500142C15.7492 1.75043 15.2937 2.91782 14.3858 3.99834C13.29 5.28287 11.9647 6.02513 10.5275 5.908C10.5092 5.75801 10.4986 5.60014 10.4986 5.43425C10.4986 4.23398 11.0197 2.94945 11.945 1.89917C12.407 1.3674 12.9946 0.925237 13.7071 0.572516C14.4181 0.225057 15.0906 0.0329052 15.7231 0C15.7415 0.167144 15.7492 0.334298 15.7492 0.500126V0.500142Z" fill="black"/>
</svg>
