<svg width="20" height="20" viewBox="0 0 20 20" fill="none" xmlns="http://www.w3.org/2000/svg">
<g clip-path="url(#clip0_712_2283)">
<path d="M3.31091 16.9325C7.18947 20.6493 12.8102 20.6492 16.6888 16.9325C20.7297 13.0533 20.7294 6.94859 16.6888 3.06921L16.6898 3.06824C14.2831 0.739783 11.1715 -0.168676 7.94861 0.511597L7.63611 0.582886C5.91561 1.00795 4.43989 1.89898 3.06873 3.31042H3.06775C-0.730137 7.26992 -0.628957 13.133 3.31091 16.9315V16.9325ZM15.9115 16.2274C12.6167 19.3689 7.80297 19.4677 4.37634 16.5038L4.04919 16.2079C0.548673 12.8458 0.411213 7.60855 3.77283 4.08875C6.02918 1.71378 9.05204 0.806418 12.0746 1.59656C13.7355 2.03156 14.9799 2.78131 16.2279 4.08875C19.5894 7.60842 19.4514 12.8653 15.9115 16.2274Z" fill="white" stroke="white" stroke-width="0.2"/>
<path d="M9.99969 7.15955C10.3636 7.15955 10.6214 7.12975 10.8513 7.02576C11.0233 6.9479 11.174 6.83132 11.3405 6.66736L11.5134 6.48767L11.5143 6.48669C12.2049 5.71249 12.2123 4.75415 11.7809 4.03845C11.3499 3.32349 10.4835 2.85392 9.44208 3.04138V3.04236C9.29841 3.06683 9.11334 3.16755 8.93719 3.29333C8.7565 3.4224 8.57005 3.58793 8.4245 3.75427L8.42255 3.7572C8.07066 4.19189 7.89445 4.659 7.90497 5.12927C7.9156 5.59961 8.11269 6.06163 8.48505 6.48572L8.48602 6.48767H8.487C8.72848 6.74926 8.91981 6.92203 9.14911 7.02576C9.37888 7.12966 9.63607 7.15953 9.99969 7.15955ZM10.7849 5.77478C10.4891 6.10545 10.0211 6.16064 9.61688 6.01111C9.21226 5.86131 8.90009 5.51644 8.90009 5.07947C8.90026 5.00759 8.93971 4.89695 9.0202 4.76208C9.09862 4.63077 9.20843 4.48859 9.33075 4.35779C9.45313 4.22697 9.58595 4.11032 9.70868 4.02673C9.8357 3.94022 9.9365 3.89991 9.99969 3.89978C9.99429 3.89975 9.99602 3.89865 10.0085 3.90271C10.0198 3.90643 10.0356 3.913 10.0554 3.92224C10.0949 3.94074 10.1463 3.96888 10.2057 4.00525C10.3242 4.07781 10.4709 4.18063 10.6179 4.29822L10.6188 4.29919C10.903 4.51703 11.0494 4.76421 11.0759 5.01013C11.1022 5.2558 11.0108 5.51961 10.7849 5.7738V5.77478Z" fill="white" stroke="white" stroke-width="0.2"/>
<path d="M9.99957 17.0996C10.3483 17.0996 10.6252 17.0944 10.8433 17.0547C11.0646 17.0144 11.2368 16.9376 11.3677 16.7891C11.4957 16.6438 11.5748 16.4403 11.6363 16.1699C11.6979 15.8987 11.7445 15.5458 11.7994 15.0918L11.857 14.623C11.8759 14.4844 11.8948 14.3627 11.9146 14.2559C11.9544 14.0416 11.9977 13.8922 12.0484 13.7852C12.0978 13.6811 12.1536 13.619 12.2222 13.5762C12.2939 13.5315 12.3869 13.5028 12.5181 13.4785L12.522 13.4775C12.6178 13.4562 12.7076 13.4254 12.7818 13.3594C12.8566 13.2926 12.9049 13.1997 12.939 13.0771C13.0053 12.8385 13.0304 12.4392 13.0601 11.7646V11.7637C13.0898 11.0111 13.1017 10.6017 13.0113 10.2852C12.9188 9.96136 12.7205 9.73898 12.3746 9.35352L12.3736 9.35254C12.1708 9.12949 11.9482 8.91621 11.7525 8.75098C11.6546 8.66833 11.562 8.59717 11.482 8.54199C11.4043 8.48842 11.3312 8.44458 11.272 8.4248L11.2642 8.42285C10.3763 8.20088 9.83903 8.15819 9.17828 8.30273H9.17731C8.78671 8.39573 8.28067 8.70951 7.84723 9.12695L7.66656 9.3125L6.9068 10.1318L6.87848 10.1621L6.88043 10.2041L6.94 11.7637V11.7646C6.95499 12.1193 6.96921 12.3951 6.98785 12.6094C7.00638 12.8223 7.02985 12.9812 7.06696 13.0996C7.10487 13.2204 7.1594 13.3086 7.24469 13.3672C7.32564 13.4228 7.42305 13.4438 7.52399 13.459C7.64566 13.4785 7.72729 13.5021 7.78961 13.543C7.84906 13.5819 7.90076 13.6427 7.94781 13.7559C7.99582 13.8713 8.03645 14.0353 8.07672 14.2734C8.11684 14.5108 8.15577 14.8162 8.20074 15.2109V15.2129C8.25563 15.632 8.30429 15.96 8.36774 16.2139C8.43114 16.4675 8.51237 16.6604 8.64215 16.7988C8.77419 16.9395 8.94608 17.0139 9.16559 17.0537C9.38238 17.093 9.65575 17.0996 9.99957 17.0996ZM10.3736 15.9639C10.1022 16.0387 9.82304 16.0231 9.61578 15.9502C9.40149 15.8748 9.30035 15.7544 9.30035 15.6396C9.30028 15.5509 9.2735 15.3234 9.23395 15.0391C9.19379 14.7504 9.13884 14.3939 9.07867 14.043C8.9891 13.5155 8.91256 13.1719 8.80328 12.9424C8.74738 12.8251 8.6811 12.7336 8.59821 12.6621C8.51643 12.5916 8.42226 12.5453 8.31598 12.5078L8.31696 12.5068C8.1269 12.4308 8.03423 12.3583 7.98004 12.2441C7.92113 12.1196 7.89996 11.9309 7.89996 11.5996C7.90003 10.8456 8.09073 10.2728 8.44098 9.88965C8.78993 9.50791 9.3104 9.2999 9.99957 9.2998C10.549 9.2998 11.0215 9.43874 11.2554 9.63672L11.2574 9.6377C11.5568 9.87917 11.7658 10.1422 11.9009 10.4551C12.0363 10.7687 12.1001 11.139 12.1002 11.5996C12.1002 11.9309 12.079 12.1196 12.0201 12.2441C11.9659 12.3583 11.8732 12.4308 11.6832 12.5068V12.5078C11.5772 12.5453 11.4835 12.5918 11.4019 12.6621C11.319 12.7336 11.2527 12.8251 11.1968 12.9424C11.0876 13.1719 11.011 13.5155 10.9214 14.043C10.8613 14.3939 10.8063 14.7504 10.7662 15.0391C10.7266 15.3234 10.6998 15.5509 10.6998 15.6396C10.6998 15.6961 10.6712 15.7627 10.6109 15.8252C10.5661 15.8715 10.5076 15.9125 10.442 15.9404L10.3736 15.9639Z" fill="white" stroke="white" stroke-width="0.2"/>
</g>
<defs>
<clipPath id="clip0_712_2283">
<rect width="20" height="20" fill="white"/>
</clipPath>
</defs>
</svg>
