<svg width="42" height="42" viewBox="0 0 42 42" fill="none" xmlns="http://www.w3.org/2000/svg">
<path d="M13.3713 1.40271C10.6561 1.74723 8.08031 2.86286 5.93929 4.60192C5.13538 5.25817 3.99515 6.48044 3.3389 7.39098C2.68265 8.30153 1.74749 10.1554 1.39476 11.2136C1.09124 12.1406 0.861555 13.2234 0.746711 14.2898C0.147883 19.7449 2.86312 25.2328 7.56351 28.0875C10.7463 30.0234 14.4459 30.6715 18.0471 29.9414C20.0815 29.5312 21.919 28.6863 23.9369 27.259C24.06 27.1769 24.3061 27.382 25.7744 28.8011L27.4807 30.45L27.3576 30.6797C27.1772 31.0242 27.2018 31.8691 27.3987 32.2711C27.5053 32.5007 28.8096 33.8215 31.533 36.4547C33.7233 38.5711 35.6264 40.3757 35.7659 40.466C35.9135 40.5644 36.2252 40.6382 36.5369 40.6629C37.3983 40.7367 37.6033 40.5972 39.367 38.7925C40.2037 37.9312 40.983 37.0699 41.0979 36.8894C41.2619 36.6105 41.303 36.4382 41.303 35.9707C41.303 35.5031 41.2619 35.3308 41.0979 35.0519C40.8108 34.5843 33.1491 27.1605 32.6897 26.9226C32.2467 26.6847 31.492 26.6519 31.0983 26.8652L30.8358 26.9965L29.7119 25.93C29.0967 25.3476 28.301 24.5765 27.9565 24.2238L27.3248 23.584L27.7022 22.9277C29.7366 19.3511 30.1549 15.0527 28.8342 11.1152C28.5143 10.1472 27.5545 8.26872 26.9475 7.4238C24.585 4.12614 21.0002 1.95231 17.0627 1.42731C16.1276 1.30427 14.2326 1.28786 13.3713 1.40271ZM17.0217 2.74802C21.3366 3.39606 24.9541 6.02927 26.9229 9.95036C29.5643 15.2168 28.2682 21.7382 23.8139 25.6347C17.76 30.9257 8.56429 29.6789 4.1264 22.9523C1.91976 19.6054 1.38656 15.4465 2.66624 11.5992C4.21663 6.93161 8.28538 3.51091 13.1662 2.75622C14.167 2.60036 16.0127 2.60036 17.0217 2.74802ZM29.3838 27.4558L29.8596 27.9316L29.0967 28.6945L28.3338 29.4574L26.7178 27.8742L25.1018 26.291L25.8155 25.4953L26.5291 24.6996L27.7186 25.8398C28.3748 26.4632 29.1295 27.1933 29.3838 27.4558ZM36.0284 31.8281C38.1612 33.8953 39.9412 35.659 39.9741 35.7574C40.0151 35.8476 40.0315 36.0035 39.9987 36.1101C39.9741 36.2168 39.2768 36.9961 38.4565 37.841C37.1112 39.2191 36.9307 39.3832 36.6928 39.375C36.4549 39.375 36.0201 38.9812 32.4846 35.5523C28.785 31.9593 28.5471 31.705 28.5471 31.4425C28.5471 31.1882 28.6866 31.0078 30.0319 29.6132C31.4428 28.1449 31.6725 27.9644 32.0088 28.0382C32.0826 28.0547 33.8955 29.7609 36.0284 31.8281Z" fill="url(#paint0_linear_1024_1429)"/>
<path d="M13.8636 4.10155C8.59717 4.7414 4.4874 8.62148 3.56865 13.8223C3.39639 14.7984 3.39639 16.6195 3.56865 17.6777C3.9542 20.0894 5.07803 22.2387 6.88271 24.0434C8.61357 25.766 10.4429 26.7504 12.8792 27.2836C13.8718 27.5051 16.3983 27.5051 17.3909 27.2836C19.655 26.7914 21.5991 25.7742 23.1905 24.2566C24.8804 22.6406 25.914 20.8605 26.5128 18.5391C26.7261 17.7187 26.7671 17.407 26.7999 16.1601C26.8327 15.0855 26.8081 14.5277 26.7097 13.9453C26.1765 10.6723 24.3144 7.79296 21.5745 5.97187C20.3276 5.15155 18.6542 4.4871 17.1694 4.2246C16.2589 4.06054 14.6675 4.00312 13.8636 4.10155ZM16.2835 5.42226C18.7362 5.72577 20.746 6.70194 22.4769 8.44101C23.7319 9.70429 24.5604 11.0414 25.0526 12.6164C25.6843 14.6262 25.6679 17.0953 25.0198 19.0312C23.7812 22.7062 20.5819 25.4297 16.7921 26.0449C11.7964 26.857 6.86631 23.8711 5.2585 19.0641C4.37256 16.4144 4.63506 13.2973 5.95576 10.8527C6.96475 8.99062 8.64639 7.3664 10.5413 6.41483C12.2558 5.56171 14.3886 5.19257 16.2835 5.42226Z" fill="url(#paint1_linear_1024_1429)"/>
<path d="M14.6918 6.71836C14.4621 6.94804 14.4129 7.30898 14.4457 8.45742C14.4785 9.42539 14.4867 9.45 14.7082 9.64687C14.9871 9.88476 15.2496 9.90117 15.5367 9.67148L15.75 9.50742V8.19492C15.75 6.99726 15.7336 6.87421 15.5859 6.72656C15.3726 6.51328 14.9051 6.50507 14.6918 6.71836Z" fill="url(#paint2_linear_1024_1429)"/>
<path d="M10.4263 7.85039C10.0654 8.15391 10.1146 8.40821 10.7627 9.51563C11.4271 10.6477 11.6076 10.8117 12.0506 10.6559C12.3377 10.5574 12.4689 10.3688 12.4689 10.0488C12.4689 9.82735 11.5994 8.23594 11.2959 7.89141C11.0908 7.66993 10.6724 7.65352 10.4263 7.85039Z" fill="url(#paint3_linear_1024_1429)"/>
<path d="M18.9738 7.8914C18.6703 8.22773 17.8008 9.82734 17.8008 10.0488C17.8008 10.3687 17.932 10.5574 18.2191 10.6559C18.6621 10.8117 18.8426 10.6477 19.4742 9.55664C20.1141 8.45742 20.1879 8.12929 19.8598 7.86679C19.5973 7.65351 19.1789 7.66992 18.9738 7.8914Z" fill="url(#paint4_linear_1024_1429)"/>
<path d="M13.4531 10.7871C11.0496 11.1809 8.62969 12.4605 7.05469 14.175C6.3 14.9871 5.98828 15.4629 5.98828 15.791C5.98828 16.3078 7.48125 17.9402 8.78555 18.859C10.016 19.7285 11.7469 20.4504 13.248 20.7129C14.216 20.8769 16.0125 20.8769 16.9969 20.7129C19.6383 20.2617 22.1156 18.7851 23.8055 16.6687C24.3797 15.9469 24.4125 15.7254 24.0187 15.1266C23.6332 14.5523 22.4602 13.3875 21.6891 12.8215C20.4504 11.9109 18.818 11.1891 17.2676 10.8691C16.3652 10.6805 14.3473 10.6394 13.4531 10.7871ZM16.0371 12.0914C16.7508 12.2801 17.2512 12.5672 17.768 13.084C18.8426 14.1504 19.1953 15.5941 18.7113 16.9969C17.9812 19.1215 15.5367 20.1387 13.4941 19.1707C12.0094 18.457 11.1234 16.8 11.3859 15.2086C11.7469 13.0101 13.9535 11.5254 16.0371 12.0914ZM10.5902 13.4613C10.1965 14.1832 10.057 14.7902 10.057 15.75C10.0488 16.7016 10.1801 17.2594 10.5902 18.0715L10.8281 18.5391L10.4344 18.3422C9.73711 17.9894 8.83477 17.2922 8.1457 16.5867C7.76836 16.2094 7.46484 15.8484 7.46484 15.7746C7.46484 15.6187 8.57227 14.4703 9.14648 14.0273C9.57305 13.6992 10.7707 12.9527 10.8035 12.9937C10.8199 13.0019 10.7215 13.2152 10.5902 13.4613ZM21.0082 13.9535C21.6234 14.4047 22.8047 15.6105 22.8047 15.7828C22.8047 15.8402 22.5012 16.2012 22.132 16.5867C21.4348 17.2922 20.5324 17.9812 19.827 18.3422L19.4332 18.5473L19.6793 18.0633C20.0648 17.3004 20.2125 16.6934 20.2125 15.832C20.2207 14.7984 20.0484 14.1668 19.4578 13.0266C19.4004 12.9117 20.4586 13.5434 21.0082 13.9535Z" fill="url(#paint5_linear_1024_1429)"/>
<path d="M14.2162 13.3465C14.0275 13.4121 13.683 13.6336 13.4533 13.8387C12.0506 15.0938 12.3295 17.2348 14.0029 18.0633C14.4787 18.293 14.6428 18.334 15.1514 18.334C15.6599 18.3258 15.8158 18.2848 16.2916 18.0469C17.5467 17.407 18.0389 16.0125 17.4728 14.7C17.2431 14.1586 16.5623 13.5188 16.0291 13.3383C15.5533 13.1742 14.6756 13.1824 14.2162 13.3465ZM15.8076 14.6918C16.5623 15.1594 16.5951 16.234 15.8732 16.7836C15.6271 16.9723 15.4795 17.0133 15.1267 17.0133C13.8799 17.0133 13.3959 15.4219 14.4295 14.7164C14.815 14.4621 15.4056 14.4457 15.8076 14.6918Z" fill="url(#paint6_linear_1024_1429)"/>
<path d="M11.46 20.9344C11.2795 21.082 10.2541 22.8621 10.1967 23.141C10.1639 23.3215 10.2049 23.4281 10.4018 23.625C10.6725 23.8957 10.7955 23.9203 11.1154 23.7727C11.3861 23.6496 12.469 21.7875 12.469 21.4348C12.469 20.9672 11.8373 20.6555 11.46 20.9344Z" fill="url(#paint7_linear_1024_1429)"/>
<path d="M17.9816 21.0246C17.6863 21.3363 17.7519 21.6152 18.3754 22.6898C19.089 23.9367 19.3761 24.109 19.8683 23.625C20.0652 23.4281 20.1062 23.3215 20.0734 23.1492C20.016 22.8785 18.9906 21.082 18.8019 20.9344C18.5886 20.7703 18.1785 20.8113 17.9816 21.0246Z" fill="url(#paint8_linear_1024_1429)"/>
<path d="M14.6918 21.8941C14.4621 22.1238 14.4129 22.4848 14.4457 23.6168C14.4785 24.5109 14.4949 24.6258 14.659 24.7898C14.9133 25.0441 15.3891 25.0359 15.5941 24.7816C15.7336 24.6176 15.75 24.4371 15.75 23.3297C15.75 22.173 15.7336 22.05 15.5859 21.9023C15.3726 21.6891 14.9051 21.6809 14.6918 21.8941Z" fill="url(#paint9_linear_1024_1429)"/>
<defs>
<linearGradient id="paint0_linear_1024_1429" x1="20.9838" y1="40.6777" x2="20.9838" y2="1.32514" gradientUnits="userSpaceOnUse">
<stop offset="0.259609" stop-color="#023B8B"/>
<stop offset="0.70661" stop-color="#012558"/>
</linearGradient>
<linearGradient id="paint1_linear_1024_1429" x1="15.1265" y1="27.4497" x2="15.1265" y2="4.05325" gradientUnits="userSpaceOnUse">
<stop offset="0.259609" stop-color="#023B8B"/>
<stop offset="0.70661" stop-color="#012558"/>
</linearGradient>
<linearGradient id="paint2_linear_1024_1429" x1="15.0933" y1="9.83485" x2="15.0933" y2="6.56244" gradientUnits="userSpaceOnUse">
<stop offset="0.259609" stop-color="#023B8B"/>
<stop offset="0.70661" stop-color="#012558"/>
</linearGradient>
<linearGradient id="paint3_linear_1024_1429" x1="11.3355" y1="10.7058" x2="11.3355" y2="7.71328" gradientUnits="userSpaceOnUse">
<stop offset="0.259609" stop-color="#023B8B"/>
<stop offset="0.70661" stop-color="#012558"/>
</linearGradient>
<linearGradient id="paint4_linear_1024_1429" x1="18.9257" y1="10.7061" x2="18.9257" y2="7.7157" gradientUnits="userSpaceOnUse">
<stop offset="0.259609" stop-color="#023B8B"/>
<stop offset="0.70661" stop-color="#012558"/>
</linearGradient>
<linearGradient id="paint5_linear_1024_1429" x1="15.1346" y1="20.8359" x2="15.1346" y2="10.6978" gradientUnits="userSpaceOnUse">
<stop offset="0.259609" stop-color="#023B8B"/>
<stop offset="0.70661" stop-color="#012558"/>
</linearGradient>
<linearGradient id="paint6_linear_1024_1429" x1="15.1298" y1="18.334" x2="15.1298" y2="13.2193" gradientUnits="userSpaceOnUse">
<stop offset="0.259609" stop-color="#023B8B"/>
<stop offset="0.70661" stop-color="#012558"/>
</linearGradient>
<linearGradient id="paint7_linear_1024_1429" x1="11.3277" y1="23.8624" x2="11.3277" y2="20.829" gradientUnits="userSpaceOnUse">
<stop offset="0.259609" stop-color="#023B8B"/>
<stop offset="0.70661" stop-color="#012558"/>
</linearGradient>
<linearGradient id="paint8_linear_1024_1429" x1="18.9478" y1="23.8747" x2="18.9478" y2="20.8337" gradientUnits="userSpaceOnUse">
<stop offset="0.259609" stop-color="#023B8B"/>
<stop offset="0.70661" stop-color="#012558"/>
</linearGradient>
<linearGradient id="paint9_linear_1024_1429" x1="15.0933" y1="24.9765" x2="15.0933" y2="21.7382" gradientUnits="userSpaceOnUse">
<stop offset="0.259609" stop-color="#023B8B"/>
<stop offset="0.70661" stop-color="#012558"/>
</linearGradient>
</defs>
</svg>
