<svg width="20" height="20" viewBox="0 0 20 20" fill="none" xmlns="http://www.w3.org/2000/svg">
<g clip-path="url(#clip0_712_117)">
<path d="M9.30419 8.75C8.94419 8.0025 8.27085 7.5 7.50002 7.5C6.35002 7.5 5.41669 8.61917 5.41669 10C5.41669 11.3808 6.35002 12.5 7.50002 12.5C8.27085 12.5 8.94419 11.9975 9.30419 11.25" stroke="white" stroke-width="1.3" stroke-linejoin="round"/>
<path d="M14.7216 8.75C14.3608 8.0025 13.6883 7.5 12.9166 7.5C11.7666 7.5 10.8333 8.61917 10.8333 10C10.8333 11.3808 11.7666 12.5 12.9166 12.5C13.6875 12.5 14.3608 11.9975 14.7216 11.25" stroke="white" stroke-width="1.3" stroke-linejoin="round"/>
<path d="M1.25 10C1.25 12.3206 2.17187 14.5462 3.81282 16.1872C5.45376 17.8281 7.67936 18.75 10 18.75C12.3206 18.75 14.5462 17.8281 16.1872 16.1872C17.8281 14.5462 18.75 12.3206 18.75 10C18.75 7.67936 17.8281 5.45376 16.1872 3.81282C14.5462 2.17187 12.3206 1.25 10 1.25C7.67936 1.25 5.45376 2.17187 3.81282 3.81282C2.17187 5.45376 1.25 7.67936 1.25 10Z" stroke="white" stroke-width="1.3" stroke-linejoin="round"/>
</g>
<defs>
<clipPath id="clip0_712_117">
<rect width="20" height="20" fill="white"/>
</clipPath>
</defs>
</svg>
