<svg width="42" height="42" viewBox="0 0 42 42" fill="none" xmlns="http://www.w3.org/2000/svg">
<path d="M3.88879 0.218746L3.67004 0.428738V20.3082C3.67004 35.6553 3.69629 40.2664 3.77504 40.5464C3.91504 41.0276 4.64127 41.7538 5.1225 41.8938C5.4025 41.9726 9.11239 41.9988 21.1871 41.9988C38.9141 41.9988 37.4003 42.0601 38.0828 41.2988C38.2928 41.0713 38.5116 40.7214 38.5641 40.5289C38.6428 40.2664 38.6691 35.4103 38.6691 20.3082V0.428738L38.4503 0.218746L38.2403 0H21.1696H4.09878L3.88879 0.218746ZM31.6693 3.4999V5.59984H18.3696H5.07V3.4999V1.39996H18.3696H31.6693V3.4999ZM34.4692 3.4999V5.59984H33.7692H33.0692V3.4999V1.39996H33.7692H34.4692V3.4999ZM37.2691 3.4999V5.59984H36.5691H35.8691V3.4999V1.39996H36.5691H37.2691V3.4999ZM26.0694 9.58098V12.1709L26.2882 12.3809C26.5244 12.6259 26.9006 12.6696 27.1631 12.4771C27.2594 12.4072 27.5131 11.9959 27.7319 11.5584C27.9419 11.1209 28.1431 10.7622 28.1694 10.7622C28.1956 10.7622 28.3969 11.1209 28.6068 11.5584C28.8256 11.9959 29.0793 12.4072 29.1756 12.4771C29.4381 12.6696 29.8143 12.6259 30.0506 12.3809L30.2693 12.1709V9.58098V6.9998H30.9693H31.6693V23.5806V40.1701L31.4505 40.3801L31.2405 40.5989H18.3696H5.49874L5.28875 40.3801L5.07 40.1701V23.5806V6.9998H15.5697H26.0694V9.58098ZM28.8693 7.93603C28.8606 8.73225 28.8431 8.85475 28.7468 8.73225C28.5981 8.53101 28.2131 8.39101 28.0206 8.46101C27.9331 8.48726 27.7756 8.59226 27.6706 8.68851L27.4694 8.8635V7.93603V6.9998H28.1694H28.8693V7.93603ZM34.4692 23.5806V40.1701L34.2504 40.3801C34.0754 40.5639 33.9529 40.5989 33.498 40.5989C32.9817 40.5989 32.9642 40.5901 33.0167 40.3976C33.043 40.2926 33.0692 32.7328 33.0692 23.5981V6.9998H33.7692H34.4692V23.5806ZM37.2691 23.5806V40.1701L37.0504 40.3801C36.8754 40.5639 36.7529 40.5989 36.2979 40.5989C35.7816 40.5989 35.7641 40.5901 35.8166 40.3976C35.8429 40.2926 35.8691 32.7328 35.8691 23.5981V6.9998H36.5691H37.2691V23.5806Z" fill="url(#paint0_linear_712_1131)"/>
<path d="M11.7636 9.89598C10.3986 10.1672 9.01613 11.2609 8.3949 12.5472C7.97491 13.4221 7.86991 13.9996 7.86991 15.3471V16.4058L7.47617 16.6158C6.93369 16.9045 6.41745 17.482 6.09371 18.182C5.83997 18.7157 5.81372 18.847 5.81372 19.6082C5.81372 20.3957 5.83122 20.4744 6.13746 21.1044C6.34746 21.5157 6.6187 21.9006 6.87244 22.1369L7.27493 22.5131L7.09118 22.8456C6.60995 23.6943 6.5312 24.0968 6.48745 25.873L6.45245 27.553L6.6712 27.7717L6.89869 27.9992H12.7698H18.6409L18.8684 27.7717L19.0871 27.553L19.0521 25.873C19.0084 24.0968 18.9296 23.6943 18.4484 22.8456L18.2646 22.5131L18.7196 22.0581C18.9821 21.7956 19.2796 21.3757 19.4458 21.0169C19.6996 20.4832 19.7258 20.3519 19.7258 19.5995C19.7258 18.847 19.6996 18.7157 19.4458 18.182C19.1221 17.4908 18.6059 16.9045 18.0721 16.6245L17.6871 16.4145L17.6521 15.0583C17.6084 13.5884 17.4771 13.0459 16.9434 12.1447C16.6459 11.6284 15.8497 10.8322 15.3422 10.5347C14.3097 9.93098 12.8748 9.66849 11.7636 9.89598ZM14.2047 11.5322C15.4035 12.0922 16.1472 13.1684 16.2434 14.4721L16.2959 15.1546L16.0684 14.9271C15.9022 14.7696 15.7447 14.6996 15.5259 14.6996C15.246 14.6996 15.1147 14.6121 14.476 13.9996C13.5398 13.0984 13.4173 13.0896 12.656 13.8159C11.8861 14.5421 11.6761 14.6296 10.5561 14.6908C9.68111 14.7433 9.59361 14.7608 9.42737 14.9621L9.24362 15.1808L9.29612 14.4984C9.38362 13.2646 10.0574 12.2059 11.0986 11.6547C11.7811 11.2872 12.166 11.1997 12.9623 11.2347C13.496 11.2609 13.7672 11.3309 14.2047 11.5322ZM13.8722 15.3996C14.0822 15.5921 14.3972 15.8196 14.5635 15.8983C14.861 16.0383 14.8697 16.0558 14.8697 16.5633C14.8697 16.852 14.826 17.2458 14.7647 17.447C14.6247 17.9283 13.8985 18.6545 13.4173 18.7945C12.5948 19.0395 11.9385 18.8645 11.3261 18.2432C10.8273 17.7533 10.6698 17.3508 10.6698 16.607V16.1258L11.2561 16.0733C11.8773 16.0121 12.7085 15.6708 13.1635 15.2771C13.3123 15.1546 13.4435 15.0583 13.461 15.0496C13.4785 15.0496 13.6623 15.2071 13.8722 15.3996ZM9.35737 17.6045C9.35737 17.8758 9.89986 18.8295 10.2673 19.2145C10.6173 19.5732 10.6698 19.6782 10.6698 19.9932C10.6698 20.3432 10.6523 20.3694 10.3898 20.4132C9.90861 20.4919 9.12113 20.8244 8.63989 21.1394L8.19365 21.4457L7.79117 21.0257C7.00369 20.2032 6.95994 19.1182 7.68617 18.2782C8.14991 17.727 9.35737 17.2458 9.35737 17.6045ZM16.9172 17.6045C17.3984 17.7445 18.1246 18.4707 18.2646 18.952C18.5009 19.7482 18.3346 20.4219 17.7484 21.0257L17.3459 21.4457L16.8997 21.1394C16.4184 20.8244 15.6309 20.4919 15.1585 20.4132C14.8872 20.3694 14.8697 20.3432 14.8697 19.9932C14.8697 19.6782 14.9222 19.5732 15.2722 19.2145C15.6397 18.8295 16.1822 17.8758 16.1822 17.6045C16.1822 17.4733 16.4534 17.4733 16.9172 17.6045ZM13.4698 20.4744C13.4698 20.6232 13.3473 20.8244 13.1198 21.0432L12.7698 21.3844L12.4198 21.0432C12.1923 20.8244 12.0698 20.6232 12.0698 20.4744C12.0698 20.2557 12.0785 20.2557 12.7698 20.2557C13.461 20.2557 13.4698 20.2557 13.4698 20.4744ZM11.7723 22.3994C12.7348 23.3444 12.8048 23.3444 13.7672 22.3994L14.4847 21.6994L14.9835 21.8306C16.0772 22.1106 16.8734 22.7669 17.3459 23.7818C17.5996 24.3243 17.6259 24.4556 17.6521 25.4793L17.6871 26.5993H12.7698H7.85241L7.88741 25.4793C7.91366 24.4556 7.93991 24.3243 8.19365 23.7818C8.50865 23.1169 9.13863 22.4256 9.69861 22.1456C9.9786 21.9969 10.7311 21.7519 11.0111 21.7081C11.0373 21.6994 11.3786 22.0144 11.7723 22.3994Z" fill="url(#paint1_linear_712_1131)"/>
<path d="M20.4696 21.6994V22.3994H21.1696H21.8696V21.6994V20.9994H21.1696H20.4696V21.6994Z" fill="url(#paint2_linear_712_1131)"/>
<path d="M23.2695 21.6994V22.3994H26.7694H30.2693V21.6994V20.9994H26.7694H23.2695V21.6994Z" fill="url(#paint3_linear_712_1131)"/>
<path d="M20.4696 24.4993V25.1993H25.3695H30.2693V24.4993V23.7993H25.3695H20.4696V24.4993Z" fill="url(#paint4_linear_712_1131)"/>
<path d="M20.4696 27.2992V27.9992H22.5695H24.6695V27.2992V26.5993H22.5695H20.4696V27.2992Z" fill="url(#paint5_linear_712_1131)"/>
<path d="M26.0694 27.2992V27.9992H28.1693H30.2693V27.2992V26.5993H28.1693H26.0694V27.2992Z" fill="url(#paint6_linear_712_1131)"/>
<path d="M6.46997 31.4991V32.1991H7.86993H9.26989V31.4991V30.7991H7.86993H6.46997V31.4991Z" fill="url(#paint7_linear_712_1131)"/>
<path d="M10.6699 31.4991V32.1991H14.1698H17.6697V31.4991V30.7991H14.1698H10.6699V31.4991Z" fill="url(#paint8_linear_712_1131)"/>
<path d="M20.4696 31.4991V32.1991H25.3695H30.2693V31.4991V30.7991H25.3695H20.4696V31.4991Z" fill="url(#paint9_linear_712_1131)"/>
<path d="M6.46997 34.299V34.999H9.26989H12.0698V34.299V33.5991H9.26989H6.46997V34.299Z" fill="url(#paint10_linear_712_1131)"/>
<path d="M13.4698 34.299V34.999H14.1698H14.8697V34.299V33.5991H14.1698H13.4698V34.299Z" fill="url(#paint11_linear_712_1131)"/>
<path d="M16.2697 34.299V34.999H16.9697H17.6697V34.299V33.5991H16.9697H16.2697V34.299Z" fill="url(#paint12_linear_712_1131)"/>
<path d="M20.4696 34.299V34.999H23.2695H26.0694V34.299V33.5991H23.2695H20.4696V34.299Z" fill="url(#paint13_linear_712_1131)"/>
<path d="M27.4694 34.299V34.999H28.8693H30.2693V34.299V33.5991H28.8693H27.4694V34.299Z" fill="url(#paint14_linear_712_1131)"/>
<path d="M6.46997 37.099V37.7989H12.0698H17.6697V37.099V36.399H12.0698H6.46997V37.099Z" fill="url(#paint15_linear_712_1131)"/>
<path d="M20.4696 37.099V37.7989H25.3695H30.2693V37.099V36.399H25.3695H20.4696V37.099Z" fill="url(#paint16_linear_712_1131)"/>
<defs>
<linearGradient id="paint0_linear_712_1131" x1="21.1696" y1="42" x2="21.1696" y2="0" gradientUnits="userSpaceOnUse">
<stop offset="0.259609" stop-color="#023B8B"/>
<stop offset="0.70661" stop-color="#012558"/>
</linearGradient>
<linearGradient id="paint1_linear_712_1131" x1="12.7698" y1="27.9992" x2="12.7698" y2="9.81479" gradientUnits="userSpaceOnUse">
<stop offset="0.259609" stop-color="#023B8B"/>
<stop offset="0.70661" stop-color="#012558"/>
</linearGradient>
<linearGradient id="paint2_linear_712_1131" x1="21.1696" y1="22.3994" x2="21.1696" y2="20.9994" gradientUnits="userSpaceOnUse">
<stop offset="0.259609" stop-color="#023B8B"/>
<stop offset="0.70661" stop-color="#012558"/>
</linearGradient>
<linearGradient id="paint3_linear_712_1131" x1="26.7694" y1="22.3994" x2="26.7694" y2="20.9994" gradientUnits="userSpaceOnUse">
<stop offset="0.259609" stop-color="#023B8B"/>
<stop offset="0.70661" stop-color="#012558"/>
</linearGradient>
<linearGradient id="paint4_linear_712_1131" x1="25.3695" y1="25.1993" x2="25.3695" y2="23.7993" gradientUnits="userSpaceOnUse">
<stop offset="0.259609" stop-color="#023B8B"/>
<stop offset="0.70661" stop-color="#012558"/>
</linearGradient>
<linearGradient id="paint5_linear_712_1131" x1="22.5695" y1="27.9992" x2="22.5695" y2="26.5993" gradientUnits="userSpaceOnUse">
<stop offset="0.259609" stop-color="#023B8B"/>
<stop offset="0.70661" stop-color="#012558"/>
</linearGradient>
<linearGradient id="paint6_linear_712_1131" x1="28.1693" y1="27.9992" x2="28.1693" y2="26.5993" gradientUnits="userSpaceOnUse">
<stop offset="0.259609" stop-color="#023B8B"/>
<stop offset="0.70661" stop-color="#012558"/>
</linearGradient>
<linearGradient id="paint7_linear_712_1131" x1="7.86993" y1="32.1991" x2="7.86993" y2="30.7991" gradientUnits="userSpaceOnUse">
<stop offset="0.259609" stop-color="#023B8B"/>
<stop offset="0.70661" stop-color="#012558"/>
</linearGradient>
<linearGradient id="paint8_linear_712_1131" x1="14.1698" y1="32.1991" x2="14.1698" y2="30.7991" gradientUnits="userSpaceOnUse">
<stop offset="0.259609" stop-color="#023B8B"/>
<stop offset="0.70661" stop-color="#012558"/>
</linearGradient>
<linearGradient id="paint9_linear_712_1131" x1="25.3695" y1="32.1991" x2="25.3695" y2="30.7991" gradientUnits="userSpaceOnUse">
<stop offset="0.259609" stop-color="#023B8B"/>
<stop offset="0.70661" stop-color="#012558"/>
</linearGradient>
<linearGradient id="paint10_linear_712_1131" x1="9.26989" y1="34.999" x2="9.26989" y2="33.5991" gradientUnits="userSpaceOnUse">
<stop offset="0.259609" stop-color="#023B8B"/>
<stop offset="0.70661" stop-color="#012558"/>
</linearGradient>
<linearGradient id="paint11_linear_712_1131" x1="14.1698" y1="34.999" x2="14.1698" y2="33.5991" gradientUnits="userSpaceOnUse">
<stop offset="0.259609" stop-color="#023B8B"/>
<stop offset="0.70661" stop-color="#012558"/>
</linearGradient>
<linearGradient id="paint12_linear_712_1131" x1="16.9697" y1="34.999" x2="16.9697" y2="33.5991" gradientUnits="userSpaceOnUse">
<stop offset="0.259609" stop-color="#023B8B"/>
<stop offset="0.70661" stop-color="#012558"/>
</linearGradient>
<linearGradient id="paint13_linear_712_1131" x1="23.2695" y1="34.999" x2="23.2695" y2="33.5991" gradientUnits="userSpaceOnUse">
<stop offset="0.259609" stop-color="#023B8B"/>
<stop offset="0.70661" stop-color="#012558"/>
</linearGradient>
<linearGradient id="paint14_linear_712_1131" x1="28.8693" y1="34.999" x2="28.8693" y2="33.5991" gradientUnits="userSpaceOnUse">
<stop offset="0.259609" stop-color="#023B8B"/>
<stop offset="0.70661" stop-color="#012558"/>
</linearGradient>
<linearGradient id="paint15_linear_712_1131" x1="12.0698" y1="37.7989" x2="12.0698" y2="36.399" gradientUnits="userSpaceOnUse">
<stop offset="0.259609" stop-color="#023B8B"/>
<stop offset="0.70661" stop-color="#012558"/>
</linearGradient>
<linearGradient id="paint16_linear_712_1131" x1="25.3695" y1="37.7989" x2="25.3695" y2="36.399" gradientUnits="userSpaceOnUse">
<stop offset="0.259609" stop-color="#023B8B"/>
<stop offset="0.70661" stop-color="#012558"/>
</linearGradient>
</defs>
</svg>
