<svg width="42" height="42" viewBox="0 0 42 42" fill="none" xmlns="http://www.w3.org/2000/svg">
<g clip-path="url(#clip0_712_4818)">
<path d="M2.48669 0.0729942C1.64548 0.269873 0.9743 0.860512 0.670032 1.63908C0.508949 2.05968 0.5 2.43554 0.5 9.55004C0.5 16.6824 0.508949 17.0404 0.670032 17.461C0.893758 18.0516 1.42175 18.6065 2.00344 18.866L2.46879 19.0808H8.15144H13.8341L14.2547 18.875C14.4874 18.7586 14.8543 18.4722 15.078 18.2306C15.785 17.47 15.7581 17.8369 15.7581 9.49635C15.7581 2.31026 15.7581 2.11338 15.5792 1.63908C15.4539 1.31691 15.257 1.02159 14.9617 0.753122C14.1294 -0.0254459 14.55 0.0193005 8.33042 0.0014019C5.29669 -0.00754738 2.67462 0.0282497 2.48669 0.0729942ZM10.6572 2.43554C10.6572 4.10902 10.7198 4.38644 11.2031 4.7265C11.4894 4.93233 11.5879 4.94128 13.145 4.96813L14.7737 5.00392V10.9908C14.7737 15.9755 14.7558 17.0314 14.6485 17.2283C14.4784 17.5505 14.0668 17.9264 13.7625 18.0427C13.5925 18.1053 11.7132 18.1411 8.14249 18.1411C3.51583 18.1411 2.72831 18.1232 2.45089 18.0069C2.00344 17.819 1.80656 17.631 1.60968 17.2015C1.4486 16.8614 1.43965 16.4319 1.43965 9.56794C1.43965 3.22306 1.45755 2.25656 1.57389 1.97019C1.76182 1.52274 1.94975 1.32586 2.3793 1.12898C2.71042 0.976849 3.05048 0.95895 6.70169 0.95895H10.6572V2.43554ZM13.7625 1.05739C14.0668 1.17373 14.4784 1.54959 14.6485 1.87175C14.729 2.03284 14.7737 2.41765 14.7737 3.06198V4.00163H13.3777C12.5902 4.00163 11.91 3.96583 11.8116 3.91214C11.6505 3.82265 11.6416 3.70631 11.6416 2.3908V0.95895H12.5723C13.0913 0.95895 13.6193 1.0037 13.7625 1.05739Z" fill="url(#paint0_linear_712_4818)"/>
<path d="M4.24966 8.61038C4.11543 8.8162 4.11543 8.852 4.24966 9.05783L4.39285 9.28156H8.15145H11.9101L12.0174 9.05783C12.089 8.8878 12.089 8.78041 12.0174 8.61038L11.9101 8.38665H8.15145H4.39285L4.24966 8.61038Z" fill="url(#paint1_linear_712_4818)"/>
<path d="M4.45547 10.8655C4.19595 10.9282 4.08856 11.3219 4.25859 11.5725L4.39283 11.7873H8.10669C11.3552 11.7873 11.8295 11.7694 11.9458 11.6441C12.1427 11.4562 12.1248 11.1967 11.91 10.9819C11.74 10.8118 11.6147 10.8029 8.17828 10.8118C6.21844 10.8208 4.54496 10.8387 4.45547 10.8655Z" fill="url(#paint2_linear_712_4818)"/>
<path d="M20.7606 2.39076C19.5972 2.9993 19.4988 4.41325 20.5548 5.21866L20.8859 5.47819L25.4141 5.52293C29.7365 5.56768 29.9602 5.57663 30.2466 5.74666C30.4077 5.8451 30.6225 6.06882 30.712 6.23886C30.873 6.52523 30.882 6.82054 30.882 10.4539V14.3646L29.996 14.4004C29.2801 14.4183 29.0743 14.463 28.9222 14.5973C28.5463 14.9373 28.6447 15.1253 30.4793 17.5147C32.2333 19.8146 32.466 20.0472 32.8418 19.8772C33.1193 19.7519 36.4304 15.3758 36.4304 15.1432C36.4304 15.0268 36.3499 14.8478 36.2604 14.7315C36.0993 14.5346 36.0098 14.5167 35.1417 14.4899L34.1931 14.4541V10.3286C34.1931 5.8451 34.1842 5.71981 33.683 4.72647C33.343 4.04634 32.4033 3.10669 31.7143 2.75768C30.6583 2.22968 30.4793 2.21178 25.5573 2.22073C21.3244 2.22073 21.0649 2.22968 20.7606 2.39076ZM30.4793 3.24092C31.6158 3.54519 32.457 4.24322 32.9671 5.32605L33.2535 5.92564L33.2982 10.6686L33.343 15.4116L34.211 15.4564L35.0791 15.5011L33.871 17.0672C33.2087 17.9263 32.636 18.6333 32.6092 18.6333C32.5734 18.6333 31.9917 17.9084 31.3115 17.0225L30.0676 15.4116L30.9267 15.3848L31.7858 15.3579L31.759 10.7313L31.7322 6.10462L31.4905 5.69296C31.3563 5.46924 31.1057 5.17392 30.9357 5.03968C30.2735 4.53854 30.2466 4.53854 25.5573 4.53854H21.2439L21.0022 4.30586C20.698 4.00159 20.698 3.61678 20.9933 3.33041L21.2081 3.10669H25.5752C29.2175 3.10669 30.0408 3.13354 30.4793 3.24092Z" fill="url(#paint3_linear_712_4818)"/>
<path d="M30.4525 22.1682C28.0004 22.7051 25.9332 24.0206 24.4208 26.0163C23.7854 26.8485 23.0426 28.3967 22.7742 29.4617C22.461 30.6519 22.3894 32.4864 22.5952 33.6856C23.2664 37.5605 26.1301 40.6748 29.9513 41.6771C32.3049 42.2856 34.6764 42.0351 36.9226 40.9164C38.086 40.3437 38.8556 39.7799 39.7147 38.8761C43.4733 34.9206 43.3838 28.7457 39.5268 24.8976C38.265 23.6448 36.6452 22.7141 34.9091 22.2577C33.7815 21.9624 31.6069 21.9176 30.4525 22.1682ZM33.2893 23.1526C33.8173 23.4121 34.5511 24.2981 34.9807 25.1572C35.1865 25.5778 35.3565 25.9805 35.3565 26.0521C35.3565 26.1326 35.2134 26.2221 35.0254 26.2758C34.05 26.5353 33.5936 26.598 32.4481 26.589C31.4458 26.589 31.0252 26.5443 30.3719 26.3832C29.9155 26.2758 29.5397 26.1326 29.5397 26.0789C29.5397 25.8462 30.3719 24.3339 30.7209 23.9222C31.3026 23.251 31.7948 22.9736 32.4212 22.9736C32.7703 22.9736 33.0656 23.0362 33.2893 23.1526ZM29.9513 23.3047C29.9334 23.3495 29.7276 23.6537 29.5128 23.9848C29.2891 24.3249 28.9938 24.8618 28.8595 25.1751C28.7253 25.4883 28.5911 25.7478 28.5553 25.7478C28.43 25.7478 27.0876 24.8976 27.0608 24.7992C26.9892 24.5844 28.4837 23.779 29.8081 23.3047C30.005 23.2331 30.005 23.2331 29.9513 23.3047ZM36.3857 23.8238C36.8331 24.0385 37.3611 24.3339 37.5759 24.4949L37.9607 24.7724L37.7549 24.9334C37.4238 25.193 36.4841 25.7478 36.3767 25.7478C36.3141 25.7478 36.162 25.4793 36.0188 25.1572C35.8845 24.835 35.5982 24.307 35.3744 23.9759C35.1597 23.6448 34.9628 23.3495 34.9449 23.3137C34.8643 23.1884 35.6161 23.4568 36.3857 23.8238ZM39.67 26.4995C42.1131 29.748 42.1489 34.1599 39.7326 37.3816C39.4552 37.7485 39.1062 38.1691 38.9541 38.3033L38.6856 38.5628L38.1576 38.2049C37.8712 38.017 37.4059 37.7216 37.1195 37.5605C36.681 37.3189 36.6005 37.2384 36.6452 37.0773C37.3969 34.3657 37.4506 30.2044 36.7794 27.466C36.672 27.0544 36.6094 26.7053 36.6273 26.6964C36.6363 26.6875 36.9137 26.5264 37.2358 26.3474C37.558 26.1684 38.0234 25.891 38.265 25.721L38.7124 25.4077L38.9183 25.6046C39.0346 25.7031 39.3747 26.1147 39.67 26.4995ZM26.9265 25.9089C27.2666 26.1416 27.714 26.41 27.9199 26.5085C28.2331 26.6427 28.2868 26.7053 28.251 26.8575C28.0362 27.6092 27.7409 29.399 27.6604 30.4461C27.4993 32.379 27.6783 34.7595 28.1168 36.5583C28.2152 36.9699 28.2868 37.3189 28.2689 37.3368C28.2599 37.3458 28.0631 37.4532 27.8393 37.5605C27.6156 37.6679 27.1592 37.9454 26.8191 38.178L26.2017 38.5897L25.7632 38.0975C23.0337 35.0369 22.631 30.634 24.7698 27.1975C25.1636 26.5622 26.0853 25.4793 26.2285 25.4793C26.2732 25.4793 26.5865 25.6762 26.9265 25.9089ZM29.9692 27.2691C31.5084 27.6808 33.3162 27.6718 34.927 27.2602C35.3297 27.1618 35.6787 27.1081 35.7234 27.1528C35.8129 27.2423 36.1262 28.8084 36.2514 29.7749C36.3678 30.7503 36.3678 33.274 36.2425 34.2494C36.1351 35.1443 35.8129 36.773 35.7324 36.8625C35.6966 36.8983 35.3834 36.8536 35.0344 36.7551C33.2446 36.2898 31.3026 36.3345 29.3965 36.8894C29.1727 36.961 29.0922 36.7283 28.8058 35.1801C28.5284 33.6319 28.5284 30.3924 28.8148 28.8352C29.0385 27.5824 29.1638 27.0902 29.2533 27.0902C29.2891 27.0902 29.6112 27.1707 29.9692 27.2691ZM33.9247 37.5069C34.9359 37.6858 35.3565 37.8201 35.3565 37.9543C35.3565 38.0259 35.1776 38.4376 34.9538 38.8671C33.6652 41.4444 31.8127 41.7577 30.3988 39.6367C29.9603 38.9655 29.5128 38.0259 29.5754 37.8738C29.6023 37.7932 30.1661 37.6411 31.1952 37.4353C31.6248 37.3547 33.3072 37.3995 33.9247 37.5069ZM29.6828 40.2542C29.8618 40.4958 29.9871 40.6927 29.9603 40.6927C29.656 40.6927 28.0452 39.9499 27.4098 39.5114C26.9444 39.1893 26.9623 39.1445 27.9199 38.5807L28.5911 38.1959L28.9759 39.0013C29.1817 39.4488 29.5039 40.0126 29.6828 40.2542ZM37.4775 38.8761L37.9518 39.1982L37.7459 39.3504C37.1911 39.7889 35.3386 40.6927 34.9986 40.6927C34.9538 40.6927 35.0881 40.4332 35.3028 40.111C35.5176 39.7889 35.8308 39.2251 35.9919 38.8582L36.2783 38.1959L36.6452 38.3839C36.8421 38.4823 37.2179 38.706 37.4775 38.8761Z" fill="url(#paint4_linear_712_4818)"/>
<path d="M7.67716 22.1861C7.40869 22.4009 4.12439 26.7591 4.12439 26.9112C4.12439 27.0007 4.20493 27.1707 4.31232 27.3049C4.4913 27.5376 4.50025 27.5376 5.77996 27.5376C7.04178 27.5376 7.07758 27.5287 7.21181 27.3228C7.3192 27.1707 7.32815 27.0544 7.26551 26.8843C7.16707 26.6338 6.96124 26.5711 6.07528 26.5264L5.55624 26.5085L6.72856 24.9871C7.3729 24.1459 7.92774 23.43 7.97248 23.3942C8.00828 23.3495 8.58997 24.0296 9.27009 24.9155L10.4961 26.5085L9.62806 26.5353L8.76895 26.5622L8.79579 31.1888C8.82264 35.735 8.82264 35.8244 9.01952 36.1735C9.24325 36.5941 9.68175 37.0236 10.1203 37.2563C10.4066 37.4174 10.7646 37.4263 14.9348 37.4711L19.4452 37.5158L19.6152 37.7306C19.8479 38.017 19.83 38.4197 19.5615 38.6792L19.3467 38.9029H15.0512C12.2143 38.9029 10.5946 38.8671 10.2813 38.8045C8.99267 38.5271 7.95458 37.5964 7.51608 36.3256C7.36395 35.8692 7.34605 35.5381 7.34605 32.2627C7.34605 28.8173 7.3371 28.692 7.16707 28.522C6.94334 28.2983 6.70172 28.2893 6.50484 28.5131C6.36165 28.6652 6.3527 28.9874 6.37955 32.4238C6.4064 36.1377 6.41535 36.1824 6.62118 36.7104C7.19391 38.1422 8.25885 39.1714 9.66385 39.6367C10.2366 39.8336 10.3977 39.8336 14.7022 39.8694C17.7091 39.8873 19.2662 39.8694 19.5078 39.7978C20.886 39.4309 21.2081 37.5516 20.0269 36.773L19.6599 36.5314L15.1228 36.4867C10.7109 36.4419 10.5767 36.433 10.335 36.254C10.2008 36.1556 10.0039 35.9587 9.90548 35.8244C9.7265 35.5828 9.71755 35.4575 9.6907 31.5557L9.66385 27.5376H10.5409C11.5789 27.5376 11.8206 27.4302 11.8206 26.9649C11.8206 26.7322 11.5163 26.2848 10.1113 24.4502C9.16271 23.2152 8.34834 22.1861 8.29465 22.1503C8.14251 22.0429 7.8472 22.0697 7.67716 22.1861Z" fill="url(#paint5_linear_712_4818)"/>
</g>
<defs>
<linearGradient id="paint0_linear_712_4818" x1="8.12913" y1="19.0808" x2="8.12913" y2="2.09808e-05" gradientUnits="userSpaceOnUse">
<stop offset="0.259609" stop-color="#023B8B"/>
<stop offset="0.70661" stop-color="#012558"/>
</linearGradient>
<linearGradient id="paint1_linear_712_4818" x1="8.11006" y1="9.28156" x2="8.11006" y2="8.38665" gradientUnits="userSpaceOnUse">
<stop offset="0.259609" stop-color="#023B8B"/>
<stop offset="0.70661" stop-color="#012558"/>
</linearGradient>
<linearGradient id="paint2_linear_712_4818" x1="8.12967" y1="11.7873" x2="8.12967" y2="10.8095" gradientUnits="userSpaceOnUse">
<stop offset="0.259609" stop-color="#023B8B"/>
<stop offset="0.70661" stop-color="#012558"/>
</linearGradient>
<linearGradient id="paint3_linear_712_4818" x1="28.126" y1="19.9211" x2="28.126" y2="2.21932" gradientUnits="userSpaceOnUse">
<stop offset="0.259609" stop-color="#023B8B"/>
<stop offset="0.70661" stop-color="#012558"/>
</linearGradient>
<linearGradient id="paint4_linear_712_4818" x1="32.4782" y1="42" x2="32.4782" y2="22.0051" gradientUnits="userSpaceOnUse">
<stop offset="0.259609" stop-color="#023B8B"/>
<stop offset="0.70661" stop-color="#012558"/>
</linearGradient>
<linearGradient id="paint5_linear_712_4818" x1="12.4386" y1="39.8759" x2="12.4386" y2="22.0827" gradientUnits="userSpaceOnUse">
<stop offset="0.259609" stop-color="#023B8B"/>
<stop offset="0.70661" stop-color="#012558"/>
</linearGradient>
<clipPath id="clip0_712_4818">
<rect width="42" height="42" fill="white"/>
</clipPath>
</defs>
</svg>
