<svg width="42" height="42" viewBox="0 0 42 42" fill="none" xmlns="http://www.w3.org/2000/svg">
<path d="M16.3815 2.97771C12.4522 4.63475 11.8616 4.91365 11.7632 5.11053C11.6565 5.2992 11.6401 6.10311 11.6647 10.4015L11.6893 15.4629L11.9108 16.1191C12.3456 17.3824 13.3054 18.7851 14.6343 20.0894C15.0198 20.4668 15.3397 20.7785 15.3397 20.7949C15.3397 20.8031 14.8886 20.7949 14.3472 20.7703C13.3874 20.7293 13.3382 20.7211 13.1331 20.4996C13.0182 20.3765 11.8862 19.589 10.6229 18.7523C9.03153 17.6859 8.26043 17.2265 8.10458 17.2265C7.97333 17.2265 7.78465 17.3168 7.637 17.448C7.03817 18.0222 0.0737163 26.1187 0.0244976 26.3156C-0.000111786 26.4387 0.0244976 26.6027 0.0901226 26.7176C0.155748 26.8242 1.47645 27.7758 3.03504 28.834C5.10223 30.2367 5.93075 30.7617 6.10301 30.7617C6.28348 30.7617 6.42293 30.6715 6.68543 30.3926L7.02176 30.0234L7.29247 30.3926C7.44012 30.5976 7.76004 30.9832 8.00614 31.2539L8.45731 31.7379L8.27684 32.0824C7.61239 33.3949 8.45731 35.0519 9.90106 35.257C10.2784 35.3144 10.2948 35.3226 10.3522 35.659C10.5245 36.668 11.3202 37.3898 12.3784 37.4801L12.8952 37.5293L13.0593 37.9558C13.3874 38.8418 14.421 39.457 15.3725 39.3422L15.7991 39.2848L15.8975 39.5719C16.037 39.941 16.562 40.466 17.046 40.6957C17.8253 41.073 19.0147 40.8351 19.5643 40.1871L19.7694 39.9328L20.1468 40.1871C21.4018 41.0156 23.0671 40.4414 23.5347 39.0223C23.5921 38.8582 23.6659 38.7351 23.6987 38.7598C23.7315 38.7762 23.953 38.9238 24.1909 39.0797C24.4288 39.2437 24.7569 39.4078 24.921 39.457C25.6264 39.6457 26.4878 39.4734 27.021 39.0305C27.3655 38.7515 27.8085 38.1117 27.8085 37.9066C27.8167 37.6031 27.9233 37.5621 28.3335 37.7015C28.8995 37.8984 29.7362 37.8246 30.212 37.5457C30.8108 37.193 31.3358 36.4711 31.3358 35.9953C31.3358 35.8723 31.3686 35.8476 31.4835 35.8887C32.3366 36.2414 33.0749 36.2578 33.6819 35.9461C34.1249 35.7246 34.6417 35.1422 34.8222 34.6746C35.0026 34.1988 34.9616 33.3211 34.7401 32.8617C34.5761 32.5172 34.1331 32.025 33.7968 31.8199L33.5917 31.6887L34.1495 31.0898C34.453 30.7617 34.7647 30.3844 34.8468 30.2531C35.0108 29.9742 35.0518 29.966 35.2241 30.2285C35.4456 30.5648 35.6999 30.7617 35.9214 30.7617C36.0608 30.7617 37.0944 30.1137 38.9237 28.8668C40.4577 27.825 41.7784 26.9144 41.8604 26.8488C42.0163 26.7012 42.0409 26.3976 41.9097 26.1515C41.803 25.9547 34.7155 17.7926 34.3628 17.448C34.2233 17.3168 34.0264 17.2265 33.8952 17.2265C33.5999 17.2265 28.8749 20.3765 28.7518 20.6555C28.6862 20.8113 28.6206 20.8359 28.3827 20.8031C28.2268 20.7785 27.8085 20.7375 27.4557 20.7129L26.8241 20.6555L27.6936 19.7449C29.1538 18.2027 30.0479 16.6769 30.2612 15.3316C30.3186 15.0117 30.3514 12.9527 30.3514 10.0652C30.3514 6.13592 30.335 5.28279 30.2366 5.10233C30.1382 4.90545 29.5147 4.61834 25.6018 2.96951C23.1163 1.91951 21.0409 1.06639 20.9835 1.06639C20.9261 1.07459 18.8507 1.92772 16.3815 2.97771ZM25.0604 4.12615L28.9979 5.79139L29.0225 10.459C29.0389 15.6187 29.0554 15.4793 28.5057 16.5621C27.9972 17.5875 26.98 18.7769 25.6182 19.9746L24.9456 20.5652L22.5011 20.6144C20.5569 20.6472 18.096 20.8195 17.6366 20.9426C17.5218 20.9754 16.037 19.7039 15.2823 18.9246C14.8722 18.5062 14.3636 17.9238 14.1503 17.6285C13.6663 16.9805 13.1659 15.9551 13.0429 15.3972C12.9854 15.1183 12.969 13.3957 12.9772 10.3769L13.0018 5.79139L16.9393 4.12615C19.105 3.21561 20.9343 2.46092 20.9999 2.46092C21.0655 2.46092 22.8948 3.2074 25.0604 4.12615ZM10.1964 20.0074C11.1561 20.6472 11.7222 21.0656 11.6975 21.1312C11.6729 21.1969 10.3768 23.0344 8.81825 25.2246C6.8495 27.989 5.93895 29.2031 5.85692 29.1703C5.68465 29.1047 1.73895 26.4222 1.68153 26.332C1.65692 26.291 3.11708 24.5519 4.92997 22.4765L8.21942 18.6949L8.4409 18.8344C8.55575 18.9164 9.35145 19.4414 10.1964 20.0074ZM37.078 22.4683C38.8827 24.5437 40.3593 26.2664 40.3593 26.3074C40.3511 26.3402 39.3913 27.0211 38.2182 27.8086C36.3807 29.039 36.0772 29.2195 35.9788 29.1211C35.7327 28.8586 30.3268 21.2051 30.3186 21.1066C30.3104 21.0328 33.6573 18.7031 33.7722 18.7031C33.7804 18.7031 35.2651 20.4012 37.078 22.4683ZM25.9628 21.9023C26.6847 21.9433 27.7675 22.0254 28.3663 22.0746L29.4491 22.173L31.7624 25.4215C33.0339 27.2097 34.1085 28.7191 34.1495 28.7765C34.2069 28.8504 34.1413 29.0062 33.9198 29.3344C33.4768 29.966 32.5663 30.9422 32.4432 30.893C32.3858 30.8765 31.4179 30.2203 30.2776 29.4492C28.4565 28.2105 28.2268 28.0219 28.3007 27.8906C28.4401 27.6281 28.3909 27.3574 28.1694 27.1441C27.9643 26.9555 27.9561 26.9472 25.7413 26.9226L23.5182 26.8898L23.1491 26.5453C22.7472 26.1762 22.2878 25.5363 21.9597 24.8883C21.8448 24.6586 21.6889 24.4453 21.6151 24.4125C21.5413 24.3879 20.6554 24.3633 19.6464 24.3633C17.4972 24.3633 17.5382 24.3551 17.3495 25.1672C17.128 26.1023 16.7343 26.6765 16.0452 27.0703C15.8155 27.2097 15.5776 27.3164 15.5284 27.3164C15.3807 27.3164 15.3807 24.4535 15.5284 24.2648C15.5776 24.1992 16.1847 23.6906 16.8737 23.1492L18.1206 22.1484L18.9163 22.0582C20.8932 21.8367 23.7807 21.7711 25.9628 21.9023ZM15.7909 22.1402C16.0288 22.1894 16.0206 22.1976 15.2823 22.7883C14.1831 23.666 14.1913 23.6332 14.1913 26.0367C14.1913 28.2023 14.2159 28.3418 14.7163 28.5797C15.0854 28.7519 15.2741 28.7437 15.9222 28.514C17.0952 28.1039 17.9401 27.2918 18.3585 26.1926L18.58 25.5937H19.7366H20.8932L21.2132 26.1351C21.6069 26.8078 22.378 27.6609 22.8374 27.9316C23.1491 28.1121 23.2886 28.1367 24.7241 28.1859L26.2745 28.2433L29.687 30.573C31.5655 31.8527 33.2225 33.034 33.3702 33.1816C33.5835 33.4113 33.6327 33.5344 33.6327 33.8215C33.6327 34.5515 32.9847 35.0765 32.3366 34.8715C32.1725 34.8222 31.0159 34.0594 29.7772 33.1734C25.1179 29.8676 25.3886 30.0398 24.9866 30.1383C24.6913 30.2121 24.4862 30.6387 24.6011 30.934C24.6503 31.0816 25.4542 31.6887 27.2425 32.9437C28.7929 34.0347 29.8593 34.8387 29.9495 34.9863C30.4089 35.7164 29.7444 36.6926 28.8913 36.5531C28.7108 36.5285 27.8249 35.9461 26.1843 34.773C24.4698 33.5426 23.6659 33.0176 23.4772 32.993C22.985 32.9273 22.6487 33.4359 22.8866 33.8789C22.9358 33.9691 23.6249 34.5023 24.4288 35.0765C26.5534 36.5941 26.5698 36.6187 26.578 37.1848C26.5862 38.0297 25.7331 38.5137 24.9948 38.0789C24.8389 37.9887 24.0022 37.4144 23.1327 36.7992C22.2632 36.184 21.4593 35.659 21.3526 35.6344C20.9507 35.5277 20.5159 36.0527 20.6636 36.4465C20.7046 36.5531 21.0737 36.8812 21.4757 37.1848C22.0499 37.6031 22.2304 37.7836 22.3124 38.0133C22.5749 38.8172 21.6972 39.5719 20.9425 39.1863C20.5487 38.9812 20.4667 38.8254 20.4585 38.2348C20.4503 37.3406 20.0155 36.6762 19.1624 36.2414C18.9819 36.1512 18.8179 36.0691 18.8014 36.0527C18.7932 36.0445 18.8589 35.8723 18.9491 35.6754C19.1542 35.2078 19.1624 34.4449 18.9573 34.0019C18.5718 33.157 17.9237 32.7222 16.9886 32.6648C16.4389 32.6402 16.3159 32.6566 15.955 32.8453L15.5448 33.0586L15.4218 32.8781C15.2331 32.5828 14.7737 32.1808 14.4456 32.0168C14.1257 31.8609 13.1003 31.8117 12.7065 31.9347C12.5179 31.9922 12.485 31.9758 12.3866 31.7461C12.3292 31.6066 12.1159 31.3523 11.919 31.1719C11.3038 30.6305 10.4917 30.4664 9.7534 30.7207L9.40067 30.8437L9.04793 30.5074C8.85926 30.3105 8.49012 29.8676 8.24403 29.5148L7.77645 28.875L7.96512 28.6125C8.90848 27.2672 12.4358 22.3207 12.5343 22.2058C12.6409 22.0828 12.8214 22.0664 14.1011 22.0746C14.8968 22.0828 15.6515 22.1074 15.7909 22.1402ZM11.0741 32.148C11.5007 32.5664 11.5007 32.9519 11.0823 33.5344C10.7378 34.0019 10.2784 34.1414 9.85184 33.9117C9.4827 33.7148 9.23661 33.2473 9.31043 32.8863C9.34325 32.7469 9.52372 32.468 9.71239 32.2711C10.0323 31.943 10.0979 31.9101 10.4507 31.9101C10.7706 31.9101 10.8854 31.9512 11.0741 32.148ZM13.7975 33.1324C13.9042 33.1734 14.0847 33.3047 14.2159 33.4277C14.5522 33.7723 14.5276 34.2398 14.1339 34.7566C13.33 35.823 13.0921 36.0855 12.8706 36.1758C12.1323 36.4875 11.2874 35.618 11.6647 34.9207C11.714 34.8222 12.0339 34.3957 12.362 33.9773C13.0757 33.0832 13.3136 32.9437 13.7975 33.1324ZM17.4725 34.125C17.7761 34.3383 17.9237 34.7812 17.8089 35.1094C17.7186 35.3801 16.0124 37.5867 15.6761 37.8738C15.5284 38.0051 15.3561 38.0625 15.1182 38.0625C14.4866 38.0625 13.9862 37.4144 14.1913 36.873C14.3307 36.5039 16.3323 34.0512 16.562 33.9691C16.8409 33.8625 17.1854 33.9199 17.4725 34.125ZM18.703 37.4473C18.8343 37.5211 18.9983 37.6851 19.0722 37.8164C19.3182 38.3004 19.1788 38.7269 18.5882 39.3258C18.2518 39.6621 17.8909 39.7113 17.4725 39.498C16.8901 39.1945 16.8163 38.5957 17.2757 37.9722C17.4397 37.7508 17.6448 37.5129 17.7432 37.4473C17.9729 37.2914 18.3995 37.2914 18.703 37.4473Z" fill="url(#paint0_linear_1024_1505)"/>
<path d="M19.9745 6.35742C16.7917 6.94805 14.7163 10.1555 15.5038 13.2563C16.16 15.832 18.3585 17.5547 20.9999 17.5547C24.0514 17.5547 26.4631 15.266 26.6354 12.2145C26.7995 9.38438 24.7897 6.84961 21.9842 6.34922C21.2296 6.21797 20.721 6.21797 19.9745 6.35742ZM22.0581 7.66992C23.9776 8.1293 25.3803 9.92578 25.3639 11.9438C25.3557 13.9781 23.9612 15.7336 21.976 16.2012C19.7366 16.7262 17.4233 15.348 16.7753 13.0922C16.5784 12.4113 16.5948 11.3449 16.8081 10.6641C17.2674 9.1957 18.4241 8.08008 19.9006 7.66992C20.4421 7.52227 21.4182 7.52227 22.0581 7.66992Z" fill="url(#paint1_linear_1024_1505)"/>
<path d="M21.8449 11.5008L20.2617 13.084L19.7039 12.5262C19.2281 12.0504 19.105 11.9766 18.8589 11.9766C18.3832 11.9766 18.1043 12.4359 18.3257 12.8543C18.5062 13.207 19.8679 14.5031 20.1222 14.5605C20.2617 14.6016 20.4093 14.577 20.5324 14.4949C20.6308 14.4293 21.5168 13.5762 22.5011 12.5918C24.1253 10.9676 24.2812 10.7871 24.2812 10.5328C24.2812 10.1719 24.0351 9.92578 23.6824 9.92578C23.4527 9.92578 23.2476 10.098 21.8449 11.5008Z" fill="url(#paint2_linear_1024_1505)"/>
<defs>
<linearGradient id="paint0_linear_1024_1505" x1="21.0048" y1="40.8757" x2="21.0048" y2="1.06639" gradientUnits="userSpaceOnUse">
<stop offset="0.259609" stop-color="#023B8B"/>
<stop offset="0.70661" stop-color="#012558"/>
</linearGradient>
<linearGradient id="paint1_linear_1024_1505" x1="20.9906" y1="17.5547" x2="20.9906" y2="6.25178" gradientUnits="userSpaceOnUse">
<stop offset="0.259609" stop-color="#023B8B"/>
<stop offset="0.70661" stop-color="#012558"/>
</linearGradient>
<linearGradient id="paint2_linear_1024_1505" x1="21.2649" y1="14.58" x2="21.2649" y2="9.92578" gradientUnits="userSpaceOnUse">
<stop offset="0.259609" stop-color="#023B8B"/>
<stop offset="0.70661" stop-color="#012558"/>
</linearGradient>
</defs>
</svg>
