<svg width="42" height="42" viewBox="0 0 42 42" fill="none" xmlns="http://www.w3.org/2000/svg">
<g clip-path="url(#clip0_712_300)">
<path d="M27.5638 0.25977C26.6997 0.54441 25.9881 1.21534 25.7137 2.01843C25.6018 2.3234 25.5307 2.3539 23.5687 2.99434L21.5457 3.65511L21.2102 3.33997C19.5431 1.77446 16.5849 2.98417 16.5645 5.25112L16.5544 5.7594L14.7042 7.67055L12.854 9.5817L12.4779 9.41905C12.0306 9.23607 11.1055 9.21574 10.5464 9.38855C10.089 9.52071 9.35705 10.1306 9.05208 10.6288C8.30998 11.8181 8.71661 13.5463 9.92633 14.3392C11.2174 15.2033 12.9252 14.8577 13.7995 13.5565C14.2874 12.8246 14.3789 12.0723 14.0841 10.9947C14.0231 10.7609 14.1858 10.5474 15.6496 9.04292L17.2761 7.35542L17.7844 7.69088C19.2178 8.65662 21.0476 8.17884 21.8507 6.64382C21.9117 6.51166 22.0235 6.12537 22.0947 5.77974L22.2167 5.15963L23.8432 4.62085C24.7276 4.32604 25.5307 4.06174 25.6222 4.03124C25.7238 4.00074 25.8255 4.0719 25.8966 4.22439C26.2931 5.09863 27.2995 5.70858 28.3567 5.70858C30.766 5.69841 32.0265 2.92318 30.4509 1.06286C29.8511 0.351262 28.4686 -0.0350342 27.5638 0.25977ZM29.0683 2.03876C29.4241 2.29291 29.5969 2.84185 29.4648 3.30947C29.3225 3.81776 28.9463 4.08207 28.3466 4.08207C27.9399 4.08207 27.818 4.03124 27.5536 3.76693C27.2487 3.46196 27.1877 3.26881 27.2283 2.76053C27.2995 1.91678 28.3466 1.49998 29.0683 2.03876ZM20.1225 4.58018C20.6105 5.06814 20.641 5.60692 20.2242 6.1457C19.5329 7.01995 18.191 6.49133 18.191 5.34261C18.191 5.05797 18.2724 4.89532 18.5367 4.63101C18.8315 4.33621 18.9535 4.28538 19.3601 4.28538C19.7464 4.28538 19.8887 4.33621 20.1225 4.58018ZM12.0306 11.0151C12.3966 11.1777 12.6101 11.5538 12.6202 12.0316C12.6304 12.5602 12.3458 12.9364 11.807 13.1295C11.4309 13.2617 11.3495 13.2515 11.0344 13.099C9.88566 12.5602 10.2008 10.9134 11.4512 10.8931C11.6342 10.8931 11.8883 10.9439 12.0306 11.0151Z" fill="url(#paint0_linear_712_300)"/>
<path d="M3.80641 7.08079C3.47094 7.41626 3.4811 7.79239 3.84707 8.15835C4.14187 8.45316 4.14187 8.45316 5.43292 8.45316H6.72396L7.02893 8.14819C7.28307 7.88388 7.32374 7.78222 7.27291 7.50775C7.16109 6.90797 6.94761 6.82665 5.41259 6.82665C4.10121 6.82665 4.04022 6.83681 3.80641 7.08079Z" fill="url(#paint1_linear_712_300)"/>
<path d="M25.5612 8.7074L25.307 8.95137V15.6709V22.3802H24.2396H23.1722V18.314C23.1722 14.0342 23.1417 13.7699 22.7148 13.5971C22.6233 13.5666 21.4136 13.5361 20.0209 13.5361C17.6929 13.5361 17.4795 13.5463 17.266 13.7292L17.022 13.9224L16.9915 18.1513L16.961 22.3802H15.9038H14.8364V20.093C14.8364 17.6735 14.7957 17.3991 14.3586 17.2059C14.2061 17.1347 13.2505 17.0941 11.685 17.0941C9.26557 17.0941 9.2554 17.0941 8.97076 17.3381L8.68612 17.582L8.65563 19.971L8.62513 22.3599L7.07994 22.4006C5.66691 22.4311 5.48393 22.4616 4.97564 22.7055C3.86758 23.224 3.10516 24.1694 2.79002 25.4096C2.6477 25.9382 2.62737 26.5888 2.65786 29.4759C2.68836 32.7187 2.69853 32.9322 2.91201 33.4405C3.3898 34.5994 4.35554 35.5346 5.44327 35.8599C5.82956 35.9718 7.02911 36.0022 11.746 36.0022H17.5709L19.0043 38.7978C20.397 41.5019 20.7223 42 21.1391 42C21.5559 42 21.8812 41.5019 23.2739 38.7978L24.7073 36.0022H30.5322C37.0078 36.0022 36.9264 36.0124 37.9125 35.3211C38.5224 34.884 39.1324 34.0708 39.3967 33.3083C39.5593 32.8712 39.5898 32.3528 39.6203 29.547C39.6407 27.3411 39.6203 26.1009 39.539 25.6841C39.2747 24.3524 38.4919 23.285 37.3534 22.7259L36.7434 22.4311L34.1309 22.4006L31.5183 22.3701L31.4878 15.6709L31.4573 8.98187L31.2133 8.71756L30.9693 8.45325H28.3872H25.8052L25.5612 8.7074ZM29.8613 16.1995L29.8308 22.3294L28.3872 22.3599L26.9335 22.3904V16.23V10.0798H28.4076H29.8816L29.8613 16.1995ZM21.5457 18.7714V22.3802H20.0717H18.5977V18.7714V15.1626H20.0717H21.5457V18.7714ZM13.2099 20.5504V22.3802H11.7358H10.2618V20.5504V18.7206H11.7358H13.2099V20.5504ZM36.652 24.1999C36.8756 24.3015 37.2111 24.5659 37.3839 24.7793C37.9633 25.4706 38.0142 25.8366 38.0142 29.1912C38.0142 32.5459 37.9633 32.9119 37.3839 33.6031C36.7333 34.3961 36.9976 34.3757 30.1256 34.3757C24.2803 34.3757 24.0058 34.3859 23.772 34.5689C23.6297 34.6705 22.9994 35.7684 22.3692 37.0087C21.7287 38.2489 21.1798 39.2553 21.1391 39.2553C21.0984 39.2553 20.5495 38.2489 19.9091 37.0087C19.2788 35.7684 18.6485 34.6705 18.5062 34.5689C18.2724 34.3859 17.9979 34.3757 12.1526 34.3757C5.28061 34.3757 5.54492 34.3961 4.89432 33.6031C4.31487 32.9119 4.26404 32.5459 4.26404 29.1912C4.26404 25.8264 4.32504 25.4096 4.90448 24.7488C5.0773 24.5455 5.41277 24.3015 5.63641 24.1999C6.02271 24.0169 6.75464 24.0067 21.1391 24.0067C35.6049 24.0067 36.2555 24.0169 36.652 24.1999Z" fill="url(#paint2_linear_712_300)"/>
<path d="M7.22248 26.9142C6.93784 27.27 6.95817 27.5953 7.25298 27.9409L7.49695 28.2256H9.4386C11.3091 28.2256 11.3803 28.2154 11.6039 28.0019C11.919 27.6868 11.9089 27.0972 11.5937 26.843C11.3803 26.6702 11.1566 26.6499 9.39794 26.6499H7.42579L7.22248 26.9142Z" fill="url(#paint3_linear_712_300)"/>
<path d="M13.0982 26.843C12.783 27.0972 12.7729 27.6868 13.088 28.0019C13.3117 28.2154 13.3828 28.2256 15.2533 28.2256H17.195L17.4389 27.9409C17.7337 27.5953 17.7541 27.27 17.4694 26.9142L17.2661 26.6499H15.294C13.5353 26.6499 13.3117 26.6702 13.0982 26.843Z" fill="url(#paint4_linear_712_300)"/>
<path d="M19.2178 26.9142C18.9332 27.27 18.9535 27.5953 19.2483 27.9409L19.4923 28.2256L23.9042 28.2561C26.3237 28.2764 28.4076 28.2561 28.5398 28.2256C29.1599 28.0731 29.3835 27.2903 28.9362 26.8736C28.7024 26.6499 28.6821 26.6499 24.0669 26.6499H19.4212L19.2178 26.9142Z" fill="url(#paint5_linear_712_300)"/>
<path d="M7.22248 30.5737C6.93784 30.9295 6.95817 31.2548 7.25298 31.6004L7.49695 31.885L13.1796 31.9155C16.3004 31.9257 18.9537 31.9155 19.0757 31.885C19.6856 31.7325 19.9093 31.0006 19.462 30.5635L19.218 30.3093H13.3219H7.42579L7.22248 30.5737Z" fill="url(#paint6_linear_712_300)"/>
<path d="M21.7488 30.5128C21.4439 30.8178 21.4439 31.3566 21.759 31.6819C21.942 31.8649 22.0945 31.8852 23.4872 31.8852C24.9714 31.8852 25.0222 31.875 25.2153 31.6412C25.4796 31.3159 25.4695 30.8076 25.1747 30.5331C24.951 30.3197 24.8392 30.3095 23.4465 30.3095C22.0843 30.3095 21.9318 30.3298 21.7488 30.5128Z" fill="url(#paint7_linear_712_300)"/>
<path d="M3.80666 11.2487C3.48136 11.5638 3.48136 11.9196 3.7965 12.2856L4.04048 12.5702H5.43318H6.82588L7.06985 12.2856C7.38499 11.9196 7.38499 11.5638 7.05969 11.2487C6.82588 11.0047 6.76488 10.9945 5.43318 10.9945C4.10147 10.9945 4.04048 11.0047 3.80666 11.2487Z" fill="url(#paint8_linear_712_300)"/>
<path d="M4.19256 15.1321C3.90792 15.1931 3.55212 15.6302 3.55212 15.925C3.55212 16.047 3.64362 16.2706 3.7656 16.4231C3.96892 16.6874 3.97908 16.6874 5.39212 16.6874C6.76448 16.6874 6.82548 16.6773 7.05929 16.4333C7.38459 16.1182 7.38459 15.7624 7.06946 15.3964C6.82548 15.1118 6.80515 15.1118 5.61576 15.0914C4.95499 15.0813 4.31455 15.1016 4.19256 15.1321Z" fill="url(#paint9_linear_712_300)"/>
<path d="M3.84707 19.5236C3.4811 19.8896 3.47094 20.2657 3.80641 20.6012C4.04022 20.8452 4.10121 20.8553 5.41259 20.8553C6.94761 20.8553 7.16109 20.774 7.27291 20.1742C7.32374 19.8998 7.28307 19.7981 7.02893 19.5338L6.72396 19.2288H5.43292C4.14187 19.2288 4.14187 19.2288 3.84707 19.5236Z" fill="url(#paint10_linear_712_300)"/>
</g>
<defs>
<linearGradient id="paint0_linear_712_300" x1="19.9145" y1="14.8144" x2="19.9145" y2="0.160116" gradientUnits="userSpaceOnUse">
<stop offset="0.259609" stop-color="#023B8B"/>
<stop offset="0.70661" stop-color="#012558"/>
</linearGradient>
<linearGradient id="paint1_linear_712_300" x1="5.42768" y1="8.45316" x2="5.42768" y2="6.82665" gradientUnits="userSpaceOnUse">
<stop offset="0.259609" stop-color="#023B8B"/>
<stop offset="0.70661" stop-color="#012558"/>
</linearGradient>
<linearGradient id="paint2_linear_712_300" x1="21.1366" y1="42" x2="21.1366" y2="8.45325" gradientUnits="userSpaceOnUse">
<stop offset="0.259609" stop-color="#023B8B"/>
<stop offset="0.70661" stop-color="#012558"/>
</linearGradient>
<linearGradient id="paint3_linear_712_300" x1="9.42762" y1="28.2256" x2="9.42762" y2="26.6499" gradientUnits="userSpaceOnUse">
<stop offset="0.259609" stop-color="#023B8B"/>
<stop offset="0.70661" stop-color="#012558"/>
</linearGradient>
<linearGradient id="paint4_linear_712_300" x1="15.2643" y1="28.2256" x2="15.2643" y2="26.6499" gradientUnits="userSpaceOnUse">
<stop offset="0.259609" stop-color="#023B8B"/>
<stop offset="0.70661" stop-color="#012558"/>
</linearGradient>
<linearGradient id="paint5_linear_712_300" x1="24.0933" y1="28.2643" x2="24.0933" y2="26.6499" gradientUnits="userSpaceOnUse">
<stop offset="0.259609" stop-color="#023B8B"/>
<stop offset="0.70661" stop-color="#012558"/>
</linearGradient>
<linearGradient id="paint6_linear_712_300" x1="13.3587" y1="31.9193" x2="13.3587" y2="30.3093" gradientUnits="userSpaceOnUse">
<stop offset="0.259609" stop-color="#023B8B"/>
<stop offset="0.70661" stop-color="#012558"/>
</linearGradient>
<linearGradient id="paint7_linear_712_300" x1="23.4632" y1="31.8852" x2="23.4632" y2="30.3095" gradientUnits="userSpaceOnUse">
<stop offset="0.259609" stop-color="#023B8B"/>
<stop offset="0.70661" stop-color="#012558"/>
</linearGradient>
<linearGradient id="paint8_linear_712_300" x1="5.43318" y1="12.5702" x2="5.43318" y2="10.9945" gradientUnits="userSpaceOnUse">
<stop offset="0.259609" stop-color="#023B8B"/>
<stop offset="0.70661" stop-color="#012558"/>
</linearGradient>
<linearGradient id="paint9_linear_712_300" x1="5.42834" y1="16.6874" x2="5.42834" y2="15.0888" gradientUnits="userSpaceOnUse">
<stop offset="0.259609" stop-color="#023B8B"/>
<stop offset="0.70661" stop-color="#012558"/>
</linearGradient>
<linearGradient id="paint10_linear_712_300" x1="5.42768" y1="20.8553" x2="5.42768" y2="19.2288" gradientUnits="userSpaceOnUse">
<stop offset="0.259609" stop-color="#023B8B"/>
<stop offset="0.70661" stop-color="#012558"/>
</linearGradient>
<clipPath id="clip0_712_300">
<rect width="42" height="42" fill="white" transform="translate(0 -0.00262451)"/>
</clipPath>
</defs>
</svg>
