<svg width="28" height="28" viewBox="0 0 28 28" fill="none" xmlns="http://www.w3.org/2000/svg">
<path d="M4.08334 7H16.9167" stroke="#131313" stroke-width="1.5" stroke-linecap="round" stroke-linejoin="round"/>
<path d="M22.1667 8.75C23.1332 8.75 23.9167 7.9665 23.9167 7C23.9167 6.0335 23.1332 5.25 22.1667 5.25C21.2002 5.25 20.4167 6.0335 20.4167 7C20.4167 7.9665 21.2002 8.75 22.1667 8.75Z" stroke="#131313" stroke-width="1.5" stroke-linecap="round" stroke-linejoin="round"/>
<path d="M23.9167 14H11.0833" stroke="#131313" stroke-width="1.5" stroke-linecap="round" stroke-linejoin="round"/>
<path d="M5.83334 15.75C6.79984 15.75 7.58334 14.9665 7.58334 14C7.58334 13.0335 6.79984 12.25 5.83334 12.25C4.86685 12.25 4.08334 13.0335 4.08334 14C4.08334 14.9665 4.86685 15.75 5.83334 15.75Z" stroke="#131313" stroke-width="1.5" stroke-linecap="round" stroke-linejoin="round"/>
<path d="M4.08334 21H16.9167" stroke="#131313" stroke-width="1.5" stroke-linecap="round" stroke-linejoin="round"/>
<path d="M22.1667 22.75C23.1332 22.75 23.9167 21.9665 23.9167 21C23.9167 20.0335 23.1332 19.25 22.1667 19.25C21.2002 19.25 20.4167 20.0335 20.4167 21C20.4167 21.9665 21.2002 22.75 22.1667 22.75Z" stroke="#131313" stroke-width="1.5" stroke-linecap="round" stroke-linejoin="round"/>
</svg>
