<svg width="42" height="42" viewBox="0 0 42 42" fill="none" xmlns="http://www.w3.org/2000/svg">
<path d="M18.8262 0.0984344C18.375 0.262497 17.891 0.656246 17.6613 1.05C17.4398 1.42734 17.4316 1.46836 17.407 2.91211L17.3742 4.39687L16.7918 4.54453C15.8566 4.78242 14.7328 5.22539 13.5926 5.79961L12.5344 6.33281L11.5746 5.38125C11.0168 4.83984 10.4836 4.38047 10.3031 4.30664C10.1309 4.23281 9.77812 4.17539 9.50742 4.17539C8.69531 4.16719 8.35078 4.38867 6.71836 5.97187C5.13516 7.51406 4.9875 7.72734 4.9875 8.53945C4.9875 9.27773 5.21719 9.67969 6.20156 10.6723L7.07109 11.5418L6.69375 12.2145C6.17695 13.125 5.73398 14.1504 5.37305 15.2742L5.06953 16.2258L3.74062 16.2586C2.21484 16.2914 1.87852 16.398 1.32891 17.0215C0.853125 17.5629 0.820312 17.768 0.820312 20.1059C0.820312 22.1238 0.828516 22.2059 1.01719 22.5996C1.12383 22.8211 1.33711 23.1246 1.48477 23.2723C1.97695 23.7398 2.27227 23.8137 3.78984 23.8547L5.15977 23.8875L5.2582 24.3141C5.5043 25.3641 6.23437 27.1523 6.85781 28.2434L7.0875 28.6289L6.12773 29.5969C5.06133 30.6797 4.90547 30.9586 4.90547 31.7215C4.89727 32.509 5.08594 32.7961 6.65273 34.4039C8.21133 36.0035 8.48203 36.1922 9.26133 36.1922C10.057 36.1922 10.4016 35.9789 11.6238 34.7566L12.7148 33.6738L12.2473 33.2063C11.9848 32.9438 11.7387 32.7305 11.6977 32.7305C11.6484 32.7305 11.148 33.1898 10.582 33.7559C9.72891 34.6008 9.49922 34.7813 9.30234 34.7813C9.10547 34.7813 8.85117 34.568 7.77656 33.4852C7.07109 32.7797 6.45586 32.1152 6.40664 32.0168C6.20977 31.6312 6.2918 31.5 7.50586 30.2695C8.9332 28.8258 8.90859 28.8914 8.26055 27.7758C7.46484 26.4141 6.85781 24.9457 6.60352 23.748C6.52969 23.3871 6.43125 22.9852 6.38203 22.8621C6.20977 22.4191 6.09492 22.3945 4.30664 22.3945C2.54297 22.3863 2.46094 22.3699 2.29687 21.9516C2.18203 21.6398 2.19023 18.3586 2.30508 18.1043C2.46094 17.768 2.69883 17.7188 4.26562 17.7188C5.06953 17.7188 5.82422 17.6859 5.93906 17.6367C6.20156 17.5383 6.27539 17.3906 6.52148 16.4391C6.88242 15.0527 7.53047 13.568 8.32617 12.2801C8.90859 11.3531 8.90859 11.3531 7.54687 9.9668C6.59531 8.99883 6.39844 8.76094 6.39844 8.55586C6.39844 8.35078 6.59531 8.12109 7.6207 7.1039C8.9332 5.79961 9.20391 5.57812 9.49922 5.57812C9.63867 5.57812 10.057 5.92266 10.9348 6.76758C12.3621 8.1375 12.3703 8.1457 13.1742 7.66172C14.6672 6.75937 16.4145 6.06211 17.973 5.74219C18.7687 5.58633 18.7687 5.57812 18.8016 3.54375C18.8262 1.81289 18.8262 1.78828 19.023 1.63242C19.1953 1.48476 19.3676 1.47656 21.1641 1.47656H23.1246L23.2887 1.68984C23.4527 1.89492 23.4609 2.01797 23.4609 3.52734C23.4609 5.54531 23.4117 5.45508 24.6668 5.7832C26.1844 6.17695 27.5871 6.77578 28.8996 7.58789C29.8266 8.17031 29.8184 8.17031 31.2129 6.80859C32.1562 5.88984 32.427 5.66015 32.6156 5.66015C32.7961 5.66015 33.0832 5.89805 34.1086 6.90703C35.3719 8.17031 35.6016 8.44922 35.6016 8.78555C35.6016 8.90859 35.216 9.35976 34.4121 10.1719C33.0094 11.5992 33.0176 11.5746 33.5836 12.5426C34.4531 14.0273 35.0602 15.5285 35.3637 16.9312C35.6098 18.0715 35.5523 18.0469 37.6113 18.0469C39.2602 18.0469 39.2848 18.0469 39.5145 18.2437L39.7441 18.4406L39.7687 20.2289C39.7852 21.2133 39.777 22.0992 39.7441 22.2059C39.7195 22.3043 39.6211 22.4684 39.5227 22.5586C39.3586 22.7145 39.2355 22.7227 37.8 22.7227C35.7246 22.7227 35.823 22.6652 35.4703 24.0187C35.1094 25.3969 34.4613 26.8898 33.6738 28.1613C33.0914 29.0883 33.0914 29.0883 34.4531 30.4746C35.4293 31.459 35.6016 31.6805 35.6016 31.8938C35.6016 32.107 35.4211 32.3203 34.3219 33.4031C33.6246 34.0922 32.9684 34.6992 32.8699 34.7566C32.4352 35.0027 32.2875 34.9207 31.1227 33.7805L30.0152 32.6977L29.5312 33.1816L29.0391 33.6738L30.1219 34.7648C30.7207 35.3637 31.3277 35.9297 31.4672 36.0199C32.0988 36.4137 33.1652 36.348 33.7805 35.8723C33.9363 35.7574 34.65 35.0848 35.3719 34.3793C36.8402 32.9602 37.0125 32.6977 37.0125 31.9102C37.0125 31.1637 36.7828 30.7617 35.7984 29.7691L34.9289 28.8996L35.3062 28.227C35.823 27.3164 36.266 26.291 36.6352 25.159L36.9387 24.1992H38.1035C39.6211 24.1992 40.0066 24.0926 40.5645 23.5184C40.8187 23.2559 41.0156 22.9605 41.0812 22.7555C41.1469 22.5258 41.1797 21.7465 41.1797 20.3355C41.1797 18.3176 41.1715 18.2355 40.9828 17.8418C40.7449 17.3332 40.4414 17.0461 39.9082 16.8082C39.5555 16.6441 39.3176 16.6195 38.1281 16.5867L36.7582 16.5457L36.6598 16.1273C36.4301 15.1348 35.7328 13.4285 35.1012 12.2801L34.8387 11.8043L35.7902 10.8445C36.8238 9.79453 36.9961 9.50742 37.0043 8.82656C37.0207 8.03086 36.873 7.76836 35.8805 6.69375C34.5926 5.29922 33.7805 4.52812 33.4359 4.38867C33.0176 4.2082 32.1973 4.23281 31.7461 4.43789C31.5164 4.53633 31.0488 4.92187 30.5156 5.45508L29.6543 6.3164L28.3828 5.67656C27.2262 5.09414 26.127 4.66758 25.2082 4.42969L24.8555 4.33945V2.96953C24.8555 1.70625 24.8391 1.56679 24.6586 1.18125C24.4371 0.697262 23.9203 0.229683 23.4691 0.0984344C23.059 -0.0246124 19.1707 -0.0246124 18.8262 0.0984344Z" fill="url(#paint0_linear_1024_1498)"/>
<path d="M20.0564 9.23672C19.1377 9.32695 17.9974 9.56485 17.2509 9.80273C13.3627 11.0824 10.5818 14.1996 9.7861 18.1945C9.56462 19.3184 9.58923 21.443 9.83532 22.5586C10.3521 24.9047 11.3283 26.5945 13.297 28.5469C14.8802 30.1137 15.3888 30.934 15.7908 32.509L15.9713 33.2391L15.5447 33.6656C14.9623 34.248 14.8146 34.691 14.8638 35.7902C14.8966 36.6926 14.9787 36.9387 15.4381 37.4555C15.5775 37.6113 15.8728 37.8328 16.0861 37.9477C16.4716 38.1363 16.4799 38.1527 16.3978 38.3906C16.2584 38.7844 16.3404 40.343 16.5127 40.7039C16.7424 41.1633 17.292 41.6555 17.7759 41.8359C18.1861 41.9918 18.4158 42 20.9998 42C23.592 42 23.8134 41.9918 24.2236 41.8359C24.7732 41.6309 25.2244 41.2043 25.4787 40.6547C25.6427 40.302 25.6756 40.1051 25.6756 39.3996C25.6756 38.9402 25.6427 38.4727 25.5935 38.3578C25.5197 38.1609 25.5443 38.1281 25.9134 37.9395C26.4056 37.6934 26.8568 37.1848 27.0209 36.6844C27.2013 36.1758 27.1931 35.0109 27.0127 34.4859C26.9224 34.2234 26.7338 33.9445 26.4549 33.6574L26.0283 33.2391L26.2088 32.509C26.6107 30.934 27.1193 30.1219 28.7025 28.5551C30.7205 26.5535 31.7213 24.7734 32.2134 22.3289C32.4103 21.3527 32.4103 19.1871 32.2134 18.1945C31.7623 15.9141 30.6466 13.8797 29.006 12.3211C26.947 10.377 24.3795 9.33516 21.3771 9.23672C20.8357 9.22031 20.2369 9.22031 20.0564 9.23672ZM23.2146 10.8609C26.8486 11.6895 29.4408 13.9863 30.499 17.3086C30.8271 18.3422 30.9338 19.1051 30.9338 20.3438C30.9338 21.5168 30.7861 22.4109 30.417 23.4445C29.8509 25.0523 29.1865 26.0531 27.7674 27.4395C27.1685 28.0219 26.4877 28.7602 26.258 29.0719C25.5607 29.9988 25.0357 31.1719 24.7486 32.4434L24.6338 32.9355L23.9693 32.9602L23.2966 32.9848V29.2113V25.4461L24.3056 25.4133C25.4787 25.3723 25.9381 25.2164 26.4795 24.6668C27.6689 23.4527 27.308 21.4922 25.7658 20.7375C25.4459 20.5734 25.2572 20.5488 24.5271 20.5488C23.7806 20.5488 23.6084 20.5734 23.2638 20.7457C22.3287 21.2051 21.9021 21.927 21.8365 23.1492L21.7955 23.9531H20.9916H20.1795V23.2313C20.1795 22.7883 20.1302 22.3617 20.0482 22.1238C19.8841 21.6316 19.3591 21.0492 18.8341 20.7703C18.4568 20.5734 18.3338 20.5488 17.5545 20.5488C16.808 20.5488 16.6357 20.5734 16.2912 20.7457C14.7654 21.5004 14.4127 23.4363 15.5693 24.634C15.7334 24.8063 16.0615 25.0441 16.283 25.1672C16.6439 25.3559 16.808 25.3805 17.7431 25.4133L18.7849 25.4461V29.2195V32.9848L18.0713 32.9602L17.3658 32.9355L17.2509 32.4434C16.9638 31.1719 16.4388 29.9988 15.7416 29.0719C15.5119 28.7602 14.831 28.0219 14.2322 27.4395C12.4931 25.7496 11.599 24.1582 11.197 22.05C11.033 21.1805 11.0248 19.4578 11.1888 18.5391C11.9107 14.4539 15.1099 11.4188 19.4002 10.7543C20.0974 10.6395 22.5666 10.7133 23.2146 10.8609ZM17.9728 21.9844C18.1287 22.0254 18.3666 22.1813 18.506 22.3207C18.7275 22.5504 18.7439 22.6242 18.7767 23.2641L18.8013 23.9531H17.9154C17.1689 23.9531 16.9802 23.9285 16.7834 23.7973C16.4799 23.5922 16.3322 23.3297 16.324 22.9852C16.3158 22.2059 17.0787 21.7383 17.9728 21.9844ZM25.2654 22.1074C25.7248 22.3453 25.897 23.0016 25.6263 23.4609C25.3802 23.8629 25.1259 23.9531 24.1662 23.9531H23.2966V23.3379C23.2966 22.4766 23.5345 22.0828 24.1252 21.9598C24.4287 21.8941 24.9947 21.968 25.2654 22.1074ZM21.8201 29.2031V32.9766H20.9998H20.1795V29.2031V25.4297H20.9998H21.8201V29.2031ZM25.4459 34.691C25.7084 34.9289 25.7166 34.9453 25.7166 35.6016C25.7166 36.2578 25.7084 36.2742 25.4459 36.5121L25.1834 36.75H20.9998H16.8162L16.5537 36.5121C16.2912 36.2742 16.283 36.2578 16.283 35.6016C16.283 34.9453 16.2912 34.9289 16.5537 34.691L16.8162 34.4531H20.9998H25.1834L25.4459 34.691ZM24.0021 38.5055C24.2646 38.768 24.281 38.8172 24.281 39.3258C24.281 39.9164 24.1416 40.2938 23.8791 40.4414C23.6576 40.5563 18.342 40.5563 18.1205 40.4414C17.858 40.2938 17.7185 39.9164 17.7185 39.3258C17.7185 38.8172 17.7349 38.768 17.9974 38.5055L18.2763 38.2266H20.9998H23.7232L24.0021 38.5055Z" fill="url(#paint1_linear_1024_1498)"/>
<defs>
<linearGradient id="paint0_linear_1024_1498" x1="21" y1="36.2771" x2="21" y2="0.00614929" gradientUnits="userSpaceOnUse">
<stop offset="0.259609" stop-color="#023B8B"/>
<stop offset="0.70661" stop-color="#012558"/>
</linearGradient>
<linearGradient id="paint1_linear_1024_1498" x1="20.9977" y1="42" x2="20.9977" y2="9.22441" gradientUnits="userSpaceOnUse">
<stop offset="0.259609" stop-color="#023B8B"/>
<stop offset="0.70661" stop-color="#012558"/>
</linearGradient>
</defs>
</svg>
