<svg width="42" height="42" viewBox="0 0 42 42" fill="none" xmlns="http://www.w3.org/2000/svg">
<g clip-path="url(#clip0_712_5866)">
<path d="M20.3808 0.0590935C20.2485 0.0794373 20.0553 0.221842 19.9434 0.364246C19.7399 0.618541 19.7399 0.760946 19.7399 6.60972V12.5907L19.9841 12.8755L20.2282 13.1603H22.3134C24.3884 13.1603 24.4088 13.1603 24.6631 12.9162L24.9275 12.6721V6.59954V0.526995L24.6631 0.282872C24.4088 0.0387497 24.3681 0.0387497 22.5067 0.0184059C21.459 0.0184059 20.5028 0.0285778 20.3808 0.0590935ZM23.1983 6.59954V11.3803H22.3337H21.4691V6.59954V1.81881H22.3337H23.1983V6.59954Z" fill="url(#paint0_linear_712_5866)"/>
<path d="M34.428 0.0590925C34.3059 0.0794353 34.1025 0.211669 33.9703 0.354074L33.7261 0.61854V6.60972V12.6009L34.0109 12.8755L34.2856 13.1603H36.381H38.4764L38.7205 12.8755L38.9646 12.5907V6.64023C38.9646 2.57152 38.9341 0.61854 38.8527 0.476135C38.6391 0.0794353 38.1712 -0.0121098 36.3505 -0.00193882C35.4146 0.00823307 34.5399 0.0387487 34.428 0.0590925ZM37.2354 6.59954V11.3803H36.3708H35.5062V6.59954V1.81881H36.3708H37.2354V6.59954Z" fill="url(#paint1_linear_712_5866)"/>
<path d="M6.4047 0.28292C3.56677 1.0458 1.37984 3.27342 0.677989 6.10118C0.444039 7.05732 0.464382 8.7967 0.718676 9.81387C1.44087 12.662 3.63798 14.8489 6.51659 15.5609C7.23878 15.744 7.57445 15.7745 8.65266 15.7338C10.0767 15.6728 11.0329 15.4185 12.1721 14.7879C15.8136 12.7535 17.2275 8.17622 15.3762 4.41266C14.3692 2.37831 12.4772 0.852539 10.2395 0.293092C9.18159 0.0286255 7.37102 0.0184536 6.4047 0.28292ZM7.61514 8.4C7.82875 8.77635 8.34751 8.83738 11.4296 8.83738C14.7557 8.83738 14.5116 8.75601 14.1556 9.76301C13.4436 11.8381 11.694 13.4554 9.68001 13.8826C6.59796 14.5336 3.59729 12.8349 2.53942 9.85456C2.19358 8.87807 2.19358 7.06749 2.53942 5.99946C3.17007 4.07699 4.87893 2.46985 6.82174 1.99178L7.38119 1.84937L7.43205 5.0128C7.47274 7.29127 7.52359 8.23725 7.61514 8.4ZM10.748 2.28676C12.4671 3.00896 14.0335 4.90091 14.3082 6.58942L14.3794 7.00646H11.8161H9.26297V4.42283V1.8392L9.81224 1.98161C10.1072 2.06298 10.5344 2.19521 10.748 2.28676Z" fill="url(#paint2_linear_712_5866)"/>
<path d="M27.0128 2.0731L26.7585 2.31723V7.49466V12.6721L27.023 12.9162C27.2772 13.1603 27.2976 13.1603 29.3726 13.1603H31.4578L31.702 12.8755L31.9461 12.5907V7.45397V2.31723L31.6918 2.0731C31.4477 1.81881 31.4375 1.81881 29.3523 1.81881C27.2671 1.81881 27.2569 1.81881 27.0128 2.0731ZM30.2169 7.46415V11.3803H29.3523H28.4877V7.46415V3.54801H29.3523H30.2169V7.46415Z" fill="url(#paint3_linear_712_5866)"/>
<path d="M18.6821 15.6117C18.3464 15.7134 18.0209 15.9372 17.6649 16.2932C17.0444 16.9137 16.841 17.4732 16.9122 18.3683C16.9529 18.9277 17.1055 19.2329 19.8722 24.0136C21.4793 26.8007 22.7915 29.0893 22.7915 29.1097C22.7915 29.1402 22.6084 29.2317 22.3948 29.3233C21.8557 29.5369 21.2962 30.0353 21.0419 30.5337C20.7775 31.0627 20.6961 31.9781 20.8588 32.4969C20.9301 32.7105 21.7031 34.1244 22.5779 35.64C25.0089 39.8714 25.1615 39.9833 28.9251 40.4105L30.2271 40.5631L30.8068 41.0615C31.8139 41.9058 31.9563 41.9973 32.3631 41.9973C32.9836 41.9973 33.36 41.3361 33.065 40.7767C32.9531 40.5733 31.3053 39.1492 30.9798 38.9763C30.8068 38.8848 29.7388 38.7322 27.5926 38.4881C27.0128 38.427 26.2295 38.0812 25.9142 37.7455C25.7718 37.5929 24.9377 36.2299 24.063 34.7245C22.6389 32.2731 22.4762 31.9374 22.527 31.6221C22.5575 31.4288 22.6796 31.1847 22.8017 31.0932C23.0763 30.8592 23.6256 30.8592 23.89 31.083C24.0121 31.1847 24.5003 31.9476 24.9784 32.7919C25.4565 33.6259 25.9651 34.4193 26.1075 34.5414C26.4533 34.8466 26.9009 34.8466 27.2162 34.5211C27.6536 34.0938 27.5722 33.7785 26.4838 31.9273C21.6421 23.6474 18.6211 18.3174 18.6211 18.0631C18.6211 17.5647 19.1398 17.1985 19.74 17.2799C20.0349 17.3104 20.3299 17.758 21.9269 20.5349C24.9886 25.8547 26.2702 28.0111 26.5245 28.2349C27.1247 28.7944 27.9689 28.2858 27.8774 27.4212C27.8672 27.3093 27.3078 26.2921 26.6364 25.1529C25.5786 23.3626 25.426 23.0371 25.487 22.7727C25.6192 22.1624 26.3923 21.8572 26.85 22.2336C26.9619 22.3353 27.6027 23.3321 28.2639 24.451C29.5049 26.5667 29.7388 26.8312 30.2677 26.699C30.6339 26.6074 30.9289 26.2412 30.9289 25.8751C30.9289 25.6614 30.6441 25.0715 30.0643 24.0746C29.5557 23.21 29.1997 22.4777 29.1997 22.3149C29.1997 21.9894 29.6981 21.4503 30.0033 21.4503C30.5017 21.4503 30.7051 21.6843 31.7935 23.5457C32.3936 24.5832 32.9836 25.4885 33.1057 25.5699C33.421 25.7937 33.8584 25.753 34.133 25.4682C34.5602 25.0511 34.4789 24.6951 33.6549 23.2711C32.8412 21.8775 32.7293 21.369 33.1057 20.9519C33.3294 20.7078 33.9398 20.6569 34.2042 20.8604C34.3873 21.0028 39.5444 29.8929 39.9716 30.8084C40.2157 31.317 40.2361 31.4797 40.2361 32.7207L40.2463 34.0633L40.7447 34.5719C41.3143 35.1517 41.7008 35.2331 42.1585 34.8669C42.484 34.6126 42.5247 34.0125 42.2297 33.6463C42.0772 33.453 42.0365 33.1682 41.9958 32.2324C41.9551 31.3271 41.8839 30.9101 41.6906 30.4015C41.4567 29.7708 36.2589 20.6569 35.7402 19.9449C35.3841 19.4668 34.8247 19.1312 34.1737 18.9989C33.36 18.8362 32.5971 19.0701 31.9563 19.6703C31.4884 20.1077 31.4884 20.1077 31.1832 19.9449C30.9798 19.833 30.6238 19.772 30.1152 19.772C29.454 19.772 29.2811 19.8127 28.803 20.0771C28.508 20.2399 28.1927 20.4738 28.1113 20.6061L27.9689 20.8299L27.6129 20.6162C26.7992 20.1382 25.426 20.2907 24.6834 20.9519L24.3478 21.2367L23.0051 18.9074C22.2626 17.6257 21.5709 16.4662 21.4692 16.3339C21.1742 15.9576 20.2994 15.5405 19.7094 15.4897C19.3941 15.4693 18.9771 15.5202 18.6821 15.6117Z" fill="url(#paint4_linear_712_5866)"/>
<path d="M0.739053 17.819C0.515274 18.053 0.444072 18.5107 0.576305 18.8565C0.749225 19.3041 0.850943 19.3143 7.5338 19.3143H13.8606L14.1556 19.0193C14.532 18.6327 14.5523 18.1852 14.1963 17.8393L13.9522 17.5851H7.45242H0.95266L0.739053 17.819Z" fill="url(#paint5_linear_712_5866)"/>
<path d="M0.769605 21.2978C0.403421 21.6538 0.413593 22.2742 0.779777 22.5591C1.04424 22.7727 1.12562 22.7727 7.50332 22.7727H13.9522L14.1963 22.5184C14.471 22.2437 14.532 21.7148 14.3184 21.4402C14.0234 21.0536 13.9217 21.0435 7.38126 21.0435H1.01373L0.769605 21.2978Z" fill="url(#paint6_linear_712_5866)"/>
<path d="M1.12559 24.5731C0.494937 24.8071 0.301674 25.5903 0.779747 26.0379L1.04421 26.282L4.56365 26.3125C6.50646 26.3328 8.24583 26.3125 8.42892 26.282C9.15112 26.1497 9.42576 25.2953 8.89682 24.7969L8.63236 24.5528L4.96035 24.5324C2.93616 24.5223 1.20696 24.5426 1.12559 24.5731Z" fill="url(#paint7_linear_712_5866)"/>
<path d="M11.633 24.5833C11.5008 24.6036 11.3075 24.7358 11.1956 24.8782C10.7481 25.4479 11.1346 26.2718 11.8568 26.2718C12.5383 26.2718 12.9553 25.4885 12.5688 24.9393C12.3959 24.6951 11.9585 24.5324 11.633 24.5833Z" fill="url(#paint8_linear_712_5866)"/>
<path d="M14.9592 24.6747C14.2879 25.0206 14.3184 25.8953 15.0203 26.1903C15.3153 26.3124 15.7221 26.3429 16.8614 26.3124C18.3363 26.2819 18.3363 26.2819 18.5804 25.9971C18.8957 25.6309 18.8957 25.2037 18.5804 24.8375L18.3363 24.5527L16.8207 24.5222C15.5289 24.4916 15.2644 24.5222 14.9592 24.6747Z" fill="url(#paint9_linear_712_5866)"/>
<path d="M0.779777 28.2756C0.413593 28.5604 0.403421 29.1809 0.769605 29.5369L1.01373 29.7912H9.56819C18.3769 29.7912 18.3871 29.7912 18.6923 29.3945C18.9059 29.1198 18.8449 28.5909 18.5702 28.3163L18.3261 28.062H9.69025C1.10527 28.062 1.05441 28.062 0.779777 28.2756Z" fill="url(#paint10_linear_712_5866)"/>
<path d="M0.973047 31.6424C0.454287 31.9171 0.342397 32.6393 0.749268 33.0258L0.983219 33.2496H9.65974H18.3261L18.5702 32.9953C18.9262 32.6495 18.9059 32.2019 18.5295 31.8154L18.2346 31.5204H9.70043C3.7296 31.5306 1.11545 31.5611 0.973047 31.6424Z" fill="url(#paint11_linear_712_5866)"/>
<path d="M0.739066 35.3145C0.454257 35.6095 0.444085 36.1893 0.708551 36.5148C0.891643 36.7487 0.973017 36.7589 2.39707 36.7894C3.22098 36.8098 4.00421 36.7996 4.14661 36.7691C4.78743 36.6063 5.02138 35.7417 4.55348 35.3044C4.3297 35.0907 4.21781 35.0806 2.64119 35.0806C1.0137 35.0806 0.952674 35.0907 0.739066 35.3145Z" fill="url(#paint12_linear_712_5866)"/>
<path d="M6.87263 35.3349C6.39456 35.8028 6.62851 36.6063 7.29984 36.7691C7.83895 36.9115 8.44925 36.3012 8.30685 35.7621C8.1441 35.0806 7.3507 34.8466 6.87263 35.3349Z" fill="url(#paint13_linear_712_5866)"/>
<path d="M10.4734 35.2127C10.0055 35.5688 9.96483 36.1079 10.3717 36.5147L10.6667 36.8097H12.2636H13.8606L14.1556 36.5147C14.532 36.1282 14.5523 35.6806 14.1963 35.3348C13.9522 35.0805 13.9216 35.0805 12.2942 35.0805C11.1549 35.0907 10.5853 35.1212 10.4734 35.2127Z" fill="url(#paint14_linear_712_5866)"/>
<path d="M16.5054 35.3043C16.1901 35.6501 16.1494 35.996 16.3732 36.3723C16.7495 36.9725 17.5938 36.9013 17.8582 36.2605C18.1125 35.6603 17.726 35.0805 17.0954 35.0805C16.8411 35.0805 16.658 35.1517 16.5054 35.3043Z" fill="url(#paint15_linear_712_5866)"/>
<path d="M0.952715 38.6406C0.444127 38.8441 0.342409 39.7087 0.779795 40.0545C1.04426 40.2681 1.11546 40.2681 8.36794 40.2681H15.6814L15.9256 40.0138C16.1799 39.7697 16.2511 39.3527 16.1188 38.9966C15.9357 38.5389 15.9052 38.5389 8.32725 38.5491C4.39078 38.5491 1.07478 38.5898 0.952715 38.6406Z" fill="url(#paint16_linear_712_5866)"/>
</g>
<defs>
<linearGradient id="paint0_linear_712_5866" x1="22.3337" y1="13.1603" x2="22.3337" y2="0.0184059" gradientUnits="userSpaceOnUse">
<stop offset="0.259609" stop-color="#023B8B"/>
<stop offset="0.70661" stop-color="#012558"/>
</linearGradient>
<linearGradient id="paint1_linear_712_5866" x1="36.3454" y1="13.1603" x2="36.3454" y2="-0.00267696" gradientUnits="userSpaceOnUse">
<stop offset="0.259609" stop-color="#023B8B"/>
<stop offset="0.70661" stop-color="#012558"/>
</linearGradient>
<linearGradient id="paint2_linear_712_5866" x1="8.35167" y1="15.7497" x2="8.35167" y2="0.0895834" gradientUnits="userSpaceOnUse">
<stop offset="0.259609" stop-color="#023B8B"/>
<stop offset="0.70661" stop-color="#012558"/>
</linearGradient>
<linearGradient id="paint3_linear_712_5866" x1="29.3523" y1="13.1603" x2="29.3523" y2="1.81881" gradientUnits="userSpaceOnUse">
<stop offset="0.259609" stop-color="#023B8B"/>
<stop offset="0.70661" stop-color="#012558"/>
</linearGradient>
<linearGradient id="paint4_linear_712_5866" x1="29.6637" y1="41.9973" x2="29.6637" y2="15.4852" gradientUnits="userSpaceOnUse">
<stop offset="0.259609" stop-color="#023B8B"/>
<stop offset="0.70661" stop-color="#012558"/>
</linearGradient>
<linearGradient id="paint5_linear_712_5866" x1="7.48053" y1="19.3143" x2="7.48053" y2="17.5851" gradientUnits="userSpaceOnUse">
<stop offset="0.259609" stop-color="#023B8B"/>
<stop offset="0.70661" stop-color="#012558"/>
</linearGradient>
<linearGradient id="paint6_linear_712_5866" x1="7.47343" y1="22.7727" x2="7.47343" y2="21.0435" gradientUnits="userSpaceOnUse">
<stop offset="0.259609" stop-color="#023B8B"/>
<stop offset="0.70661" stop-color="#012558"/>
</linearGradient>
<linearGradient id="paint7_linear_712_5866" x1="4.8425" y1="26.3207" x2="4.8425" y2="24.5298" gradientUnits="userSpaceOnUse">
<stop offset="0.259609" stop-color="#023B8B"/>
<stop offset="0.70661" stop-color="#012558"/>
</linearGradient>
<linearGradient id="paint8_linear_712_5866" x1="11.8607" y1="26.2718" x2="11.8607" y2="24.5739" gradientUnits="userSpaceOnUse">
<stop offset="0.259609" stop-color="#023B8B"/>
<stop offset="0.70661" stop-color="#012558"/>
</linearGradient>
<linearGradient id="paint9_linear_712_5866" x1="16.6456" y1="26.3234" x2="16.6456" y2="24.5115" gradientUnits="userSpaceOnUse">
<stop offset="0.259609" stop-color="#023B8B"/>
<stop offset="0.70661" stop-color="#012558"/>
</linearGradient>
<linearGradient id="paint10_linear_712_5866" x1="9.66036" y1="29.7912" x2="9.66036" y2="28.062" gradientUnits="userSpaceOnUse">
<stop offset="0.259609" stop-color="#023B8B"/>
<stop offset="0.70661" stop-color="#012558"/>
</linearGradient>
<linearGradient id="paint11_linear_712_5866" x1="9.66385" y1="33.2496" x2="9.66385" y2="31.5204" gradientUnits="userSpaceOnUse">
<stop offset="0.259609" stop-color="#023B8B"/>
<stop offset="0.70661" stop-color="#012558"/>
</linearGradient>
<linearGradient id="paint12_linear_712_5866" x1="2.65862" y1="36.8" x2="2.65862" y2="35.0806" gradientUnits="userSpaceOnUse">
<stop offset="0.259609" stop-color="#023B8B"/>
<stop offset="0.70661" stop-color="#012558"/>
</linearGradient>
<linearGradient id="paint13_linear_712_5866" x1="7.47407" y1="36.79" x2="7.47407" y2="35.0755" gradientUnits="userSpaceOnUse">
<stop offset="0.259609" stop-color="#023B8B"/>
<stop offset="0.70661" stop-color="#012558"/>
</linearGradient>
<linearGradient id="paint14_linear_712_5866" x1="12.2717" y1="36.8097" x2="12.2717" y2="35.0805" gradientUnits="userSpaceOnUse">
<stop offset="0.259609" stop-color="#023B8B"/>
<stop offset="0.70661" stop-color="#012558"/>
</linearGradient>
<linearGradient id="paint15_linear_712_5866" x1="17.0846" y1="36.7843" x2="17.0846" y2="35.0805" gradientUnits="userSpaceOnUse">
<stop offset="0.259609" stop-color="#023B8B"/>
<stop offset="0.70661" stop-color="#012558"/>
</linearGradient>
<linearGradient id="paint16_linear_712_5866" x1="8.34405" y1="40.2681" x2="8.34405" y2="38.5466" gradientUnits="userSpaceOnUse">
<stop offset="0.259609" stop-color="#023B8B"/>
<stop offset="0.70661" stop-color="#012558"/>
</linearGradient>
<clipPath id="clip0_712_5866">
<rect width="42" height="42" fill="white" transform="translate(0 -0.00268555)"/>
</clipPath>
</defs>
</svg>
