<svg width="42" height="42" viewBox="0 0 42 42" fill="none" xmlns="http://www.w3.org/2000/svg">
<path d="M17.5546 4.10155C13.1249 4.64295 8.9823 6.866 6.21784 10.1719C2.71511 14.3472 1.35339 19.6875 2.4198 24.9867C2.90378 27.3984 3.92097 29.6789 5.46316 31.8363C6.04558 32.6566 7.6698 34.3629 8.52292 35.0437C10.4753 36.6269 12.8542 37.8 15.3315 38.4316C17.7514 39.0387 20.5897 39.0961 23.0507 38.5875C25.9792 37.9805 28.9487 36.5039 31.0159 34.6336C31.1882 34.4859 31.5655 34.2808 31.8772 34.1742C33.887 33.4933 35.503 32.4515 36.9139 30.9504C38.4397 29.318 39.4651 27.2918 39.9163 24.9785C40.1214 23.9449 40.1214 21.7301 39.9163 20.7129C39.621 19.2363 38.9155 17.4234 38.3003 16.5703C38.0788 16.2668 38.0214 16.234 37.7589 16.2586C37.4964 16.2832 37.4061 16.357 37.0206 16.8574C36.43 17.6285 35.7737 18.2847 33.8788 20.0156C31.6147 22.0746 30.4745 23.2887 29.8675 24.2812L29.6952 24.5683V18.4324V12.2965L29.4901 12.0996L29.2932 11.8945H27.4803H25.6675L25.4706 12.0996L25.2655 12.2965V18.1699C25.2655 21.3937 25.2491 24.0351 25.2327 24.0351C25.2081 24.0351 24.8061 23.789 24.3303 23.4937L23.4608 22.9523V18.941C23.4608 16.0699 23.4362 14.8805 23.3624 14.7246C23.2147 14.3965 22.8538 14.339 21.0163 14.3719C19.3757 14.3965 19.3428 14.3965 19.187 14.5933C19.0393 14.7738 19.0311 14.9707 19.0311 18.7933V22.8047L18.8507 22.8457C18.5307 22.9113 17.2921 23.1328 17.2182 23.1328C17.1772 23.1328 17.1444 21.8121 17.1444 20.0976C17.1444 17.1691 17.1362 17.0543 16.9803 16.8984C16.8245 16.7426 16.7096 16.7344 15.0444 16.7344C13.4284 16.7344 13.0921 16.7672 12.8788 16.9558C12.8542 16.9805 12.8214 17.6613 12.7967 18.4652L12.7557 19.9418L12.4194 19.6547C11.8452 19.1625 11.4268 18.9902 10.828 18.9902C9.90925 18.9984 9.11355 19.5152 8.69519 20.3765C8.44089 20.9015 8.44089 21.648 8.68698 22.1402C8.94128 22.6324 16.7917 31.582 17.3331 31.984C17.8417 32.3695 18.3749 32.6238 18.826 32.6894C19.0311 32.7222 20.0811 32.6156 21.5823 32.4105C24.2073 32.0496 25.126 32.0086 28.2596 32.1316L29.6624 32.1808L30.0479 32.9027L30.4335 33.6246L29.9987 34.0019C29.3425 34.5844 27.7264 35.6344 26.7092 36.1265C20.4503 39.1945 12.9198 37.9394 7.99792 33.0176C3.92097 28.9406 2.29675 23.0262 3.72409 17.4562C4.94636 12.682 8.06355 8.88397 12.5096 6.75936C16.9557 4.63475 21.9596 4.61834 26.4796 6.71834C27.4147 7.15311 27.587 7.17772 27.8495 6.92342C28.0217 6.75116 28.0053 6.29178 27.8249 6.11951C27.6116 5.93084 26.0366 5.23358 25.1014 4.92186C24.2319 4.63475 23.2557 4.38866 22.2714 4.21639C21.4675 4.06873 18.4077 4.00311 17.5546 4.10155ZM28.5467 19.1625V25.282L28.1202 25.2246C27.8823 25.1918 27.3983 25.0769 27.0538 24.9621L26.4139 24.7652V18.9082V13.043H27.4803H28.5467V19.1625ZM22.296 18.9574L22.3124 22.3699L21.5167 22.4273C21.0737 22.4519 20.5897 22.5012 20.4503 22.5258L20.1796 22.575V19.0394V15.4957L21.2296 15.5203L22.2714 15.5449L22.296 18.9574ZM15.996 20.2289C15.996 22.0992 15.9714 22.5586 15.8975 22.5012C15.8401 22.4601 15.3725 22.0828 14.8721 21.6644L13.9452 20.9097V19.3922V17.8828H14.9706H15.996V20.2289ZM37.9475 18.3012C38.6202 19.6383 39.0139 21.6316 38.9401 23.2969C38.8007 26.1433 37.6604 28.6617 35.6178 30.614C34.9616 31.2457 33.5014 32.3203 33.2964 32.3203C33.2553 32.3203 33.3866 32.107 33.5917 31.8445C34.5842 30.532 35.9296 27.9234 35.9296 27.3082C35.9296 26.8324 35.3964 26.5781 35.0436 26.8816C34.9534 26.9637 34.7401 27.3574 34.576 27.7676C33.9772 29.2441 33.0667 30.7289 31.9346 32.0824L31.3112 32.8289L31.0405 32.3531C30.171 30.8191 29.728 28.8996 29.9413 27.5379C30.2776 25.2984 31.2292 23.9777 34.8714 20.6719C35.7573 19.868 36.7499 18.9082 37.0862 18.5472C37.4225 18.1863 37.7014 17.8828 37.7096 17.8828C37.726 17.8828 37.8245 18.0715 37.9475 18.3012ZM11.4432 20.3601C11.5827 20.4586 12.5835 21.2707 13.6745 22.173L15.6514 23.8055L15.4546 24.0926C15.2249 24.4371 15.1839 25.0523 15.3725 25.4133C15.6022 25.8562 16.1764 26.25 16.8983 26.4797C17.0542 26.5289 18.1616 26.7258 19.351 26.9144C21.1885 27.1933 21.5495 27.2344 21.7135 27.1441C22.0663 26.9555 22.0663 26.3156 21.7135 26.168C21.6151 26.1187 20.6882 25.9547 19.6546 25.7988C17.3413 25.4379 17.0788 25.3805 16.7507 25.1836C16.3897 24.9621 16.3405 24.798 16.5784 24.5683C16.7507 24.4043 17.1116 24.3222 19.0885 23.9613C20.36 23.7316 21.5413 23.543 21.7135 23.543C22.2057 23.5512 22.5257 23.6988 24.0022 24.6258C24.7651 25.1015 25.5772 25.5855 25.7987 25.6922C26.5944 26.0941 27.8495 26.414 28.5714 26.414C28.8667 26.414 28.8913 26.4305 28.8421 26.5945C28.5714 27.6035 28.6206 29.1211 28.9651 30.3515C29.0471 30.6715 29.121 30.9504 29.121 30.975C29.121 30.9996 27.9643 30.9996 26.5616 30.9668L23.994 30.9176L21.5741 31.2457C19.1706 31.582 18.8835 31.5902 18.4323 31.3605C17.9893 31.139 17.5053 30.614 13.8303 26.414C9.2448 21.1722 9.67956 21.7137 9.67956 21.3199C9.67956 20.3519 10.6803 19.8105 11.4432 20.3601Z" fill="url(#paint0_linear_1024_1529)"/>
<path d="M21.8035 8.75273C21.5657 9.00703 21.6149 9.40078 21.902 9.60586L22.1481 9.79453L18.309 11.7387C15.7414 13.043 14.4289 13.7484 14.3223 13.8961C14.109 14.175 14.2157 14.5113 14.5602 14.6754C14.8063 14.7902 14.8637 14.7656 18.7192 12.8133C20.8684 11.7223 22.6403 10.8281 22.6567 10.8281C22.6731 10.8281 22.6813 10.9594 22.6813 11.1234C22.6813 11.3531 22.7305 11.4598 22.9028 11.591C23.2719 11.8699 23.5016 11.7223 24.1004 10.8281C24.9453 9.55664 25.0438 9.36797 24.9864 9.14648C24.8961 8.77734 24.6664 8.71172 23.2555 8.64609C22.0168 8.59687 21.9348 8.60508 21.8035 8.75273Z" fill="url(#paint1_linear_1024_1529)"/>
<defs>
<linearGradient id="paint0_linear_1024_1529" x1="21.0678" y1="38.9317" x2="21.0678" y2="4.05474" gradientUnits="userSpaceOnUse">
<stop offset="0.259609" stop-color="#023B8B"/>
<stop offset="0.70661" stop-color="#012558"/>
</linearGradient>
<linearGradient id="paint1_linear_1024_1529" x1="19.6061" y1="14.7135" x2="19.6061" y2="8.61902" gradientUnits="userSpaceOnUse">
<stop offset="0.259609" stop-color="#023B8B"/>
<stop offset="0.70661" stop-color="#012558"/>
</linearGradient>
</defs>
</svg>
