<svg width="36" height="36" viewBox="0 0 36 36" fill="none" xmlns="http://www.w3.org/2000/svg">
<path d="M17.6625 0.161683C17.5078 0.323401 17.5078 0.365589 17.5078 2.39762V4.47887L17.6695 4.62653C17.8805 4.8234 18.1477 4.8234 18.3375 4.6195C18.4922 4.45778 18.4922 4.41559 18.4922 2.38356V0.302308L18.3305 0.154652C18.1195 -0.0422235 17.8523 -0.0422235 17.6625 0.161683Z" fill="#F1F4FC"/>
<path d="M9.7875 2.27109C9.70312 2.3625 9.63281 2.50313 9.63281 2.58047C9.63281 2.77031 11.5453 6.11016 11.7492 6.27188C11.8336 6.34219 11.9602 6.39844 12.0375 6.39844C12.2133 6.39844 12.5156 6.08906 12.5156 5.90625C12.5156 5.75156 10.6945 2.53125 10.4555 2.26406C10.2727 2.06016 9.97734 2.06719 9.7875 2.27109Z" fill="#F1F4FC"/>
<path d="M25.5445 2.26406C25.3055 2.53125 23.4844 5.75156 23.4844 5.90625C23.4844 6.08906 23.7867 6.39844 23.9625 6.39844C24.0398 6.39844 24.1664 6.34219 24.2508 6.27188C24.4477 6.11719 26.3672 2.77031 26.3672 2.59453C26.3672 2.40469 26.0578 2.10938 25.8539 2.10938C25.7625 2.10938 25.6219 2.17969 25.5445 2.26406Z" fill="#F1F4FC"/>
<path d="M17.2266 5.9906C15.8766 6.07497 14.6742 6.40544 13.4016 7.04529C10.6102 8.43044 8.58516 11.0742 7.90313 14.2031C7.79766 14.6812 7.76953 15.1031 7.76953 16.3125C7.76953 18.0562 7.88203 18.7523 8.37422 20.0039C8.85938 21.2554 9.42188 22.0992 11.2922 24.3984C12.368 25.7203 13.1766 26.9156 13.6828 27.9492L14.0625 28.7156V30.5859C14.0625 31.6125 14.0977 32.6672 14.1328 32.9414C14.4 34.7625 16.2492 36.1195 18.2742 35.9789C19.9055 35.8593 21.2203 34.9172 21.7336 33.4968C21.8742 33.1172 21.8883 32.9133 21.9164 30.9023L21.9516 28.7226L22.2469 28.0898C22.5984 27.3375 23.1891 26.3812 23.7727 25.5867L24.2016 25.0101L24.4547 25.2633L24.7078 25.5164L24.2789 25.9664C23.6531 26.6203 23.5406 27.1617 23.8922 27.8508C24.1523 28.3711 24.5391 28.6312 25.1016 28.6734C25.6781 28.7156 26.0367 28.5679 26.5078 28.0898L26.8875 27.7031L28.6523 29.4539C30.4242 31.2187 30.6984 31.4367 31.268 31.5351C32.3156 31.7039 33.3914 30.6281 33.2227 29.5804C33.1242 29.0109 32.9063 28.7367 31.1414 26.9648L29.3906 25.2L29.7773 24.8203C30.2555 24.3492 30.4031 23.9906 30.3609 23.414C30.3188 22.8515 30.0586 22.4648 29.5383 22.1976C28.8492 21.8531 28.3078 21.9656 27.6539 22.5914L27.2039 23.0203L26.8102 22.6265L26.4164 22.2328L26.8172 21.6C27.5695 20.4187 28.0125 19.1531 28.1953 17.6976C28.3148 16.7484 28.2516 14.9273 28.0688 14.0976C27.232 10.357 24.4195 7.35466 20.7984 6.33513C19.6523 6.01872 18.5203 5.90622 17.2266 5.9906ZM18.9141 6.99607C20.8969 7.12263 23.0344 8.1281 24.5813 9.67497C25.9383 11.032 26.8734 12.839 27.1828 14.7304C27.3516 15.7781 27.2883 17.6414 27.0422 18.5976C26.8383 19.4343 26.557 20.1304 26.1703 20.7914C25.6922 21.6 25.7555 21.5718 25.3336 21.15L24.968 20.7773L25.3125 20.0742C27.5203 15.6093 25.0875 10.2515 20.2641 8.94372C19.6383 8.77497 19.4695 8.76091 18.2461 8.76091C17.1 8.76091 16.8328 8.782 16.3688 8.90857C13.4367 9.72419 11.4117 11.7492 10.6031 14.6812C10.4695 15.1453 10.4484 15.4125 10.4484 16.5586C10.4484 17.782 10.4625 17.9508 10.6313 18.5765C11.2359 20.7914 12.7688 22.6547 14.8008 23.632C17.0719 24.7289 19.5398 24.7218 21.7617 23.625L22.4648 23.2734L22.9852 23.7937L23.4984 24.307L22.9711 25.0172C22.3523 25.8539 21.8672 26.6414 21.4031 27.5765L21.0586 28.2656H18H14.9414L14.5969 27.5765C13.8938 26.1633 13.3031 25.2984 11.5734 23.175C9.87891 21.0937 9.37969 20.2148 8.95078 18.5695C8.71172 17.6554 8.64844 15.7781 8.81719 14.7304C9.42891 11.0109 12.2203 8.04372 15.9188 7.16482C16.5234 7.02419 17.768 6.89763 18.1406 6.93279C18.2391 6.94685 18.5836 6.97497 18.9141 6.99607ZM19.5961 9.8156C20.9039 10.0828 22.0148 10.6593 22.9781 11.5664C25.3617 13.8093 25.8398 17.332 24.1383 20.1586C23.9695 20.4398 23.8359 20.7492 23.8359 20.8617C23.8359 21.0234 24.068 21.2906 25.1719 22.3945L26.5078 23.7304L25.9664 24.2718L25.418 24.8203L24.082 23.4843C22.9781 22.3875 22.7109 22.1484 22.5492 22.1484C22.4367 22.1484 22.1203 22.282 21.8461 22.4508C20.482 23.2734 18.9703 23.6039 17.4586 23.414C15.7922 23.2101 14.3719 22.4859 13.2328 21.2625C12.3047 20.2711 11.6648 18.9914 11.4609 17.7047C11.3344 16.9242 11.4047 15.4406 11.6016 14.7656C12.3328 12.2343 14.3297 10.357 16.875 9.8156C17.5078 9.67497 18.9352 9.67497 19.5961 9.8156ZM29.2078 23.1398C29.3484 23.2453 29.3906 23.3437 29.3906 23.5406C29.3906 23.7867 29.2852 23.9062 27.443 25.7484C25.5938 27.5976 25.4742 27.7031 25.2281 27.7031C25.0312 27.7031 24.9328 27.6609 24.8273 27.5203C24.6516 27.3023 24.6445 27.1336 24.7781 26.8734C24.8906 26.6625 28.3641 23.189 28.582 23.0695C28.8 22.957 29.0039 22.9781 29.2078 23.1398ZM30.4242 27.6468C31.3594 28.589 32.1609 29.4468 32.2031 29.5593C32.2453 29.6718 32.2594 29.8547 32.2383 29.9531C32.1891 30.1711 31.8938 30.4804 31.6547 30.5508C31.3031 30.6562 31.0641 30.4664 29.3203 28.7226L27.5977 27L28.125 26.4726C28.4133 26.1843 28.6664 25.9453 28.6875 25.9453C28.7086 25.9453 29.4891 26.7117 30.4242 27.6468ZM20.9391 29.7211L20.918 30.1992L17.9859 30.2203L15.0469 30.2343V29.7422V29.25H18H20.9602L20.9391 29.7211ZM20.9531 31.7812V32.3437H18H15.0469V31.7812V31.2187H18H20.9531V31.7812ZM20.7141 33.4476C20.5313 33.9187 19.8492 34.5093 19.1813 34.7906C18.7945 34.9523 18.6398 34.9734 18 34.9734C17.1422 34.9734 16.6922 34.8328 16.0945 34.3828C15.7641 34.1367 15.2578 33.532 15.2578 33.3843C15.2578 33.3562 16.4953 33.3281 18.007 33.3281C20.5805 33.3281 20.7563 33.3351 20.7141 33.4476Z" fill="#F1F4FC"/>
<path d="M21.3254 11.5734C21.2762 11.5945 20.8121 12.0727 20.2777 12.6422C19.7504 13.2117 19.2934 13.6898 19.2582 13.6969C19.2231 13.7109 18.759 13.4648 18.2176 13.1555C17.6832 12.8391 17.191 12.5859 17.1207 12.5859C17.0434 12.5859 16.4949 13.0781 15.8551 13.7109L14.7231 14.8359H14.1535C13.6121 14.8359 13.5699 14.85 13.4293 15.0258C13.2535 15.2508 13.2887 15.5109 13.5137 15.6938C13.6262 15.7992 13.7949 15.8203 14.3996 15.8203H15.1449L16.1996 14.7727L17.2613 13.725L18.1402 14.2523C19.1598 14.857 19.2723 14.9133 19.4621 14.857C19.5395 14.8359 20.1442 14.2383 20.8051 13.5211C22.0988 12.1289 22.1551 12.0234 21.8317 11.707C21.6699 11.5383 21.5152 11.5031 21.3254 11.5734Z" fill="#F1F4FC"/>
<path d="M21.164 14.3438C21.0304 14.4773 21.0234 14.5758 21.0234 17.0508V19.6172H20.4257H19.828V18.1055C19.828 16.5867 19.828 16.5867 19.6523 16.418C19.5609 16.3195 19.4202 16.2422 19.3359 16.2422C19.2515 16.2422 19.1109 16.3195 19.0194 16.418C18.8437 16.5867 18.8437 16.5867 18.8437 18.1055V19.6172H18.246H17.6484V17.5078C17.6484 15.4898 17.6413 15.3914 17.5077 15.2578C17.4304 15.1805 17.2757 15.1172 17.1562 15.1172C17.0366 15.1172 16.8819 15.1805 16.8046 15.2578C16.671 15.3914 16.664 15.4898 16.664 17.5078V19.6172H16.0663H15.4687V18.2461C15.4687 16.875 15.4687 16.868 15.2929 16.6992C15.2015 16.6008 15.0538 16.5234 14.9765 16.5234C14.8991 16.5234 14.7515 16.6008 14.6601 16.6992C14.4843 16.868 14.4843 16.875 14.4843 18.2461V19.6172H14.1327C13.8726 19.6172 13.746 19.6523 13.6405 19.7578C13.4507 19.9477 13.4577 20.2781 13.6546 20.4609C13.8023 20.6016 13.8796 20.6016 18.246 20.6016C22.6124 20.6016 22.6898 20.6016 22.8374 20.4609C23.0343 20.2781 23.0413 19.9477 22.8515 19.7578C22.746 19.6523 22.6194 19.6172 22.3593 19.6172H22.0077V17.0508C22.0077 14.5758 22.0007 14.4773 21.8671 14.3438C21.7898 14.2664 21.6351 14.2031 21.5155 14.2031C21.396 14.2031 21.2413 14.2664 21.164 14.3438Z" fill="#F1F4FC"/>
<path d="M4.02179 8.03672C3.82491 8.24766 3.82491 8.45156 4.02882 8.67656C4.23273 8.90156 7.47413 10.7578 7.66398 10.7578C7.84679 10.7578 8.15616 10.4555 8.15616 10.2797C8.15616 10.2023 8.09991 10.0758 8.03663 9.99141C7.86085 9.78047 4.52804 7.875 4.33116 7.875C4.24679 7.875 4.10616 7.94531 4.02179 8.03672Z" fill="#F1F4FC"/>
<path d="M29.7773 8.86641C28.8492 9.40078 28.0336 9.91406 27.9703 9.99141C27.9 10.0758 27.8438 10.2023 27.8438 10.2797C27.8438 10.4555 28.1531 10.7578 28.3359 10.7578C28.5258 10.7578 31.7672 8.90156 31.9781 8.67656C32.168 8.45859 32.175 8.29688 31.9852 8.05781C31.8937 7.93828 31.7742 7.875 31.6547 7.88203C31.5422 7.88203 30.7406 8.30391 29.7773 8.86641Z" fill="#F1F4FC"/>
<path d="M1.90532 15.9328C1.71548 16.1789 1.71548 16.3898 1.91938 16.5797C2.0811 16.7344 2.12329 16.7344 4.15532 16.7344H6.23657L6.38423 16.5727C6.5811 16.3617 6.5811 16.0945 6.3772 15.9047C6.21548 15.75 6.17329 15.75 4.13423 15.75H2.04595L1.90532 15.9328Z" fill="#F1F4FC"/>
<path d="M29.6155 15.9117C29.4187 16.1227 29.4187 16.3898 29.6226 16.5797C29.7843 16.7344 29.8265 16.7344 31.8655 16.7344H33.9538L34.0944 16.5516C34.2843 16.3055 34.2773 16.1367 34.0663 15.9258L33.8976 15.75H31.8304H29.7632L29.6155 15.9117Z" fill="#F1F4FC"/>
</svg>
