<svg width="36" height="36" viewBox="0 0 36 36" fill="none" xmlns="http://www.w3.org/2000/svg">
<g clip-path="url(#clip0_1024_1053)">
<path d="M16.3123 0.604687C14.0201 0.878906 12.185 1.41328 10.2725 2.35547C6.76387 4.09922 4.04277 6.83437 2.31309 10.3711C1.50449 12.0305 1.04746 13.4719 0.724023 15.3773C0.541211 16.4672 0.541211 19.5328 0.724023 20.6227C1.04746 22.5281 1.50449 23.9695 2.31309 25.6289C3.22012 27.4711 4.32402 29.018 5.75137 30.4242C7.94512 32.5969 10.849 34.2211 13.7951 34.9453C15.4193 35.3461 15.9748 35.4023 18.035 35.4023C19.7014 35.4023 20.0459 35.3812 20.8334 35.2406C22.6686 34.9102 24.124 34.432 25.7201 33.6445C30.3045 31.3734 33.6443 27.2602 34.91 22.3242C35.3318 20.6648 35.4021 20.0672 35.4021 18C35.4021 15.975 35.3389 15.4125 34.9451 13.7953C34.0662 10.1953 31.8514 6.7289 28.9545 4.40859C27.9139 3.57891 26.9857 2.98828 25.699 2.35547C24.0115 1.51875 22.7389 1.1039 20.8334 0.766403C20.1654 0.646873 19.6592 0.611717 18.2811 0.597656C17.3318 0.583591 16.4459 0.590622 16.3123 0.604687ZM17.2967 6.44765V10.9195L16.2912 10.8703C15.1732 10.8211 13.7178 10.6664 12.7615 10.5117C11.5732 10.3078 10.6732 10.0969 10.6381 10.0125C10.5959 9.89297 11.1092 7.94531 11.4607 6.89062C11.8896 5.61797 12.192 4.86562 12.7545 3.6914L13.2607 2.63672L13.999 2.44687C14.9623 2.20078 16.2209 1.99687 16.9311 1.97578L17.2967 1.96875V6.44765ZM20.0881 2.07422C20.5451 2.1375 21.3256 2.27812 21.8178 2.39766L22.7178 2.61562L23.1256 3.43828C23.6318 4.44375 24.1451 5.70937 24.56 6.96797C24.8975 7.99453 25.4248 9.96328 25.3686 10.0195C25.3053 10.0828 22.8654 10.5469 22.0428 10.6453C21.0725 10.7719 19.5396 10.8984 19.0475 10.8984H18.7029V6.43359V1.96875H18.9771C19.1318 1.96875 19.6311 2.01797 20.0881 2.07422ZM10.8982 4.40859C10.4061 5.58984 9.73106 7.65 9.44981 8.82422C9.34434 9.28828 9.2459 9.675 9.23887 9.68906C9.21777 9.73125 7.53027 9.14062 6.82012 8.83828C5.73027 8.37422 5.4209 8.22656 5.37871 8.15625C5.35762 8.12109 5.54043 7.86094 5.77949 7.57969C6.76387 6.42656 8.00137 5.34375 9.27402 4.51406C9.84356 4.14844 11.2639 3.36094 11.299 3.39609C11.3061 3.41015 11.1303 3.86016 10.8982 4.40859ZM26.2404 4.21172C27.5131 4.96406 28.9545 6.15234 29.9389 7.26328C30.2764 7.64297 30.5646 7.9875 30.5717 8.02266C30.6068 8.11406 29.1865 8.775 28.0545 9.19687C26.6061 9.72422 26.7818 9.77344 26.5498 8.80312C26.1701 7.26328 25.5654 5.5125 24.7006 3.45937C24.6514 3.34687 25.3967 3.7125 26.2404 4.21172ZM32.4139 10.9336C32.9553 12.0234 33.3561 13.1414 33.6303 14.3086C33.8201 15.1102 34.0311 16.5305 34.0311 17.0227V17.2969H32.7303H31.4295L31.3873 17.1C31.2607 16.5305 31.1904 16.3055 31.0006 15.9187C30.3959 14.6461 29.1373 13.5914 27.8436 13.282C27.6326 13.2328 27.4357 13.1695 27.4006 13.1484C27.3514 13.1062 27.0701 11.3695 27.0701 11.1094C27.0701 11.032 27.3162 10.9195 27.8998 10.7297C28.7365 10.4555 30.3467 9.7875 31.0709 9.42187L31.4646 9.225L31.6967 9.58359C31.8232 9.7875 32.1397 10.3922 32.4139 10.9336ZM5.44902 9.76641C6.38418 10.1883 8.00137 10.807 8.59902 10.9687C8.78887 11.018 8.92949 11.0953 8.92949 11.1516C8.92949 11.2078 8.88027 11.5453 8.82402 11.9039C8.64121 13.05 8.51465 14.3438 8.42324 15.8344L8.33887 17.2969H5.15371H1.96855V17.0227C1.96855 16.5305 2.17949 15.1102 2.36934 14.3086C2.60137 13.3242 3.00918 12.1219 3.40996 11.2711C3.76152 10.5187 4.41543 9.35156 4.48574 9.35156C4.51387 9.35156 4.94277 9.5414 5.44902 9.76641ZM25.699 11.5453C25.7482 11.7773 25.9451 13.1062 25.924 13.1203C25.917 13.1273 25.7061 13.1836 25.4529 13.2469C24.3912 13.507 23.3014 14.2312 22.6826 15.075L22.3451 15.5391H20.524H18.7029V13.9359V12.3328L19.9756 12.2484C20.6787 12.1992 21.7264 12.0938 22.3029 12.0164C23.2803 11.8898 25.4529 11.482 25.5162 11.4187C25.5865 11.3484 25.6639 11.4047 25.699 11.5453ZM11.0389 11.6016C12.5154 11.932 14.5334 12.1922 16.3193 12.2766L17.2967 12.3258V13.9289V15.532L15.4896 15.5531L13.6756 15.5742L13.2326 15.8133C12.7193 16.0875 12.3045 16.5305 12.1146 16.9805L11.9881 17.2969H10.8701H9.75215L9.80137 16.2211C9.87168 14.7656 10.174 11.9109 10.3006 11.5453C10.3357 11.4398 10.2936 11.4328 11.0389 11.6016ZM27.1404 14.5547C28.9756 14.843 30.3115 16.657 30.0303 18.4922C29.7982 20.025 28.5959 21.2203 27.0561 21.4523C25.6217 21.6633 24.0748 20.8477 23.4631 19.5398L23.2381 19.0547H21.8178H20.3904V18.8086C20.3904 18.1125 19.7436 17.7609 19.2584 18.1969C19.0896 18.3445 19.0334 18.4641 19.0053 18.7242L18.9631 19.0547H18.0982H17.2264V18.7453C17.2264 18.2812 16.9943 18.0352 16.5584 18.0352C16.1225 18.0352 15.8904 18.2812 15.8904 18.7453V19.0547H15.0115C14.0061 19.0547 13.7459 18.9844 13.4998 18.6328C13.1482 18.1406 13.2748 17.4445 13.7811 17.1L14.0131 16.9453H18.6256H23.2381L23.4631 16.4602C23.8217 15.7008 24.574 15.0187 25.3826 14.7234C26.0154 14.4984 26.4795 14.4562 27.1404 14.5547ZM8.40215 19.5609C8.47949 20.9742 8.64121 22.6336 8.82402 23.7727C8.91543 24.3703 8.97871 24.8695 8.95762 24.8977C8.94355 24.9187 8.78184 24.982 8.59902 25.0312C8.00137 25.193 6.38418 25.8117 5.44902 26.2336C4.94277 26.4586 4.51387 26.6484 4.48574 26.6484C4.41543 26.6484 3.76152 25.4812 3.40996 24.7289C3.00918 23.8781 2.60137 22.6758 2.36934 21.6914C2.17949 20.8898 1.96855 19.4695 1.96855 18.9773V18.7031H5.16074H8.35293L8.40215 19.5609ZM12.1146 19.0195C12.3115 19.4977 12.7404 19.9336 13.2748 20.1937L13.7389 20.4258L15.5178 20.4469L17.2967 20.468V22.0711V23.6742L16.3193 23.7234C14.5334 23.8078 12.5154 24.068 11.0318 24.3984C10.6803 24.4758 10.3779 24.532 10.3709 24.525C10.3357 24.4898 10.0615 22.6969 9.99121 22.0078C9.89981 21.2344 9.77324 19.4414 9.77324 18.9984V18.7031H10.8842H11.9881L12.1146 19.0195ZM34.0311 18.9773C34.0311 19.4695 33.8201 20.8898 33.6303 21.6914C33.2787 23.1961 32.7092 24.6305 31.9076 26.0297L31.4787 26.782L31.0779 26.5781C30.3467 26.2055 28.7365 25.5516 27.9139 25.2773C27.4709 25.1297 27.0842 24.9891 27.0561 24.968C27.0139 24.9328 27.26 22.9641 27.3162 22.8656C27.3232 22.8586 27.5201 22.8023 27.7451 22.7461C29.6225 22.268 30.9865 20.8266 31.3943 18.893L31.4295 18.7031H32.7303H34.0311V18.9773ZM22.6826 20.925C23.2873 21.7547 24.3842 22.4859 25.4107 22.7461C25.6357 22.8023 25.8396 22.8656 25.8607 22.8867C25.9029 22.9219 25.6779 24.4617 25.6217 24.5461C25.6076 24.5742 25.3404 24.532 25.0311 24.4617C23.5545 24.1172 21.41 23.8289 19.5678 23.7234L18.7029 23.6742V22.0711V20.4609H20.524H22.3451L22.6826 20.925ZM17.2967 29.5664V34.0312H17.0225C16.2561 34.0312 13.6826 33.5672 13.4576 33.3914C13.3381 33.3 12.5014 31.5773 12.1428 30.6914C11.5803 29.3133 10.6873 26.4445 10.6873 26.0086C10.6873 25.9242 10.8631 25.8609 11.4115 25.7484C12.41 25.5375 13.7389 25.3336 14.6951 25.2422C15.1381 25.207 15.6162 25.1578 15.7498 25.1508C15.8834 25.1367 16.2912 25.1156 16.6498 25.1156L17.2967 25.1016V29.5664ZM21.4381 25.2844C22.8021 25.432 25.1787 25.8609 25.2982 25.9805C25.4107 26.093 24.4404 29.2641 23.8639 30.6773C23.5053 31.5562 22.6756 33.2508 22.549 33.3703C22.3521 33.5602 19.7928 34.0312 18.9771 34.0312H18.7029V29.5594V25.0805L19.6029 25.1297C20.0951 25.1578 20.9178 25.2211 21.4381 25.2844ZM9.57637 27.3867C9.94199 28.7789 10.4623 30.3258 11.0107 31.5984C11.2568 32.175 11.4607 32.6602 11.4607 32.6742C11.4607 32.6953 11.0951 32.5125 10.6521 32.2805C8.75371 31.282 7.12246 29.9883 5.77246 28.4133C5.41387 27.9914 5.35059 27.8789 5.42793 27.8086C5.68809 27.5695 9.04902 26.2547 9.23887 26.318C9.27402 26.332 9.42871 26.8102 9.57637 27.3867ZM28.0545 26.8031C29.1021 27.1898 30.5857 27.8719 30.5857 27.9633C30.5787 28.0687 29.3623 29.3766 28.7928 29.8898C28.0475 30.5578 26.9857 31.3453 26.2475 31.7812C25.5865 32.175 24.5389 32.7164 24.5389 32.6672C24.5389 32.6461 24.6725 32.3367 24.8272 31.9781C25.4951 30.4805 26.2826 28.1391 26.585 26.768C26.6693 26.3672 26.6764 26.3602 26.8873 26.4094C27.0068 26.4305 27.5342 26.6133 28.0545 26.8031Z" fill="#F1F4FC"/>
<path d="M26.1347 15.8203C24.4402 16.2492 23.8496 18.3445 25.073 19.575C25.7269 20.2289 26.7675 20.4117 27.5691 20.018C28.0402 19.793 28.4972 19.3219 28.7082 18.8578C28.9332 18.3516 28.9191 17.5922 28.666 17.0789C28.441 16.6148 27.9629 16.1508 27.5269 15.9539C27.1613 15.7922 26.5004 15.7289 26.1347 15.8203ZM27.0066 17.2617C27.2527 17.3953 27.4918 17.7539 27.4918 18C27.4918 18.2602 27.2457 18.6188 26.9714 18.7453C26.655 18.9 26.3035 18.8297 26.0433 18.5555C25.8746 18.3797 25.8394 18.2813 25.8394 18C25.8394 17.3531 26.4441 16.9734 27.0066 17.2617Z" fill="#F1F4FC"/>
</g>
<defs>
<clipPath id="clip0_1024_1053">
<rect width="36" height="36" fill="white"/>
</clipPath>
</defs>
</svg>
