<svg width="36" height="36" viewBox="0 0 36 36" fill="none" xmlns="http://www.w3.org/2000/svg">
<g clip-path="url(#clip0_1024_3015)">
<path d="M3.48047 0.660904C3.22031 0.773407 2.98828 1.02653 2.88984 1.28669C2.83359 1.42028 2.8125 3.50153 2.8125 7.81169C2.8125 13.1062 2.79844 14.1328 2.71406 14.1328C2.66484 14.1328 2.39766 14.2453 2.13047 14.3789C1.52578 14.6812 1.11797 15.1031 0.822656 15.7359L0.597656 16.207V24.757V33.3L0.857812 33.8343C1.17422 34.4742 1.58203 34.8679 2.23594 35.1773L2.70703 35.4023H9.5625H16.418L16.8891 35.1773C17.5219 34.882 17.9438 34.4742 18.2461 33.8695C18.3797 33.6023 18.4922 33.3351 18.4922 33.2859C18.4922 33.2015 19.8422 33.1875 26.6062 33.1734C34.6781 33.1523 34.7273 33.1523 34.9172 33.0047C35.0227 32.9273 35.1773 32.7726 35.2547 32.6672L35.4023 32.4773V16.875V1.27262L35.2547 1.08278C35.1773 0.97731 35.0227 0.822624 34.9172 0.745281L34.7273 0.597626L19.2094 0.583561C6.38437 0.5695 3.65625 0.583561 3.48047 0.660904ZM34.3125 5.62497V9.56247H24.1875H14.0625V8.99997V8.43747H22.9078C32.9203 8.43747 32.175 8.47966 32.7164 7.87497C33.1102 7.43903 33.1875 7.15778 33.1875 6.18747C33.1875 5.21716 33.1102 4.93591 32.7164 4.49997C32.168 3.88825 33.3844 3.93747 19.1391 3.93747C9.43594 3.93747 6.45469 3.95856 6.22969 4.02184C5.84297 4.13434 5.25938 4.71794 5.14687 5.10466C5.04141 5.47731 5.03437 6.89762 5.14687 7.25622C5.25234 7.60075 5.68125 8.09997 6.02578 8.26872C6.27187 8.38825 6.53906 8.40231 9.07734 8.43747L11.8687 8.47262L11.5523 9.01403L11.2359 9.56247H7.58672H3.9375V5.62497V1.68747H19.125H34.3125V5.62497ZM9.5625 6.18747V7.31247H8.05078C6.53203 7.31247 6.53203 7.31247 6.36328 7.13669C6.19453 6.97497 6.1875 6.91872 6.1875 6.18747C6.1875 5.45622 6.19453 5.39997 6.36328 5.23825C6.53203 5.06247 6.53203 5.06247 8.05078 5.06247H9.5625V6.18747ZM31.8867 5.23825C32.0555 5.39997 32.0625 5.45622 32.0625 6.18747C32.0625 6.91872 32.0555 6.97497 31.8867 7.13669L31.718 7.31247H22.8867H14.0625V6.92575C14.0625 6.60231 14.0344 6.50387 13.8867 6.36325C13.6969 6.16637 13.3945 6.13122 13.1836 6.28591C13.1062 6.33512 12.9305 6.58825 12.7969 6.84841L12.5508 7.31247H11.6227H10.6875V6.18747V5.06247H21.1992H31.718L31.8867 5.23825ZM13.1062 14.2242C13.275 14.5687 13.7742 14.9976 14.1187 15.1031C14.2734 15.1523 14.7516 15.1875 15.1875 15.1875C15.6234 15.1875 16.1086 15.2226 16.2703 15.2718C16.657 15.3843 17.2406 15.9679 17.3531 16.3547C17.4727 16.7765 17.4727 32.7234 17.3531 33.1453C17.2406 33.532 16.657 34.1156 16.2703 34.2281C15.8555 34.3476 3.26953 34.3476 2.85469 34.2281C2.46797 34.1156 1.88437 33.532 1.77188 33.1453C1.65234 32.7375 1.65234 16.7765 1.77188 16.3687C1.87734 16.0242 2.30625 15.525 2.65078 15.3562C2.89687 15.2367 3.16406 15.2226 5.87109 15.1875C8.74687 15.1523 8.83125 15.1453 9.1125 14.9976C9.27422 14.9132 9.48516 14.7445 9.58359 14.632C9.68203 14.5125 10.4695 13.1836 11.3344 11.6718L12.9023 8.92262L12.9375 11.4398C12.9727 13.7179 12.9867 13.9851 13.1062 14.2242ZM10.5469 10.7297C10.5469 10.8703 8.81719 13.8023 8.66953 13.9218C8.50078 14.0554 8.37422 14.0625 6.21562 14.0625H3.9375V12.375V10.6875H7.24219C9.06328 10.6875 10.5469 10.7086 10.5469 10.7297ZM34.3125 21.375V32.0625H26.4375H18.5625V27V21.9375H25.875H33.1875V21.375V20.8125H32.9062H32.625V16.4883V12.157L32.4492 11.9883C32.2805 11.8125 32.2664 11.8125 30.9375 11.8125C29.6086 11.8125 29.5945 11.8125 29.4258 11.9883C29.257 12.15 29.25 12.1922 29.25 13.1133V14.0625H28.3008C27.3797 14.0625 27.3375 14.0695 27.1758 14.2383L27 14.407V17.6133V20.8125H26.4375H25.875V17.0508V13.282L25.6992 13.1133C25.5305 12.9375 25.5164 12.9375 24.1875 12.9375C22.8586 12.9375 22.8445 12.9375 22.6758 13.1133L22.5 13.282V15.082V16.875H21.5508C20.6297 16.875 20.5875 16.882 20.4258 17.0508L20.25 17.2195V19.0195V20.8125H19.4133H18.5695L18.5484 18.5062L18.5273 16.2L18.2672 15.6656C17.9508 15.0257 17.5359 14.625 16.8891 14.3226C16.4461 14.1187 16.3547 14.1047 15.3773 14.0625C13.9711 14.0133 14.0625 14.1468 14.0625 12.1922V10.6875H24.1875H34.3125V21.375ZM31.5 16.875V20.8125H30.9375H30.375V16.875V12.9375H30.9375H31.5V16.875ZM24.75 17.4375V20.8125H24.1875H23.625V17.4375V14.0625H24.1875H24.75V17.4375ZM29.25 18V20.8125H28.6875H28.125V18V15.1875H28.6875H29.25V18ZM22.5 19.4062V20.8125H21.9375H21.375V19.4062V18H21.9375H22.5V19.4062Z" fill="#F1F4FC"/>
<path d="M8.50798 16.4109C7.02439 16.7273 5.73767 17.5781 4.92205 18.7805C3.4033 21.0094 3.69158 24.0047 5.60408 25.9031C6.05408 26.3531 6.77127 26.8523 7.24939 27.0563L7.5658 27.1898L7.43923 29.0109C7.36892 30.0164 7.3197 31.0078 7.3408 31.2258C7.39002 31.9641 7.91033 32.6672 8.63455 32.9906C9.09861 33.2016 10.0267 33.2016 10.4908 32.9906C11.215 32.6672 11.7353 31.9641 11.7845 31.2258C11.8056 31.0078 11.7564 30.0164 11.6931 29.018L11.5595 27.2039L11.9885 27C15.0119 25.5516 16.1088 21.6914 14.2806 18.9C13.4861 17.6836 12.3541 16.875 10.8986 16.4742C10.3502 16.3266 9.07048 16.2914 8.50798 16.4109ZM10.5049 17.543C13.0853 18.0914 14.6814 20.8758 13.8306 23.3367C13.5775 24.0539 13.2611 24.5602 12.7267 25.1016C12.1924 25.6289 11.6861 25.9523 10.9549 26.2125C10.5119 26.3672 10.3291 26.3953 9.59783 26.4023C8.9158 26.4023 8.66267 26.3742 8.26189 26.2477C6.02595 25.5375 4.69002 23.2594 5.16814 20.9953C5.67439 18.5977 8.09314 17.0297 10.5049 17.543ZM10.4767 27.8438C10.4767 28.0195 10.4978 28.2797 10.5189 28.4203L10.5681 28.6875H9.56267H8.5572L8.60642 28.4203C8.62752 28.2797 8.64861 28.0195 8.64861 27.8438V27.5273H9.56267H10.4767V27.8438ZM10.6525 30.4805C10.7088 31.2539 10.6525 31.4648 10.301 31.7742C9.85095 32.168 9.1197 32.1188 8.73298 31.6828C8.4447 31.3523 8.41658 31.2258 8.47283 30.4734L8.52205 29.8125H9.56267H10.6033L10.6525 30.4805Z" fill="#F1F4FC"/>
<path d="M8.72578 18.675C6.94687 19.1531 5.84297 21.0024 6.29297 22.7461C6.76406 24.5461 8.60625 25.6641 10.3711 25.207C12.0375 24.7711 13.1344 23.1609 12.8883 21.4875C12.607 19.4977 10.6242 18.1617 8.72578 18.675ZM10.5117 19.9055C10.9547 20.1164 11.3766 20.5383 11.6016 20.9883C11.7422 21.2766 11.7773 21.4453 11.7773 21.9375C11.7703 22.4789 11.7492 22.5774 11.5383 22.9781C11.2711 23.4703 11.0461 23.6883 10.5187 23.9625C10.2164 24.1172 10.0687 24.1453 9.5625 24.1453C9.07031 24.1524 8.90156 24.1172 8.61328 23.9766C6.78515 23.0766 6.93984 20.4961 8.85937 19.8C9.30234 19.6383 10.0547 19.6875 10.5117 19.9055Z" fill="#F1F4FC"/>
<path d="M20.8125 24.75V25.3125H21.9375H23.0625V24.75V24.1875H21.9375H20.8125V24.75Z" fill="#F1F4FC"/>
<path d="M24.1875 24.75V25.3125H28.125H32.0625V24.75V24.1875H28.125H24.1875V24.75Z" fill="#F1F4FC"/>
<path d="M20.8125 27V27.5625H21.9375H23.0625V27V26.4375H21.9375H20.8125V27Z" fill="#F1F4FC"/>
<path d="M24.1875 27V27.5625H28.125H32.0625V27V26.4375H28.125H24.1875V27Z" fill="#F1F4FC"/>
<path d="M20.8125 29.25V29.8125H21.9375H23.0625V29.25V28.6875H21.9375H20.8125V29.25Z" fill="#F1F4FC"/>
<path d="M24.1875 29.25V29.8125H28.125H32.0625V29.25V28.6875H28.125H24.1875V29.25Z" fill="#F1F4FC"/>
</g>
<defs>
<clipPath id="clip0_1024_3015">
<rect width="36" height="36" fill="white"/>
</clipPath>
</defs>
</svg>
