<svg width="42" height="42" viewBox="0 0 42 42" fill="none" xmlns="http://www.w3.org/2000/svg">
<g clip-path="url(#clip0_153_893)">
<path d="M0.861328 0.861328L0.65625 1.0582V5.12695V9.1875H1.3125H1.96875V5.57813V1.96875H5.57812H9.1875V1.3125V0.65625H5.12695H1.0582L0.861328 0.861328Z" fill="url(#paint0_linear_153_893)"/>
<path d="M20.3438 2.6168V4.58555L19.8762 4.63477C17.2594 4.90547 15.3316 5.46328 13.4121 6.47227C10.3687 8.08008 7.85039 10.6395 6.33281 13.6664C5.39766 15.5367 4.89727 17.3578 4.63477 19.868L4.58555 20.3438H2.6168H0.65625V21V21.6562H2.6168H4.58555L4.63477 22.1238C4.95469 25.1918 5.68477 27.423 7.07109 29.6461C9.59766 33.682 13.7648 36.4465 18.375 37.1684C18.941 37.2504 19.6137 37.3488 19.8762 37.3734L20.3438 37.4145V39.3832V41.3438H21H21.6562V39.3832V37.4145L22.132 37.3652C24.5602 37.1109 26.4715 36.5941 28.1777 35.741C31.9348 33.8707 34.8059 30.7371 36.2906 26.9063C36.8484 25.4461 37.1684 24.0434 37.3652 22.1238L37.4145 21.6562H39.3832H41.3438V21V20.3438H39.3832H37.4145L37.3652 19.868C37.0453 16.8246 36.3152 14.5688 34.9289 12.3539C33.3785 9.88477 31.1719 7.82578 28.6207 6.48047C26.6602 5.45508 24.7652 4.91367 22.132 4.63477L21.6562 4.58555V2.6168V0.65625H21H20.3438V2.6168ZM20.3438 7.21875V8.53125H21H21.6562V7.21875V5.90625L22.132 5.95547C26.2336 6.36563 29.5641 8.01445 32.2137 10.9348C34.4285 13.3793 35.6918 16.3324 36.0445 19.868L36.0938 20.3438H34.7812H33.4688V21V21.6562H34.7812H36.0938L36.0445 22.1238C35.6918 25.6512 34.4039 28.6617 32.2383 31.0406C29.5312 34.0102 26.25 35.6344 22.132 36.0445L21.6562 36.0938V34.7813V33.4688H21H20.3438V34.7813V36.0938L19.8352 36.0445C16.7918 35.7656 14.0273 34.6828 11.6895 32.8617C10.9676 32.3039 9.73711 31.0652 9.14648 30.3105C7.27617 27.9152 6.27539 25.3559 5.95547 22.1238L5.90625 21.6562H7.21875H8.53125V21V20.3438H7.21055H5.89805L5.93906 19.991C5.96367 19.8023 6.00469 19.425 6.0293 19.1543C6.18516 17.6449 6.75117 15.791 7.54687 14.2242C9.01523 11.3121 11.3121 9.01524 14.2242 7.54688C16.0863 6.61172 18.0141 6.08672 20.2043 5.91446C20.3273 5.90625 20.3438 6.0211 20.3438 7.21875Z" fill="url(#paint1_linear_153_893)"/>
<path d="M19.5236 11.9355C18.5557 12.0996 17.7764 12.3621 16.8248 12.8461C14.249 14.1586 12.6002 16.3898 11.944 19.4496C11.9111 19.5891 11.6897 19.8023 11.2385 20.1305C10.2377 20.8441 10.2377 21.1723 11.2221 21.8285C11.9193 22.3043 11.9768 22.3535 11.9768 22.6078C11.9768 22.9441 12.3951 24.2484 12.7233 24.9375C13.6092 26.7996 14.9955 28.227 16.8248 29.1539C19.5318 30.532 22.4686 30.532 25.1756 29.1539C27.0049 28.227 28.3912 26.7996 29.2772 24.9375C29.6053 24.2484 30.0236 22.9441 30.0236 22.6078C30.0236 22.3535 30.0811 22.3043 30.7783 21.8285C31.7627 21.1723 31.7627 20.8441 30.7619 20.1305C30.3107 19.8023 30.0893 19.5891 30.0565 19.4496C29.4166 16.4473 27.7842 14.1996 25.2822 12.8953C23.4693 11.952 21.435 11.6074 19.5236 11.9355ZM22.7967 13.3301C24.544 13.7566 26.2256 14.8559 27.2756 16.2668C27.6775 16.7918 28.4076 18.1699 28.3666 18.3012C28.3502 18.3422 28.0139 18.1289 27.6119 17.8336C25.4545 16.2422 24.5522 15.7336 23.1494 15.3645C22.444 15.1758 22.1979 15.1512 21.0002 15.1512C19.8025 15.1512 19.5565 15.1758 18.851 15.3645C17.4565 15.7336 16.6854 16.1602 14.5608 17.7105C14.0686 18.0715 13.6502 18.334 13.6338 18.293C13.601 18.1945 14.208 16.9805 14.5361 16.5047C14.8725 16.0125 16.0045 14.8723 16.4967 14.5359C17.3744 13.9453 18.5721 13.4449 19.6467 13.2398C20.3686 13.1004 22.0666 13.1496 22.7967 13.3301ZM22.8459 16.6441C23.2068 16.7426 23.8385 16.9805 24.2404 17.1855C24.9787 17.5465 25.2576 17.7434 28.1533 19.8598L29.6873 20.9836L26.7178 22.9605C24.3799 24.5109 23.6006 24.9867 23.092 25.1754C21.517 25.7496 20.0076 25.6922 18.5393 25.0113C18.0881 24.8062 12.2639 21.0082 12.3213 20.959C12.4526 20.8605 16.1029 18.2191 16.5459 17.8992C17.5713 17.1691 18.5393 16.7426 19.7123 16.5211C20.5162 16.3734 22.001 16.4309 22.8459 16.6441ZM17.5057 25.9793C19.1135 26.8898 21.1479 27.1359 22.9115 26.6191C23.9369 26.3238 24.5522 25.9875 26.6275 24.6012C27.6365 23.9285 28.465 23.4117 28.465 23.4609C28.465 23.6578 28.0303 24.6012 27.6693 25.1754C25.717 28.309 21.7795 29.6543 18.2686 28.3828C16.8084 27.8496 15.3401 26.693 14.4623 25.3723C14.044 24.7406 13.5436 23.7152 13.5354 23.4773C13.5354 23.4199 14.3229 23.9039 15.2826 24.5437C16.2342 25.1836 17.235 25.8316 17.5057 25.9793Z" fill="url(#paint2_linear_153_893)"/>
<path d="M20.024 17.1937C17.9486 17.7515 16.6607 19.909 17.1857 21.9433C17.5959 23.5019 18.8838 24.6504 20.4752 24.8801C23.174 25.2738 25.4955 22.698 24.8146 20.073C24.265 17.9484 22.083 16.6359 20.024 17.1937ZM22.1076 18.6539C22.3373 18.7605 22.6572 18.9902 22.8377 19.1625C23.174 19.4988 23.5431 20.1879 23.5431 20.475C23.5431 20.6062 23.4447 20.6965 23.1412 20.8277C22.6408 21.041 22.2963 21.041 21.8615 20.8441C21.4677 20.6636 21.2955 20.4832 21.1232 20.073C20.9509 19.6629 20.9673 19.3429 21.1724 18.859C21.3775 18.3832 21.4923 18.3586 22.1076 18.6539ZM19.7287 19.4578C19.7287 20.114 19.7615 20.2863 19.942 20.6801C20.2209 21.2707 20.7295 21.7793 21.3201 22.0582C21.7138 22.2386 21.8861 22.2715 22.5341 22.2715C23.3873 22.2633 23.3873 22.2715 22.8377 22.8375C22.3455 23.3461 21.7466 23.584 20.9591 23.584C20.3603 23.584 20.2537 23.5593 19.7697 23.2886C18.2931 22.4765 17.9404 20.6308 19.0068 19.3019C19.1134 19.1707 19.6713 18.7031 19.7205 18.7031C19.7287 18.7031 19.7287 19.0476 19.7287 19.4578Z" fill="url(#paint3_linear_153_893)"/>
<path d="M32.8125 1.3125V1.96875H36.4219H40.0312V5.57813V9.1875H40.6875H41.3438V5.12695V1.0582L41.1387 0.861328L40.9418 0.65625H36.873H32.8125V1.3125Z" fill="url(#paint4_linear_153_893)"/>
<path d="M0.65625 36.873V40.9418L0.861328 41.1387L1.0582 41.3438H5.12695H9.1875V40.6875V40.0312H5.57812H1.96875V36.4219V32.8125H1.3125H0.65625V36.873Z" fill="url(#paint5_linear_153_893)"/>
<path d="M40.0312 36.4219V40.0312H36.4219H32.8125V40.6875V41.3438H36.873H40.9418L41.1387 41.1387L41.3438 40.9418V36.873V32.8125H40.6875H40.0312V36.4219Z" fill="url(#paint6_linear_153_893)"/>
</g>
<defs>
<linearGradient id="paint0_linear_153_893" x1="4.92188" y1="9.1875" x2="4.92188" y2="0.65625" gradientUnits="userSpaceOnUse">
<stop offset="0.259609" stop-color="#023B8B"/>
<stop offset="0.70661" stop-color="#012558"/>
</linearGradient>
<linearGradient id="paint1_linear_153_893" x1="21" y1="41.3438" x2="21" y2="0.65625" gradientUnits="userSpaceOnUse">
<stop offset="0.259609" stop-color="#023B8B"/>
<stop offset="0.70661" stop-color="#012558"/>
</linearGradient>
<linearGradient id="paint2_linear_153_893" x1="21.0002" y1="30.1875" x2="21.0002" y2="11.8144" gradientUnits="userSpaceOnUse">
<stop offset="0.259609" stop-color="#023B8B"/>
<stop offset="0.70661" stop-color="#012558"/>
</linearGradient>
<linearGradient id="paint3_linear_153_893" x1="21.0015" y1="24.9201" x2="21.0015" y2="17.0652" gradientUnits="userSpaceOnUse">
<stop offset="0.259609" stop-color="#023B8B"/>
<stop offset="0.70661" stop-color="#012558"/>
</linearGradient>
<linearGradient id="paint4_linear_153_893" x1="37.0781" y1="9.1875" x2="37.0781" y2="0.65625" gradientUnits="userSpaceOnUse">
<stop offset="0.259609" stop-color="#023B8B"/>
<stop offset="0.70661" stop-color="#012558"/>
</linearGradient>
<linearGradient id="paint5_linear_153_893" x1="4.92188" y1="41.3438" x2="4.92188" y2="32.8125" gradientUnits="userSpaceOnUse">
<stop offset="0.259609" stop-color="#023B8B"/>
<stop offset="0.70661" stop-color="#012558"/>
</linearGradient>
<linearGradient id="paint6_linear_153_893" x1="37.0781" y1="41.3438" x2="37.0781" y2="32.8125" gradientUnits="userSpaceOnUse">
<stop offset="0.259609" stop-color="#023B8B"/>
<stop offset="0.70661" stop-color="#012558"/>
</linearGradient>
<clipPath id="clip0_153_893">
<rect width="42" height="42" fill="white"/>
</clipPath>
</defs>
</svg>
