<svg width="20" height="24" viewBox="0 0 20 24" fill="none" xmlns="http://www.w3.org/2000/svg">
<g clip-path="url(#clip0_847_1732)">
<path d="M4.70589 0.850586H14.7317L19.5588 5.26255V21.4847C19.5588 22.5354 18.7028 23.3871 17.6471 23.3871H4.70589C3.65005 23.3871 2.79413 22.5354 2.79413 21.4847V2.75303C2.79413 1.70233 3.65006 0.850586 4.70589 0.850586Z" stroke="#D0D5DD" stroke-width="1.5"/>
<mask id="mask0_847_1732" style="mask-type:luminance" maskUnits="userSpaceOnUse" x="14" y="0" width="6" height="6">
<path d="M14.1176 0.99707H19.1176V5.97266H14.7059C14.381 5.97266 14.1176 5.7106 14.1176 5.38731V0.99707Z" fill="white"/>
</mask>
<g mask="url(#mask0_847_1732)">
<path d="M19.1177 6.55802H14.7059C14.0561 6.55802 13.5294 6.03389 13.5294 5.38731H14.7059H19.1177V6.55802ZM14.7059 6.55802C14.0561 6.55802 13.5294 6.03389 13.5294 5.38731V0.99707H14.7059V5.38731V6.55802Z" fill="#D0D5DD"/>
</g>
<path d="M12.3529 12.293H1.17647C0.526724 12.293 0 12.8171 0 13.4637V18.732C0 19.3786 0.526724 19.9027 1.17647 19.9027H12.3529C13.0027 19.9027 13.5294 19.3786 13.5294 18.732V13.4637C13.5294 12.8171 13.0027 12.293 12.3529 12.293Z" fill="#F04438"/>
<path d="M4.6957 15.1862C4.6957 15.4243 4.6408 15.6428 4.531 15.8418C4.42119 16.037 4.25256 16.195 4.02512 16.316C3.79766 16.437 3.51531 16.4974 3.17806 16.4974H2.55453V17.9725H1.54865V13.8633H3.17806C3.50747 13.8633 3.7859 13.9199 4.01335 14.033C4.2408 14.1462 4.41139 14.3023 4.52512 14.5013C4.63884 14.7004 4.6957 14.9286 4.6957 15.1862ZM3.10159 15.7013C3.29374 15.7013 3.43688 15.6565 3.531 15.5667C3.62512 15.477 3.67217 15.3501 3.67217 15.1862C3.67217 15.0223 3.62512 14.8955 3.531 14.8057C3.43688 14.716 3.29374 14.6711 3.10159 14.6711H2.55453V15.7013H3.10159ZM6.76641 13.8633C7.2017 13.8633 7.58212 13.9492 7.90759 14.1208C8.23312 14.2926 8.48406 14.5345 8.66053 14.8467C8.84094 15.155 8.93112 15.5121 8.93112 15.9179C8.93112 16.3199 8.84094 16.677 8.66053 16.9891C8.48406 17.3014 8.23112 17.5433 7.9017 17.715C7.57623 17.8867 7.19782 17.9725 6.76641 17.9725H5.21937V13.8633H6.76641ZM6.7017 17.1062C7.08212 17.1062 7.37817 17.0028 7.58994 16.796C7.8017 16.5892 7.90759 16.2965 7.90759 15.9179C7.90759 15.5394 7.8017 15.2447 7.58994 15.034C7.37817 14.8233 7.08212 14.7179 6.7017 14.7179H6.22523V17.1062H6.7017ZM12.1815 13.8633V14.6652H10.4992V15.5316H11.758V16.3101H10.4992V17.9725H9.49329V13.8633H12.1815Z" fill="white"/>
</g>
<defs>
<clipPath id="clip0_847_1732">
<rect width="20" height="24" fill="white"/>
</clipPath>
</defs>
</svg>
