<svg width="20" height="20" viewBox="0 0 20 20" fill="none" xmlns="http://www.w3.org/2000/svg">
<g clip-path="url(#clip0_712_110)">
<path d="M3.31091 16.9326C7.18947 20.6494 12.8102 20.6493 16.6888 16.9326C20.7297 13.0534 20.7294 6.94871 16.6888 3.06934L16.6898 3.06836C14.2831 0.739905 11.1715 -0.168553 7.94861 0.511719L7.63611 0.583008C5.91561 1.00807 4.43989 1.89911 3.06873 3.31055H3.06775C-0.730137 7.27005 -0.628957 13.1331 3.31091 16.9316V16.9326ZM15.9115 16.2275C12.6167 19.3691 7.80297 19.4678 4.37634 16.5039L4.04919 16.208C0.548673 12.8459 0.411213 7.60867 3.77283 4.08887C6.02918 1.7139 9.05204 0.80654 12.0746 1.59668C13.7355 2.03168 14.9799 2.78143 16.2279 4.08887C19.5894 7.60854 19.4514 12.8654 15.9115 16.2275Z" fill="white" stroke="white" stroke-width="0.2"/>
<path d="M10.5197 15.5C11.553 15.5 12.6275 15.1225 13.5431 14.5088C14.4014 13.9334 15.1267 13.1464 15.5509 12.2588L15.632 12.0791C15.8396 11.5808 15.9396 10.7844 15.9396 10C15.9395 9.31373 15.8634 8.61882 15.7052 8.12207L15.632 7.92188C14.5313 5.29256 11.3161 3.88881 8.64661 4.82617C7.71429 5.15408 6.82912 5.86846 6.17786 6.71484C5.5274 7.56034 5.09973 8.55118 5.09973 9.44043C5.09973 9.67665 5.08175 9.85677 5.047 9.98438C5.01149 10.1147 4.96408 10.1707 4.92395 10.1914C4.88756 10.2101 4.82665 10.2144 4.7218 10.1611C4.61756 10.1081 4.48802 10.0064 4.33118 9.84961C4.06895 9.58738 3.83036 9.42336 3.62903 9.38477C3.52413 9.36471 3.42327 9.37798 3.33801 9.43555C3.25454 9.49194 3.19841 9.58204 3.16418 9.69043L3.16516 9.69141C3.15187 9.73363 3.15769 9.7763 3.16614 9.80762C3.17552 9.84234 3.19178 9.87992 3.21106 9.91797C3.24976 9.99431 3.30852 10.0861 3.38098 10.1865C3.5265 10.3882 3.73453 10.6361 3.96594 10.8877L3.9679 10.8906C4.34572 11.2784 4.62738 11.5739 4.85266 11.7773C5.07549 11.9785 5.26197 12.1076 5.45325 12.1348C5.65226 12.163 5.83103 12.0792 6.02747 11.9297C6.22261 11.7811 6.45645 11.5504 6.7677 11.2539C7.07028 10.9715 7.34902 10.6784 7.55188 10.4375C7.65312 10.3173 7.73688 10.2082 7.79602 10.1191C7.8254 10.0749 7.84974 10.0336 7.86731 9.99707C7.88317 9.96406 7.89941 9.92204 7.89954 9.88086C7.89954 9.73905 7.87036 9.61614 7.80188 9.52734C7.73008 9.43445 7.62568 9.39103 7.50891 9.39258C7.39614 9.39414 7.27161 9.43656 7.14368 9.50879C7.01455 9.58176 6.8749 9.68899 6.73059 9.82812V9.8291C6.53223 10.0225 6.37666 10.143 6.26282 10.2002C6.20607 10.2287 6.16738 10.2377 6.14368 10.2373C6.12506 10.2369 6.11556 10.2311 6.10657 10.2207C6.0942 10.2062 6.07828 10.1758 6.06848 10.1182C6.05887 10.0614 6.05598 9.98557 6.06165 9.88965C6.06734 9.79352 6.08106 9.67985 6.10364 9.54883L6.19739 9.10352V9.10254C6.5104 7.71357 7.31001 6.71678 8.64563 6.0293L8.95422 5.88379C9.67329 5.57277 10.3828 5.46543 11.0695 5.55469C11.8544 5.65676 12.6173 6.01628 13.3351 6.63574L13.3361 6.63672C13.8977 7.10975 14.2874 7.58936 14.5372 8.12793C14.7869 8.66635 14.8995 9.27101 14.8995 10C14.8995 10.7294 14.7863 11.3347 14.5363 11.876C14.2862 12.4172 13.8971 12.9016 13.3351 13.3848C11.888 14.6166 10.1516 14.7944 8.36536 13.8916L8.3634 13.8906C8.03316 13.7305 7.7791 13.6258 7.58411 13.583C7.38929 13.5403 7.22562 13.5538 7.1095 13.6699C7.02058 13.7588 6.9845 13.8669 7.00305 13.9824C7.02064 14.0914 7.08533 14.1967 7.172 14.2939C7.34578 14.4889 7.64118 14.6865 7.99524 14.8623C8.70548 15.2149 9.69083 15.4999 10.5197 15.5Z" fill="white" stroke="white" stroke-width="0.2"/>
</g>
<defs>
<clipPath id="clip0_712_110">
<rect width="20" height="20" fill="white"/>
</clipPath>
</defs>
</svg>
