<svg width="36" height="36" viewBox="0 0 36 36" fill="none" xmlns="http://www.w3.org/2000/svg">
<path d="M8.57812 2.50312C7.19297 3.93047 4.95703 5.06953 2.72812 5.48437C1.94766 5.625 2.00391 5.35781 1.98281 9.02812C1.96172 11.6156 1.97578 12.3328 2.06719 12.9234C2.20078 13.7883 2.43281 14.4984 2.77734 15.0539C2.91094 15.2719 3.02344 15.4688 3.02344 15.4898C3.02344 15.5039 2.78437 15.6234 2.49609 15.75C2.20078 15.8766 1.93359 16.0383 1.89844 16.1086C1.85625 16.1859 1.82812 19.6875 1.82812 25.2703V34.3055L2.01094 34.4461C2.11641 34.5305 2.23594 34.5937 2.27812 34.5937C2.32734 34.5937 2.67891 34.4672 3.05859 34.3055C5.05547 33.4969 7.18594 33.1172 9.84375 33.1102C11.2289 33.1102 12.3539 33.1805 13.268 33.3352C13.6266 33.3984 13.7039 33.4406 13.7391 33.5672C13.7953 33.8062 14.3227 34.3687 14.6531 34.5445C14.9344 34.6922 15.0047 34.6992 17.1914 34.6992C19.2867 34.6992 19.4625 34.6922 19.7227 34.5586C20.0742 34.3898 20.468 33.9961 20.6227 33.6656C20.7633 33.3703 20.7563 33.3703 22.043 33.2227C23.175 33.0891 25.5375 33.075 26.6133 33.1875C28.5047 33.3844 29.9953 33.743 31.5844 34.3969C32.2383 34.6641 32.4281 34.6219 32.5477 34.193C32.5969 34.0172 32.625 32.0062 32.625 28.2305V22.5352L33.4547 21.7969C34.7555 20.6297 34.7625 20.4398 33.5742 19.0406C33.1734 18.5625 32.7797 18.1336 32.7023 18.0844C32.5617 18.007 32.5547 17.9367 32.5547 17.0578C32.5547 16.2562 32.5406 16.1086 32.4352 16.0102C32.3086 15.9047 31.3594 15.4969 30.8672 15.3352C30.6211 15.2578 30.607 15.2227 30.143 14.0555C29.8828 13.3875 29.6789 12.8391 29.6859 12.8391C29.7 12.832 30.2344 12.3469 30.8742 11.7562C32.6953 10.0969 32.7023 9.97031 31.1695 8.21953C30.143 7.05234 29.9953 6.91875 29.5945 6.85547C29.0602 6.76406 28.8633 6.88359 27.4992 8.13515L26.2125 9.30234L25.5656 9.17578C23.2172 8.71875 21.7687 9.11953 19.8492 10.7648C19.125 11.3836 18.7312 11.8617 18.6328 12.2414C18.5906 12.3891 18.5203 12.5156 18.4781 12.5156C18.4359 12.5156 18.1336 12.6281 17.8102 12.7687L17.2125 13.0289L16.7203 12.825L16.2211 12.6281L16.2633 11.7562C16.2914 11.2711 16.2914 9.75937 16.2633 8.38125C16.207 5.39297 16.2984 5.63203 15.2086 5.41406C13.8656 5.14687 12.4734 4.58437 11.3133 3.83203C10.8 3.50156 9.82969 2.71406 9.49922 2.3625C9.225 2.07422 8.95078 2.11641 8.57812 2.50312ZM9.57656 3.76172C10.7789 4.84453 12.6352 5.80078 14.4211 6.25078L15.2227 6.44765L15.2789 8.47969C15.3984 12.6984 15.1242 14.0555 13.8867 15.293C13.1555 16.0242 11.7773 16.8891 9.64687 17.9578L9.13359 18.218L7.74844 17.5078C4.87969 16.0383 3.73359 15.0258 3.26953 13.5633C2.98828 12.6703 2.94609 12.0516 2.96719 9.14766L2.98828 6.44765L3.76172 6.25781C5.55469 5.81484 7.29141 4.92891 8.64844 3.76875C8.90156 3.55078 9.11953 3.375 9.12656 3.375C9.14062 3.375 9.34453 3.55078 9.57656 3.76172ZM29.5875 7.92422C29.9039 8.2125 31.2891 9.85078 31.2891 9.94219C31.2891 10.0055 30.7406 10.5539 30.0797 11.1656C28.3922 12.7195 23.8852 16.6641 23.8008 16.6641C23.7656 16.6641 23.6883 16.6359 23.632 16.6008C23.5547 16.5516 23.5547 16.4812 23.6531 16.2C23.7234 16.0102 23.7937 15.5531 23.8148 15.1875C23.85 14.5828 23.8359 14.4703 23.6602 13.9922C23.5547 13.7039 23.4633 13.3945 23.4562 13.3102C23.4492 13.1906 23.9977 12.6562 25.7695 11.032C28.8914 8.17734 29.3062 7.80469 29.3836 7.80469C29.4187 7.80469 29.5102 7.86094 29.5875 7.92422ZM25.1367 10.1039C25.2422 10.1672 25.0242 10.3852 23.8078 11.5031C23.0063 12.2344 22.3383 12.8953 22.3172 12.9797C22.2961 13.057 22.4016 13.4297 22.5633 13.8375C22.8867 14.6531 22.9359 15.2086 22.7391 15.7922C22.507 16.4742 22.1695 16.8047 21.7055 16.8047C21.3609 16.8047 21.1711 16.6148 20.7352 15.8555C19.8633 14.3227 19.5469 13.5492 19.5469 12.9234C19.5469 12.4523 19.6664 12.2625 20.2992 11.6789C21.2414 10.807 22.2188 10.2234 23.0273 10.0547C23.3789 9.97734 24.975 10.0195 25.1367 10.1039ZM18.7312 13.9711C18.8086 14.2031 18.8297 14.3859 18.7945 14.393C18.5906 14.4633 18.1195 14.8852 17.9367 15.1664L17.7188 15.4898V14.6883V13.8797L18.0562 13.732C18.5625 13.507 18.5906 13.5211 18.7312 13.9711ZM29.925 16.1789L30.9234 18.7102L29.0812 20.3273C28.0758 21.2203 27.2109 21.9656 27.1617 21.9867C27.1195 22.0008 26.9648 21.9375 26.8102 21.8391C26.3742 21.5508 25.6641 21.3187 24.6305 21.1289C22.3031 20.707 21.4734 20.2711 20.2992 18.8578C19.6734 18.1055 18.7875 16.8609 18.6609 16.5586C18.5133 16.193 18.5977 15.8555 18.9211 15.532C19.0758 15.3773 19.2164 15.2578 19.2516 15.2578C19.2797 15.2578 19.5398 15.6937 19.8281 16.2141C20.1164 16.7414 20.4469 17.2547 20.5664 17.3531C21.15 17.8453 21.8602 17.9227 22.5562 17.5781L22.9852 17.3602L23.2664 17.5008C23.4141 17.5781 23.6602 17.6625 23.8148 17.6906C24.1594 17.7398 24.1172 17.775 26.7539 15.4477C27.9141 14.4211 28.8773 13.5984 28.8984 13.6195C28.9195 13.6336 29.3836 14.7867 29.925 16.1789ZM16.4531 13.7812L16.7344 13.9219V15.9539V17.9859L16.3547 18.3164C16.1437 18.4922 15.9398 18.7242 15.8977 18.8297C15.7078 19.3008 15.0469 21.5508 15.0469 21.7195C15.0539 21.9656 15.2719 22.4297 15.4758 22.6195C15.7078 22.8305 15.982 22.9219 16.3898 22.9219H16.7344V26.7258C16.7344 30.3187 16.7273 30.5297 16.6148 30.4875C15.3352 30.0516 14.9344 29.932 14.3578 29.8195C13.275 29.5945 12.5719 29.5312 11.3203 29.5312C10.0687 29.5312 9.35156 29.6016 8.29688 29.8195C7.61484 29.9602 6.56719 30.2766 6.00469 30.5227C5.82891 30.593 5.66719 30.6562 5.65312 30.6562C5.63906 30.6562 5.625 27.6961 5.625 24.082V17.5078L6.27187 17.8664C7.29844 18.4219 9.00703 19.2656 9.1125 19.2656C9.16875 19.2656 9.66094 19.0406 10.2164 18.7664C14.0766 16.8328 15.3422 15.7781 15.9187 14.0062C15.9891 13.8094 16.0734 13.6406 16.1086 13.6406C16.1437 13.6406 16.3055 13.7039 16.4531 13.7812ZM4.26797 16.6008L4.64062 16.8891V24.2719V31.6477L4.81641 31.8164C4.90781 31.9148 5.04141 31.9922 5.10469 31.9922C5.175 31.9922 5.47031 31.8656 5.75859 31.718C6.49687 31.3383 7.60078 30.9656 8.64141 30.7477C9.45703 30.5719 9.66094 30.5578 11.2148 30.5578C12.143 30.5508 13.05 30.5789 13.2398 30.607L13.5703 30.6633V31.5281V32.3859L12.8883 32.2805C11.8266 32.1187 7.97344 32.1258 6.89062 32.2945C5.40703 32.5266 3.78281 32.9414 2.90391 33.307C2.83359 33.3352 2.8125 31.6477 2.8125 25.0102V16.6781L3.25547 16.5023C3.49453 16.3969 3.73359 16.3195 3.78984 16.3125C3.84609 16.3125 4.05703 16.4461 4.26797 16.6008ZM31.4859 16.6359C31.6195 16.7273 31.6406 16.8047 31.6406 17.2125C31.6406 17.5008 31.6125 17.6484 31.5773 17.6062C31.5211 17.55 31.1484 16.6289 31.1484 16.5516C31.1484 16.4883 31.3383 16.5305 31.4859 16.6359ZM18.7734 18.4922C19.0195 18.8227 19.4273 19.35 19.6945 19.6594L20.1727 20.2289L19.7156 20.6367C19.4625 20.8547 19.2516 21.0305 19.2375 21.0164C19.2234 21.0023 19.0828 20.7844 18.9141 20.5312C18.7453 20.2781 18.3164 19.7859 17.9578 19.4273L17.3039 18.7805L17.8031 18.3164C18.0773 18.0633 18.3094 17.8664 18.3164 17.8734C18.3305 17.8875 18.5344 18.1617 18.7734 18.4922ZM32.8148 19.6523C33.1523 20.0602 33.4336 20.4258 33.4336 20.4539C33.4336 20.5312 28.7156 24.6797 28.6242 24.6797C28.5258 24.6797 27.3445 23.2664 27.3656 23.1891C27.3867 23.1328 32.1258 18.9281 32.182 18.9141C32.182 18.9141 32.4703 19.2445 32.8148 19.6523ZM17.3812 20.2289C17.7891 20.6508 18.45 21.5086 18.4078 21.5578C18.3937 21.5648 17.9086 21.6633 17.318 21.7687C16.418 21.9305 16.2281 21.9445 16.1367 21.8672C16.0031 21.7547 16.0031 21.7477 16.3898 20.5172C16.7203 19.4766 16.657 19.4906 17.3812 20.2289ZM21.3117 21.0937C22.0078 21.5156 23.1117 21.8742 24.3633 22.0781C25.1227 22.2047 25.6641 22.3523 26.0648 22.5492L26.4305 22.732L26.3883 23.0344C26.3672 23.1961 26.3672 23.4141 26.3953 23.5125C26.4516 23.7445 27.8086 25.3617 28.0758 25.5305C28.1883 25.5938 28.3922 25.6711 28.5187 25.6992L28.7578 25.7414V28.2094C28.7578 30.15 28.7367 30.6633 28.6734 30.6352C27.5695 30.15 26.2828 29.7984 25.0031 29.6297C23.7375 29.4609 21.4312 29.5312 20.2852 29.7633C19.6102 29.9039 18.2953 30.2906 17.8031 30.4945C17.7328 30.5227 17.7188 29.7352 17.7328 26.6062L17.7539 22.6828L18.443 22.5562C18.8156 22.493 19.1672 22.4086 19.2234 22.3805C19.2797 22.3523 19.6734 22.0008 20.1094 21.6C20.5453 21.2062 20.9109 20.8828 20.932 20.8828C20.9531 20.8828 21.1289 20.9742 21.3117 21.0937ZM31.6406 28.4062C31.6406 31.1133 31.6266 33.3281 31.6055 33.3281C31.5914 33.3281 31.3594 33.2437 31.0992 33.1453C30.368 32.8711 28.8844 32.5055 27.7664 32.3297C26.8664 32.1891 26.5078 32.168 24.4688 32.175C22.7953 32.175 22.0008 32.2031 21.5016 32.2805L20.8125 32.3859V31.5281V30.6633L21.2203 30.607C21.4383 30.5789 22.3172 30.5508 23.168 30.5508C25.418 30.5508 26.7469 30.818 28.3992 31.6125C28.8352 31.8234 29.2359 31.9922 29.2852 31.9922C29.3344 31.9922 29.4539 31.9289 29.5594 31.8445L29.7422 31.7039V28.3781V25.0594L30.6422 24.2789C31.1344 23.843 31.5562 23.4914 31.5914 23.4844C31.6195 23.4844 31.6406 25.6992 31.6406 28.4062ZM15.4688 31.1273C15.757 31.2258 16.2633 31.4297 16.5867 31.5703C17.2336 31.8656 17.2898 31.8656 17.9719 31.5141C18.2531 31.3734 19.2937 30.9937 19.6383 30.9094L19.8281 30.8672V31.957C19.8281 33.1805 19.7789 33.3703 19.3852 33.6094C19.1742 33.743 19.0195 33.75 17.2406 33.75C15.0328 33.75 14.9414 33.7289 14.6953 33.2297C14.5758 32.9695 14.5547 32.7937 14.5547 31.9008V30.8672L14.7516 30.9094C14.857 30.9305 15.1805 31.0359 15.4688 31.1273Z" fill="url(#paint0_linear_1024_1537)"/>
<path d="M8.45855 5.04141C7.33355 6.00469 6.41246 6.47578 4.99214 6.82734C4.54918 6.93984 4.14839 7.07344 4.10621 7.13672C3.98668 7.29844 3.90933 10.8914 4.00777 11.8758C4.20464 13.95 4.85855 14.6953 7.88902 16.2633C8.45855 16.5656 9.01402 16.8047 9.11246 16.8047C9.33746 16.8047 11.25 15.8273 12.0867 15.2789C12.7757 14.8289 13.4437 14.2172 13.6828 13.8094C14.189 12.9445 14.3085 11.9953 14.2523 9.30234C14.2242 8.12813 14.175 7.25625 14.1328 7.17188C14.0906 7.10156 13.9429 7.00313 13.7953 6.96797C13.6546 6.93281 13.2679 6.83438 12.9375 6.75C11.7843 6.45469 10.6312 5.84297 9.85074 5.09766C9.47105 4.73906 9.22496 4.57031 9.08433 4.57031C9.04214 4.57031 8.76793 4.78125 8.45855 5.04141ZM11.0742 7.09453C11.7843 7.43906 12.4734 7.69219 12.9515 7.76953L13.2046 7.81875L13.2539 8.40938C13.3382 9.40078 13.2539 11.925 13.1203 12.4031C12.7898 13.5984 11.9671 14.3438 9.83668 15.3984L9.09839 15.7711L8.24058 15.3352C6.79214 14.5898 5.96949 13.9992 5.54761 13.3805C5.03433 12.6422 4.87261 11.5031 4.95699 9.24609L5.00621 7.83984L5.48433 7.72031C6.55308 7.46016 7.80464 6.84141 8.64839 6.16641L9.09839 5.80078L9.73824 6.27891C10.0828 6.53906 10.6875 6.91172 11.0742 7.09453Z" fill="url(#paint1_linear_1024_1537)"/>
<path d="M10.6943 8.41641C10.61 8.48672 10.1248 9.27422 9.61152 10.1672L8.67637 11.7984L8.07168 11.2078C7.39668 10.5539 7.2209 10.4906 6.92559 10.793C6.62324 11.0883 6.68652 11.2078 7.64277 12.1781C8.40918 12.9516 8.56387 13.0781 8.75371 13.0781C8.89434 13.0781 9.02793 13.0219 9.11934 12.9164C9.37949 12.6211 11.4607 8.93672 11.4607 8.76094C11.4607 8.57109 11.1654 8.29688 10.9686 8.29688C10.8982 8.29688 10.7787 8.35313 10.6943 8.41641Z" fill="url(#paint2_linear_1024_1537)"/>
<path d="M7.17181 21.7758C6.82727 21.9023 6.72181 22.2539 6.93274 22.5562L7.03821 22.7109H10.5398C13.7882 22.7109 14.0484 22.7039 14.1468 22.5844C14.3929 22.2961 14.3366 21.9516 14.0132 21.8039C13.8374 21.7266 7.38977 21.6984 7.17181 21.7758Z" fill="url(#paint3_linear_1024_1537)"/>
<path d="M7.17188 24.6586C6.96094 24.7359 6.82031 24.9187 6.82031 25.1015C6.82031 25.207 6.87656 25.3617 6.94688 25.4461C7.06641 25.5937 7.06641 25.5937 10.575 25.5797L14.0836 25.5586L14.2242 25.3687C14.3438 25.207 14.3508 25.1508 14.2805 24.9679C14.2242 24.8414 14.1117 24.7289 13.9781 24.6867C13.7531 24.6093 7.37578 24.5812 7.17188 24.6586Z" fill="url(#paint4_linear_1024_1537)"/>
<path d="M19.0338 25.7907C18.865 25.9735 18.8861 26.318 19.0619 26.4797C19.2025 26.6063 19.3642 26.6133 21.7127 26.6344C24.4127 26.6555 24.5744 26.6344 24.6588 26.3039C24.722 26.0719 24.6939 25.9453 24.5603 25.7836C24.4549 25.6711 24.2299 25.6641 21.797 25.6641C19.322 25.6641 19.1392 25.6711 19.0338 25.7907Z" fill="url(#paint5_linear_1024_1537)"/>
<path d="M19.1602 27.7172C18.9633 27.8297 18.9141 27.9141 18.9141 28.1742C18.9141 28.6172 18.9281 28.6172 21.8391 28.6172C24.6586 28.6172 24.5672 28.6312 24.7008 28.2445C24.7641 28.0687 24.5742 27.7312 24.3844 27.675C24.075 27.5977 19.3078 27.6328 19.1602 27.7172Z" fill="url(#paint6_linear_1024_1537)"/>
<defs>
<linearGradient id="paint0_linear_1024_1537" x1="18.1383" y1="34.6992" x2="18.1383" y2="2.17504" gradientUnits="userSpaceOnUse">
<stop offset="0.259609" stop-color="#023B8B"/>
<stop offset="0.70661" stop-color="#012558"/>
</linearGradient>
<linearGradient id="paint1_linear_1024_1537" x1="9.11397" y1="16.8047" x2="9.11397" y2="4.57031" gradientUnits="userSpaceOnUse">
<stop offset="0.259609" stop-color="#023B8B"/>
<stop offset="0.70661" stop-color="#012558"/>
</linearGradient>
<linearGradient id="paint2_linear_1024_1537" x1="9.1127" y1="13.0781" x2="9.1127" y2="8.29688" gradientUnits="userSpaceOnUse">
<stop offset="0.259609" stop-color="#023B8B"/>
<stop offset="0.70661" stop-color="#012558"/>
</linearGradient>
<linearGradient id="paint3_linear_1024_1537" x1="10.5619" y1="22.7109" x2="10.5619" y2="21.73" gradientUnits="userSpaceOnUse">
<stop offset="0.259609" stop-color="#023B8B"/>
<stop offset="0.70661" stop-color="#012558"/>
</linearGradient>
<linearGradient id="paint4_linear_1024_1537" x1="10.5729" y1="25.5855" x2="10.5729" y2="24.6127" gradientUnits="userSpaceOnUse">
<stop offset="0.259609" stop-color="#023B8B"/>
<stop offset="0.70661" stop-color="#012558"/>
</linearGradient>
<linearGradient id="paint5_linear_1024_1537" x1="21.8045" y1="26.6402" x2="21.8045" y2="25.6641" gradientUnits="userSpaceOnUse">
<stop offset="0.259609" stop-color="#023B8B"/>
<stop offset="0.70661" stop-color="#012558"/>
</linearGradient>
<linearGradient id="paint6_linear_1024_1537" x1="21.8136" y1="28.6172" x2="21.8136" y2="27.6321" gradientUnits="userSpaceOnUse">
<stop offset="0.259609" stop-color="#023B8B"/>
<stop offset="0.70661" stop-color="#012558"/>
</linearGradient>
</defs>
</svg>
