<svg width="33" height="33" viewBox="0 0 33 33" fill="none" xmlns="http://www.w3.org/2000/svg">
<path d="M6.75 0.328083C5.36484 1.75543 3.12891 2.89449 0.9 3.30933C0.119531 3.44996 0.175781 3.18277 0.154687 6.85308C0.133594 9.44058 0.147656 10.1578 0.239062 10.7484C0.372656 11.6132 0.604688 12.3234 0.949219 12.8789C1.08281 13.0968 1.19531 13.2937 1.19531 13.3148C1.19531 13.3289 0.95625 13.4484 0.667969 13.575C0.372656 13.7015 0.105469 13.8632 0.0703125 13.9336C0.028125 14.0109 0 17.5125 0 23.0953V32.1304L0.182812 32.2711C0.288281 32.3554 0.407812 32.4187 0.45 32.4187C0.499219 32.4187 0.850781 32.2921 1.23047 32.1304C3.22734 31.3218 5.35781 30.9421 8.01562 30.9351C9.40078 30.9351 10.5258 31.0054 11.4398 31.1601C11.7984 31.2234 11.8758 31.2656 11.9109 31.3921C11.9672 31.6312 12.4945 32.1937 12.825 32.3695C13.1062 32.5171 13.1766 32.5242 15.3633 32.5242C17.4586 32.5242 17.6344 32.5171 17.8945 32.3836C18.2461 32.2148 18.6398 31.8211 18.7945 31.4906C18.9352 31.1953 18.9281 31.1953 20.2148 31.0476C21.3469 30.914 23.7094 30.9 24.7852 31.0125C26.6766 31.2093 28.1672 31.5679 29.7562 32.2218C30.4102 32.489 30.6 32.4468 30.7195 32.0179C30.7687 31.8421 30.7969 29.8312 30.7969 26.0554V20.3601L31.6266 19.6218C32.9273 18.4546 32.9344 18.2648 31.7461 16.8656C31.3453 16.3875 30.9516 15.9586 30.8742 15.9093C30.7336 15.832 30.7266 15.7617 30.7266 14.8828C30.7266 14.0812 30.7125 13.9336 30.607 13.8351C30.4805 13.7296 29.5312 13.3218 29.0391 13.1601C28.793 13.0828 28.7789 13.0476 28.3148 11.8804C28.0547 11.2125 27.8508 10.664 27.8578 10.664C27.8719 10.657 28.4062 10.1718 29.0461 9.58121C30.8672 7.92183 30.8742 7.79527 29.3414 6.04449C28.3148 4.8773 28.1672 4.74371 27.7664 4.68043C27.232 4.58902 27.0352 4.70855 25.6711 5.96011L24.3844 7.1273L23.7375 7.00074C21.3891 6.54371 19.9406 6.94449 18.0211 8.5898C17.2969 9.20855 16.9031 9.68668 16.8047 10.0664C16.7625 10.214 16.6922 10.3406 16.65 10.3406C16.6078 10.3406 16.3055 10.4531 15.982 10.5937L15.3844 10.8539L14.8922 10.65L14.393 10.4531L14.4352 9.58121C14.4633 9.09605 14.4633 7.58433 14.4352 6.20621C14.3789 3.21793 14.4703 3.45699 13.3805 3.23902C12.0375 2.97183 10.6453 2.40933 9.48516 1.65699C8.97188 1.32652 8.00156 0.539021 7.67109 0.187458C7.39687 -0.100822 7.12266 -0.0586357 6.75 0.328083ZM7.74844 1.58668C8.95078 2.66949 10.807 3.62574 12.593 4.07574L13.3945 4.27261L13.4508 6.30465C13.5703 10.5234 13.2961 11.8804 12.0586 13.1179C11.3273 13.8492 9.94922 14.714 7.81875 15.7828L7.30547 16.0429L5.92031 15.3328C3.05156 13.8632 1.90547 12.8507 1.44141 11.3882C1.16016 10.4953 1.11797 9.87652 1.13906 6.97261L1.16016 4.27261L1.93359 4.08277C3.72656 3.6398 5.46328 2.75386 6.82031 1.59371C7.07344 1.37574 7.29141 1.19996 7.29844 1.19996C7.3125 1.19996 7.51641 1.37574 7.74844 1.58668ZM27.7594 5.74918C28.0758 6.03746 29.4609 7.67574 29.4609 7.76715C29.4609 7.83043 28.9125 8.37886 28.2516 8.99058C26.5641 10.5445 22.057 14.489 21.9727 14.489C21.9375 14.489 21.8602 14.4609 21.8039 14.4257C21.7266 14.3765 21.7266 14.3062 21.825 14.025C21.8953 13.8351 21.9656 13.3781 21.9867 13.0125C22.0219 12.4078 22.0078 12.2953 21.832 11.8171C21.7266 11.5289 21.6352 11.2195 21.6281 11.1351C21.6211 11.0156 22.1695 10.4812 23.9414 8.85699C27.0633 6.0023 27.4781 5.62964 27.5555 5.62964C27.5906 5.62964 27.682 5.6859 27.7594 5.74918ZM23.3086 7.92886C23.4141 7.99215 23.1961 8.21011 21.9797 9.32808C21.1781 10.0593 20.5102 10.7203 20.4891 10.8046C20.468 10.882 20.5734 11.2546 20.7352 11.6625C21.0586 12.4781 21.1078 13.0336 20.9109 13.6171C20.6789 14.2992 20.3414 14.6296 19.8773 14.6296C19.5328 14.6296 19.343 14.4398 18.907 13.6804C18.0352 12.1476 17.7188 11.3742 17.7188 10.7484C17.7188 10.2773 17.8383 10.0875 18.4711 9.50386C19.4133 8.63199 20.3906 8.0484 21.1992 7.87964C21.5508 7.8023 23.1469 7.84449 23.3086 7.92886ZM16.9031 11.7961C16.9805 12.0281 17.0016 12.2109 16.9664 12.2179C16.7625 12.2882 16.2914 12.7101 16.1086 12.9914L15.8906 13.3148V12.5132V11.7046L16.2281 11.557C16.7344 11.332 16.7625 11.3461 16.9031 11.7961ZM28.0969 14.0039L29.0953 16.5351L27.2531 18.1523C26.2477 19.0453 25.3828 19.7906 25.3336 19.8117C25.2914 19.8257 25.1367 19.7625 24.982 19.664C24.5461 19.3757 23.8359 19.1437 22.8023 18.9539C20.475 18.532 19.6453 18.0961 18.4711 16.6828C17.8453 15.9304 16.9594 14.6859 16.8328 14.3836C16.6852 14.0179 16.7695 13.6804 17.093 13.357C17.2477 13.2023 17.3883 13.0828 17.4234 13.0828C17.4516 13.0828 17.7117 13.5187 18 14.039C18.2883 14.5664 18.6187 15.0796 18.7383 15.1781C19.3219 15.6703 20.032 15.7476 20.7281 15.4031L21.157 15.1851L21.4383 15.3257C21.5859 15.4031 21.832 15.4875 21.9867 15.5156C22.3312 15.5648 22.2891 15.6 24.9258 13.2726C26.0859 12.2461 27.0492 11.4234 27.0703 11.4445C27.0914 11.4586 27.5555 12.6117 28.0969 14.0039ZM14.625 11.6062L14.9062 11.7468V13.7789V15.8109L14.5266 16.1414C14.3156 16.3171 14.1117 16.5492 14.0695 16.6546C13.8797 17.1257 13.2188 19.3757 13.2188 19.5445C13.2258 19.7906 13.4437 20.2546 13.6477 20.4445C13.8797 20.6554 14.1539 20.7468 14.5617 20.7468H14.9062V24.5507C14.9062 28.1437 14.8992 28.3546 14.7867 28.3125C13.507 27.8765 13.1062 27.757 12.5297 27.6445C11.4469 27.4195 10.7437 27.3562 9.49219 27.3562C8.24062 27.3562 7.52344 27.4265 6.46875 27.6445C5.78672 27.7851 4.73906 28.1015 4.17656 28.3476C4.00078 28.4179 3.83906 28.4812 3.825 28.4812C3.81094 28.4812 3.79688 25.5211 3.79688 21.907V15.3328L4.44375 15.6914C5.47031 16.2468 7.17891 17.0906 7.28437 17.0906C7.34062 17.0906 7.83281 16.8656 8.38828 16.5914C12.2484 14.6578 13.5141 13.6031 14.0906 11.8312C14.1609 11.6343 14.2453 11.4656 14.2805 11.4656C14.3156 11.4656 14.4773 11.5289 14.625 11.6062ZM2.43984 14.4257L2.8125 14.714V22.0968V29.4726L2.98828 29.6414C3.07969 29.7398 3.21328 29.8171 3.27656 29.8171C3.34687 29.8171 3.64219 29.6906 3.93047 29.5429C4.66875 29.1632 5.77266 28.7906 6.81328 28.5726C7.62891 28.3968 7.83281 28.3828 9.38672 28.3828C10.3148 28.3757 11.2219 28.4039 11.4117 28.432L11.7422 28.4882V29.3531V30.2109L11.0602 30.1054C9.99844 29.9437 6.14531 29.9507 5.0625 30.1195C3.57891 30.3515 1.95469 30.7664 1.07578 31.132C1.00547 31.1601 0.984375 29.4726 0.984375 22.8351V14.5031L1.42734 14.3273C1.66641 14.2218 1.90547 14.1445 1.96172 14.1375C2.01797 14.1375 2.22891 14.2711 2.43984 14.4257ZM29.6578 14.4609C29.7914 14.5523 29.8125 14.6296 29.8125 15.0375C29.8125 15.3257 29.7844 15.4734 29.7492 15.4312C29.693 15.375 29.3203 14.4539 29.3203 14.3765C29.3203 14.3132 29.5102 14.3554 29.6578 14.4609ZM16.9453 16.3171C17.1914 16.6476 17.5992 17.175 17.8664 17.4843L18.3445 18.0539L17.8875 18.4617C17.6344 18.6796 17.4234 18.8554 17.4094 18.8414C17.3953 18.8273 17.2547 18.6093 17.0859 18.3562C16.9172 18.1031 16.4883 17.6109 16.1297 17.2523L15.4758 16.6054L15.975 16.1414C16.2492 15.8882 16.4812 15.6914 16.4883 15.6984C16.5023 15.7125 16.7062 15.9867 16.9453 16.3171ZM30.9867 17.4773C31.3242 17.8851 31.6055 18.2507 31.6055 18.2789C31.6055 18.3562 26.8875 22.5046 26.7961 22.5046C26.6977 22.5046 25.5164 21.0914 25.5375 21.014C25.5586 20.9578 30.2977 16.7531 30.3539 16.739C30.3539 16.739 30.6422 17.0695 30.9867 17.4773ZM15.5531 18.0539C15.9609 18.4757 16.6219 19.3336 16.5797 19.3828C16.5656 19.3898 16.0805 19.4882 15.4898 19.5937C14.5898 19.7554 14.4 19.7695 14.3086 19.6921C14.175 19.5796 14.175 19.5726 14.5617 18.3421C14.8922 17.3015 14.8289 17.3156 15.5531 18.0539ZM19.4836 18.9187C20.1797 19.3406 21.2836 19.6992 22.5352 19.9031C23.2945 20.0296 23.8359 20.1773 24.2367 20.3742L24.6023 20.557L24.5602 20.8593C24.5391 21.0211 24.5391 21.239 24.5672 21.3375C24.6234 21.5695 25.9805 23.1867 26.2477 23.3554C26.3602 23.4187 26.5641 23.4961 26.6906 23.5242L26.9297 23.5664V26.0343C26.9297 27.975 26.9086 28.4882 26.8453 28.4601C25.7414 27.975 24.4547 27.6234 23.175 27.4546C21.9094 27.2859 19.6031 27.3562 18.457 27.5882C17.782 27.7289 16.4672 28.1156 15.975 28.3195C15.9047 28.3476 15.8906 27.5601 15.9047 24.4312L15.9258 20.5078L16.6148 20.3812C16.9875 20.3179 17.3391 20.2336 17.3953 20.2054C17.4516 20.1773 17.8453 19.8257 18.2812 19.425C18.7172 19.0312 19.0828 18.7078 19.1039 18.7078C19.125 18.7078 19.3008 18.7992 19.4836 18.9187ZM29.8125 26.2312C29.8125 28.9382 29.7984 31.1531 29.7773 31.1531C29.7633 31.1531 29.5312 31.0687 29.2711 30.9703C28.5398 30.6961 27.0562 30.3304 25.9383 30.1546C25.0383 30.014 24.6797 29.9929 22.6406 30C20.9672 30 20.1727 30.0281 19.6734 30.1054L18.9844 30.2109V29.3531V28.4882L19.3922 28.432C19.6102 28.4039 20.4891 28.3757 21.3398 28.3757C23.5898 28.3757 24.9187 28.6429 26.5711 29.4375C27.007 29.6484 27.4078 29.8171 27.457 29.8171C27.5062 29.8171 27.6258 29.7539 27.7312 29.6695L27.9141 29.5289V26.2031V22.8843L28.8141 22.1039C29.3062 21.6679 29.7281 21.3164 29.7633 21.3093C29.7914 21.3093 29.8125 23.5242 29.8125 26.2312ZM13.6406 28.9523C13.9289 29.0507 14.4352 29.2546 14.7586 29.3953C15.4055 29.6906 15.4617 29.6906 16.1437 29.339C16.425 29.1984 17.4656 28.8187 17.8102 28.7343L18 28.6921V29.782C18 31.0054 17.9508 31.1953 17.557 31.4343C17.3461 31.5679 17.1914 31.575 15.4125 31.575C13.2047 31.575 13.1133 31.5539 12.8672 31.0546C12.7477 30.7945 12.7266 30.6187 12.7266 29.7257V28.6921L12.9234 28.7343C13.0289 28.7554 13.3523 28.8609 13.6406 28.9523Z" fill="#F1F4FC"/>
<path d="M6.63042 2.86637C5.50542 3.82965 4.58433 4.30074 3.16402 4.6523C2.72105 4.7648 2.32027 4.8984 2.27808 4.96168C2.15855 5.1234 2.08121 8.71637 2.17964 9.70074C2.37652 11.775 3.03043 12.5203 6.06089 14.0882C6.63042 14.3906 7.18589 14.6296 7.28433 14.6296C7.50933 14.6296 9.42183 13.6523 10.2585 13.1039C10.9476 12.6539 11.6156 12.0421 11.8546 11.6343C12.3609 10.7695 12.4804 9.82027 12.4242 7.1273C12.396 5.95308 12.3468 5.08121 12.3046 4.99683C12.2625 4.92652 12.1148 4.82808 11.9671 4.79293C11.8265 4.75777 11.4398 4.65933 11.1093 4.57496C9.95621 4.27965 8.80308 3.66793 8.02261 2.92262C7.64292 2.56402 7.39683 2.39527 7.25621 2.39527C7.21402 2.39527 6.9398 2.60621 6.63042 2.86637ZM9.24605 4.91949C9.95621 5.26402 10.6453 5.51715 11.1234 5.59449L11.3765 5.64371L11.4257 6.23433C11.5101 7.22574 11.4257 9.74996 11.2921 10.2281C10.9617 11.4234 10.139 12.1687 8.00855 13.2234L7.27027 13.5961L6.41246 13.1601C4.96402 12.4148 4.14136 11.8242 3.71949 11.2054C3.20621 10.4671 3.04449 9.32808 3.12886 7.07105L3.17808 5.6648L3.65621 5.54527C4.72496 5.28512 5.97652 4.66637 6.82027 3.99137L7.27027 3.62574L7.91011 4.10387C8.25464 4.36402 8.85933 4.73668 9.24605 4.91949Z" fill="#F1F4FC"/>
<path d="M8.86621 6.24136C8.78184 6.31168 8.29668 7.09918 7.7834 7.99215L6.84824 9.6234L6.24355 9.03277C5.56855 8.37887 5.39277 8.31558 5.09746 8.61793C4.79512 8.91324 4.8584 9.03277 5.81465 10.0031C6.58105 10.7765 6.73574 10.9031 6.92559 10.9031C7.06621 10.9031 7.19981 10.8468 7.29121 10.7414C7.55137 10.4461 9.63262 6.76168 9.63262 6.5859C9.63262 6.39605 9.33731 6.12183 9.14043 6.12183C9.07012 6.12183 8.95059 6.17808 8.86621 6.24136Z" fill="#F1F4FC"/>
<path d="M5.34368 19.6007C4.99915 19.7273 4.89368 20.0789 5.10462 20.3812L5.21009 20.5359H8.71165C11.9601 20.5359 12.2202 20.5289 12.3187 20.4093C12.5648 20.1211 12.5085 19.7765 12.1851 19.6289C12.0093 19.5515 5.56165 19.5234 5.34368 19.6007Z" fill="#F1F4FC"/>
<path d="M5.34375 22.4836C5.13281 22.5609 4.99219 22.7437 4.99219 22.9266C4.99219 23.032 5.04844 23.1867 5.11875 23.2711C5.23828 23.4187 5.23828 23.4187 8.74688 23.4047L12.2555 23.3836L12.3961 23.1937C12.5156 23.032 12.5227 22.9758 12.4523 22.793C12.3961 22.6664 12.2836 22.5539 12.15 22.5117C11.925 22.4344 5.54766 22.4062 5.34375 22.4836Z" fill="#F1F4FC"/>
<path d="M17.2056 23.6155C17.0369 23.7984 17.058 24.1429 17.2338 24.3046C17.3744 24.4312 17.5361 24.4382 19.8845 24.4593C22.5845 24.4804 22.7463 24.4593 22.8306 24.1288C22.8939 23.8968 22.8658 23.7702 22.7322 23.6085C22.6267 23.496 22.4017 23.489 19.9689 23.489C17.4939 23.489 17.3111 23.496 17.2056 23.6155Z" fill="#F1F4FC"/>
<path d="M17.332 25.5422C17.1352 25.6547 17.0859 25.7391 17.0859 25.9992C17.0859 26.4422 17.1 26.4422 20.0109 26.4422C22.8305 26.4422 22.7391 26.4563 22.8727 26.0695C22.9359 25.8938 22.7461 25.5563 22.5562 25.5C22.2469 25.4227 17.4797 25.4578 17.332 25.5422Z" fill="#F1F4FC"/>
</svg>
