<svg width="42" height="42" viewBox="0 0 42 42" fill="none" xmlns="http://www.w3.org/2000/svg">
<g clip-path="url(#clip0_1024_1450)">
<path d="M14.1913 0.549599C13.8877 0.66444 13.5842 0.95155 13.4448 1.26327C13.3053 1.56678 13.2889 1.82928 13.2889 3.83905C13.2889 6.27538 13.3135 6.43124 13.7483 6.84139C13.8795 6.96444 14.1502 7.10389 14.3471 7.15311L14.7081 7.24335L14.6588 7.71093C14.6014 8.39999 14.3471 8.80194 13.3299 9.84374C11.7549 11.4515 11.7303 11.5418 11.7303 14.8969C11.7303 17.0871 11.7467 17.4316 11.8862 17.8664L12.0338 18.3586L11.5006 18.4898C11.2053 18.5637 10.7952 18.7195 10.5901 18.8426C10.1389 19.1051 7.34985 21.8285 6.84946 22.5012C6.22603 23.3215 6.13579 23.6742 6.07837 25.5117C6.02915 27.0703 6.02095 27.1195 5.79126 27.5379C5.66001 27.7758 5.47134 28.0465 5.3729 28.1367L5.18423 28.3172L4.93813 28.1367C4.61001 27.8906 4.04399 27.8332 3.67485 28.0055C3.51899 28.0793 2.64946 28.8914 1.73892 29.8019C0.352588 31.2047 0.0900875 31.5082 0.0408687 31.7707C-0.073975 32.3777 0.0408687 32.632 0.820166 33.4195C1.41899 34.0265 1.58306 34.1496 1.79634 34.1496C2.14907 34.1496 2.37876 33.9199 2.37876 33.559C2.37876 33.3047 2.29673 33.1898 1.78813 32.673L1.18931 32.0742L2.69048 30.573L4.18345 29.0801L8.30142 33.2062L12.4276 37.3242L10.9346 38.8172L9.43345 40.3183L6.61978 37.5047C4.15884 35.0519 3.78149 34.6992 3.56001 34.6992C3.24009 34.6992 2.95298 34.9945 2.95298 35.3226C2.95298 35.5277 3.35493 35.9625 5.84868 38.448C7.43188 40.0312 8.81821 41.3683 8.91665 41.4176C9.16274 41.5406 9.72876 41.5324 9.99126 41.393C10.1143 41.3273 10.9592 40.5234 11.8698 39.6047C13.2725 38.1855 13.5268 37.8902 13.576 37.6277C13.6499 37.234 13.5842 36.8812 13.3709 36.5859L13.2069 36.3562L13.5842 36.0117C14.0518 35.5851 14.4702 35.3965 15.2331 35.2816C16.4717 35.093 16.603 35.0027 18.3749 33.2637C19.4905 32.1562 20.0975 31.6148 20.3928 31.4672C20.8686 31.2375 21.3608 30.7125 21.492 30.3023C21.5741 30.0562 21.6069 30.0398 21.7874 30.1055C22.0909 30.2285 22.9358 30.2039 23.2475 30.0726C23.6659 29.9004 24.2073 29.3672 24.3877 28.957C24.5108 28.6863 24.56 28.3418 24.5928 27.6281L24.6338 26.6765L24.8307 26.7504C25.1342 26.8652 25.7659 26.8406 26.1924 26.693C26.7092 26.5207 27.267 25.9137 27.4311 25.3394C27.5377 24.9949 27.5624 24.4699 27.5624 22.6898V20.475L28.5713 21.4758C29.4819 22.3699 29.6131 22.4765 29.8756 22.4765C30.2284 22.4765 30.4581 22.2469 30.4581 21.8941C30.4581 21.689 30.3186 21.5004 29.6049 20.7867C28.801 19.9746 28.76 19.9172 28.9077 19.8105C29.2686 19.5398 30.1135 19.5644 30.6795 19.8515C31.1143 20.0812 34.3299 23.3543 34.5022 23.748C34.617 24.0023 34.6581 24.4289 34.6991 25.6758C34.7647 27.6199 34.8877 28.0301 35.6752 28.8996L35.9624 29.2113L32.8124 32.3613L29.6624 35.5113L29.2276 35.1012C28.6698 34.5762 27.9233 34.2234 27.0374 34.084C26.66 34.0183 26.217 33.9117 26.0694 33.8297C25.9217 33.7558 25.2409 33.1488 24.56 32.4762C23.428 31.3523 23.3049 31.2539 23.026 31.2539C22.6897 31.2539 22.3944 31.5492 22.3944 31.8855C22.3944 32.107 23.469 33.2637 24.5928 34.2562C25.3475 34.9207 25.8069 35.134 26.7667 35.2816C27.5295 35.3965 27.9479 35.5851 28.4155 36.0117L28.7928 36.3562L28.6288 36.5859C28.4155 36.8812 28.3499 37.234 28.4237 37.6277C28.4729 37.8902 28.7272 38.1855 30.1299 39.6047C31.0405 40.5234 31.8854 41.3273 32.0084 41.393C32.2956 41.5406 32.837 41.5406 33.1241 41.393C33.2471 41.3273 35.2733 39.3422 37.6276 36.9797C42.2706 32.3285 42.1065 32.5254 41.9588 31.7707C41.9096 31.5082 41.6471 31.2047 40.2608 29.8019C39.3502 28.8914 38.4807 28.0793 38.3249 28.0055C37.9557 27.8332 37.3897 27.8906 37.0616 28.1367L36.8155 28.3172L36.6268 28.1367C36.5284 28.0465 36.3397 27.7758 36.2085 27.5379C36.0116 27.1769 35.9706 26.9965 35.9459 26.3484L35.9131 25.5855L36.1264 25.643C36.2905 25.684 36.3889 25.643 36.5858 25.4461C36.8729 25.1508 36.8975 24.9539 36.6596 24.6586C36.5366 24.5027 36.4135 24.4453 36.2085 24.4453C35.9706 24.4453 35.9295 24.4125 35.8885 24.2156C35.7737 23.6414 35.585 23.1328 35.3471 22.7637C35.2077 22.534 34.3299 21.5906 33.403 20.6637C31.5491 18.818 31.2538 18.6047 30.2448 18.4324C29.5885 18.3258 28.8913 18.4324 28.2432 18.7523C27.8987 18.9164 27.7756 18.941 27.6854 18.8672C27.587 18.7851 27.5624 18.1043 27.5459 14.864C27.5131 10.2867 27.5459 10.5246 26.6436 9.30233C26.2499 8.77733 26.0858 8.30155 26.0858 7.70272C26.0858 7.24335 26.094 7.21874 26.3155 7.16952C26.7092 7.07928 27.0702 6.80038 27.2424 6.47225C27.3983 6.16053 27.4065 6.01288 27.3819 3.73241C27.3573 1.45194 27.3491 1.31249 27.185 1.09921C27.0948 0.976158 26.9143 0.795692 26.7913 0.705456C26.5698 0.533192 26.4877 0.533192 20.442 0.516785C17.0706 0.508583 14.2569 0.524986 14.1913 0.549599ZM26.1514 3.83085L26.1268 5.94725L22.9768 5.97186C19.8678 5.98827 19.8186 5.99647 19.6299 6.16874C19.3182 6.45585 19.392 6.89882 19.7776 7.09569C19.9663 7.19413 20.4667 7.21874 22.419 7.21874H24.8389L24.8717 7.93241C24.9127 8.76093 25.1342 9.33514 25.6838 10.0734C26.3401 10.9348 26.2909 10.3113 26.3155 17.9648C26.3319 23.0262 26.3155 24.8719 26.2417 25.0441C26.012 25.5937 25.3229 25.7742 24.8799 25.3969L24.6502 25.2L24.6092 21.4265C24.5682 17.8664 24.56 17.6449 24.4124 17.4808C24.2237 17.2676 23.7479 17.2512 23.5264 17.448C23.387 17.5711 23.3788 17.85 23.3788 22.7965C23.3788 26.1187 23.3459 28.1203 23.2967 28.3172C23.1245 28.9324 22.4026 29.1703 21.9268 28.7601L21.6971 28.5633L21.6561 23.1L21.6151 17.6449L21.4346 17.4644C21.1967 17.2265 20.803 17.2265 20.5651 17.4644L20.3846 17.6449L20.3682 23.6086C20.3682 26.8898 20.3518 29.6543 20.3518 29.7609C20.3436 29.8676 20.237 30.0644 20.1057 30.1957C19.8268 30.4746 19.351 30.5238 19.0393 30.3023C18.6127 29.9988 18.6209 30.0726 18.6209 23.6004C18.6209 17.973 18.6127 17.5711 18.4815 17.448C18.2108 17.2101 17.9237 17.1937 17.6694 17.4152L17.4315 17.6203L17.3905 23.0918L17.3495 28.5633L17.1198 28.7601C16.7834 29.0473 16.3241 29.0308 15.9795 28.7191L15.7088 28.4812L15.6842 22.4683L15.6678 16.4555L15.4874 16.2668C15.2495 16.0125 14.8967 16.0207 14.6424 16.2832C14.4456 16.4719 14.4374 16.5211 14.4374 17.6285C14.4374 18.3176 14.4045 18.7933 14.3553 18.8262C14.1338 18.9656 13.3874 18.2848 13.1331 17.7187C12.9772 17.3742 12.9608 17.1855 12.9608 14.8887C12.9608 11.8535 12.9034 12.034 14.3389 10.5574C14.8803 10.0078 15.3889 9.40897 15.4792 9.2285C15.7334 8.74452 15.9139 8.05546 15.9139 7.62069V7.23515L16.6604 7.20233C17.3577 7.17772 17.4151 7.16132 17.6038 6.94804C17.8417 6.66913 17.8499 6.48866 17.6284 6.20975L17.4643 5.98827L16.0124 5.97186L14.5604 5.94725L14.5358 3.83085L14.5194 1.72264H20.3436H26.1678L26.1514 3.83085ZM13.0674 19.7777L13.2971 19.8844L12.4194 20.7621C11.6811 21.5004 11.5417 21.689 11.5417 21.8941C11.5417 22.2469 11.7713 22.4765 12.1241 22.4765C12.3866 22.4765 12.5178 22.3699 13.4202 21.4758L14.4292 20.4832L14.4538 24.5765L14.4784 28.6699L14.7163 29.1047C15.1428 29.8676 15.7909 30.2285 16.6522 30.1711C16.9475 30.1465 17.2428 30.1055 17.3167 30.0726C17.4151 30.0316 17.4807 30.0973 17.5874 30.3844C17.6694 30.5976 17.8827 30.893 18.1042 31.0898L18.4733 31.4344L17.3823 32.5418C16.7752 33.1488 16.1436 33.7148 15.9713 33.8051C15.7991 33.8953 15.3397 34.0183 14.9624 34.084C14.0764 34.2234 13.3299 34.5762 12.7721 35.1012L12.3374 35.5113L9.18735 32.3613L6.03735 29.2113L6.32446 28.8996C7.11196 28.0301 7.23501 27.6199 7.30063 25.6758C7.34165 24.4289 7.38267 24.0023 7.49751 23.748C7.58774 23.5348 8.21939 22.8375 9.33501 21.7137C11.3366 19.6957 11.5088 19.5808 12.3866 19.6383C12.6327 19.6547 12.9444 19.7203 13.0674 19.7777ZM39.3338 30.5976L40.8104 32.0742L36.6842 36.2004L32.5663 40.3183L31.0733 38.8172L29.5721 37.3242L33.6737 33.2226C35.9295 30.9668 37.7917 29.1211 37.8163 29.1211C37.8409 29.1211 38.5217 29.7855 39.3338 30.5976Z" fill="url(#paint0_linear_1024_1450)"/>
<path d="M16.1191 3.40429C15.75 3.76523 15.914 4.36406 16.4062 4.4707C16.841 4.56914 17.2922 4.13437 17.1937 3.72421C17.0625 3.20742 16.4801 3.03515 16.1191 3.40429Z" fill="url(#paint1_linear_1024_1450)"/>
<path d="M37.6276 31.3523C37.4307 31.5082 37.3158 31.8773 37.3979 32.0988C37.5045 32.3777 37.7178 32.5172 38.0377 32.5172C38.3987 32.5172 38.6365 32.2547 38.6365 31.8773C38.6365 31.3852 38.0131 31.0652 37.6276 31.3523Z" fill="url(#paint2_linear_1024_1450)"/>
<path d="M12.239 7.1039C12.0093 7.25976 11.9847 7.78476 12.2062 7.98163C12.6328 8.36718 13.207 8.12108 13.207 7.54687C13.207 7.18593 12.9937 6.97265 12.6328 6.97265C12.5179 6.97265 12.3375 7.03007 12.239 7.1039Z" fill="url(#paint3_linear_1024_1450)"/>
<path d="M27.6118 7.14492C27.1852 7.48125 27.4231 8.20312 27.9645 8.20312C28.547 8.20312 28.7931 7.54687 28.3501 7.16133C28.0794 6.93164 27.8907 6.92344 27.6118 7.14492Z" fill="url(#paint4_linear_1024_1450)"/>
<path d="M10.1309 8.49023C10.016 8.59688 9.92578 8.78555 9.92578 8.90039C9.92578 9.17109 10.2703 9.51562 10.541 9.51562C10.8281 9.51562 11.1562 9.17109 11.1562 8.87578C11.1562 8.58047 10.8527 8.28516 10.5492 8.28516C10.4262 8.28516 10.2457 8.36719 10.1309 8.49023Z" fill="url(#paint5_linear_1024_1450)"/>
<path d="M29.8838 8.44921C29.5064 8.60507 29.4162 9.13007 29.7197 9.41718C29.9904 9.67148 30.376 9.65507 30.5892 9.38437C30.8681 9.03164 30.7861 8.6789 30.376 8.46562C30.1709 8.35078 30.1299 8.35078 29.8838 8.44921Z" fill="url(#paint6_linear_1024_1450)"/>
<path d="M8.24393 10.0898C8.01424 10.3441 8.04706 10.7379 8.32596 10.9676C8.57206 11.1891 8.85917 11.1726 9.12987 10.9348C9.31854 10.7543 9.31034 10.2949 9.10526 10.0898C8.89198 9.87656 8.44081 9.87656 8.24393 10.0898Z" fill="url(#paint7_linear_1024_1450)"/>
<path d="M31.7789 10.1801C31.5984 10.2703 31.418 10.5738 31.418 10.7789C31.418 10.8363 31.4918 10.984 31.5902 11.107C31.9266 11.5336 32.6484 11.2957 32.6484 10.7543C32.6484 10.3031 32.1645 9.9914 31.7789 10.1801Z" fill="url(#paint8_linear_1024_1450)"/>
<path d="M6.66102 12.0012C6.18524 12.5098 6.75126 13.248 7.37469 12.9281C7.76024 12.723 7.83407 12.2801 7.52235 11.993C7.26805 11.7551 6.89071 11.7551 6.66102 12.0012Z" fill="url(#paint9_linear_1024_1450)"/>
<path d="M33.2391 12.3293C33.1406 12.4359 33.0586 12.6246 33.0586 12.7477C33.0586 13.0266 33.3949 13.3711 33.6738 13.3711C33.9445 13.3711 34.2891 13.0348 34.2891 12.7723C34.2891 12.2227 33.6082 11.9355 33.2391 12.3293Z" fill="url(#paint10_linear_1024_1450)"/>
<path d="M5.52891 13.9617C5.34844 14.0437 5.16797 14.3473 5.16797 14.5523C5.16797 14.6098 5.2418 14.7574 5.34023 14.8805C5.55352 15.1512 5.98828 15.1758 6.23438 14.9297C6.48047 14.6836 6.45586 14.2488 6.18516 14.0355C5.94727 13.8469 5.79141 13.8305 5.52891 13.9617Z" fill="url(#paint11_linear_1024_1450)"/>
<path d="M34.5513 14.5195C34.3052 14.7492 34.3052 15.1922 34.5513 15.4219C35.0188 15.8566 35.7243 15.3809 35.511 14.7738C35.3552 14.3391 34.8794 14.216 34.5513 14.5195Z" fill="url(#paint12_linear_1024_1450)"/>
<path d="M4.44604 16.3488C3.97847 16.8492 4.48706 17.5875 5.1269 17.3414C5.19253 17.3086 5.31558 17.1773 5.3812 17.0461C5.70112 16.4309 4.91362 15.8484 4.44604 16.3488Z" fill="url(#paint13_linear_1024_1450)"/>
<path d="M35.6836 16.7918C35.2652 16.9477 35.1258 17.4891 35.4375 17.8008C35.6426 18.0059 36.102 18.0141 36.2824 17.8172C36.3481 17.7434 36.4383 17.5793 36.4629 17.4562C36.5121 17.2758 36.4711 17.1855 36.2742 16.9805C36.0281 16.7344 35.9215 16.7016 35.6836 16.7918Z" fill="url(#paint14_linear_1024_1450)"/>
<path d="M3.96217 18.6375C3.71608 18.7605 3.58483 19.1133 3.68326 19.384C3.7817 19.6301 4.00319 19.7695 4.2985 19.7695C4.81529 19.7695 5.03678 19.0395 4.62662 18.7113C4.38873 18.5227 4.23287 18.5062 3.96217 18.6375Z" fill="url(#paint15_linear_1024_1450)"/>
<path d="M35.9707 19.4824C35.8559 19.5891 35.7656 19.7777 35.7656 19.8926C35.7656 20.0074 35.8559 20.1961 35.9707 20.3027C36.0773 20.4176 36.266 20.5078 36.3809 20.5078C36.4957 20.5078 36.6844 20.4176 36.791 20.3027C36.9059 20.1961 36.9961 20.0074 36.9961 19.8926C36.9961 19.7777 36.9059 19.5891 36.791 19.4824C36.6844 19.3676 36.4957 19.2773 36.3809 19.2773C36.266 19.2773 36.0773 19.3676 35.9707 19.4824Z" fill="url(#paint16_linear_1024_1450)"/>
<path d="M3.65839 21.1723C3.24824 21.5004 3.46972 22.2305 3.98652 22.2305C4.4623 22.2305 4.74121 21.8613 4.58535 21.4266C4.51152 21.1969 4.22441 21 3.98652 21C3.9291 21 3.78144 21.0738 3.65839 21.1723Z" fill="url(#paint17_linear_1024_1450)"/>
<path d="M36.2906 21.9023C36.0773 21.9844 35.8477 22.2961 35.8477 22.4848C35.8477 22.5586 35.9215 22.7144 36.0199 22.8375C36.3562 23.2641 37.0781 23.0262 37.0781 22.4848C37.0781 22.0582 36.6598 21.7547 36.2906 21.9023Z" fill="url(#paint18_linear_1024_1450)"/>
<path d="M3.88014 23.5594C3.63404 23.6824 3.50279 24.0352 3.60123 24.3059C3.69967 24.552 3.92115 24.6914 4.21647 24.6914C4.73326 24.6914 4.95475 23.9613 4.54459 23.6332C4.3067 23.4445 4.15084 23.4281 3.88014 23.5594Z" fill="url(#paint19_linear_1024_1450)"/>
<path d="M4.26539 26.0859C4.0193 26.332 4.04391 26.7668 4.31461 26.9801C4.60992 27.218 4.8068 27.1934 5.10211 26.9063C5.29899 26.7012 5.34 26.6109 5.29078 26.4305C5.26617 26.3074 5.17594 26.1434 5.11031 26.0613C4.92985 25.8727 4.47047 25.8809 4.26539 26.0859Z" fill="url(#paint20_linear_1024_1450)"/>
<path d="M26.3484 36.3644C26.0941 36.6352 26.1105 37.0207 26.3812 37.234C26.7421 37.5129 27.0867 37.4473 27.2835 37.0617C27.6035 36.4465 26.816 35.8641 26.3484 36.3644Z" fill="url(#paint21_linear_1024_1450)"/>
<path d="M14.3552 36.75C14.1091 36.9961 14.1338 37.4309 14.4045 37.6441C14.6834 37.8656 14.872 37.8574 15.1427 37.6277C15.5857 37.2422 15.3396 36.5859 14.7572 36.5859C14.6259 36.5859 14.4455 36.6598 14.3552 36.75Z" fill="url(#paint22_linear_1024_1450)"/>
<path d="M9.30234 36.9305C9.10547 37.0207 8.94141 37.3242 8.94141 37.5785C8.94141 37.8328 9.30234 38.1445 9.59766 38.1445C9.89297 38.1445 10.2539 37.8328 10.2539 37.5785C10.2539 37.3078 10.0816 37.0207 9.86836 36.9223C9.63047 36.8156 9.53203 36.8156 9.30234 36.9305Z" fill="url(#paint23_linear_1024_1450)"/>
<path d="M24.0925 37.0863C23.7151 37.3078 23.7562 37.9477 24.1663 38.1363C24.4534 38.2676 24.5601 38.2512 24.8062 38.0543C25.2245 37.7262 24.9948 36.9961 24.4698 36.9961C24.3386 36.9961 24.1745 37.0371 24.0925 37.0863Z" fill="url(#paint24_linear_1024_1450)"/>
<path d="M16.7504 37.3816C16.652 37.4637 16.5535 37.6277 16.5207 37.7508C16.4797 37.9312 16.5207 38.0215 16.7176 38.2266C17.0129 38.5137 17.2098 38.5383 17.5051 38.3004C17.9317 37.9641 17.6938 37.2422 17.1524 37.2422C17.0211 37.2422 16.8407 37.3078 16.7504 37.3816Z" fill="url(#paint25_linear_1024_1450)"/>
<path d="M21.7626 37.4883C21.1719 37.7344 21.3934 38.6367 22.0415 38.6367C22.3368 38.6367 22.6403 38.325 22.6403 38.0215C22.6403 37.6195 22.1563 37.3242 21.7626 37.4883Z" fill="url(#paint26_linear_1024_1450)"/>
<path d="M19.3016 37.5703C18.7273 37.8 18.9324 38.7187 19.5559 38.7187C20.1137 38.7187 20.368 38.0789 19.9742 37.6934C19.7691 37.4801 19.6051 37.4473 19.3016 37.5703Z" fill="url(#paint27_linear_1024_1450)"/>
</g>
<defs>
<linearGradient id="paint0_linear_1024_1450" x1="21.0075" y1="41.5041" x2="21.0075" y2="0.514648" gradientUnits="userSpaceOnUse">
<stop offset="0.259609" stop-color="#023B8B"/>
<stop offset="0.70661" stop-color="#012558"/>
</linearGradient>
<linearGradient id="paint1_linear_1024_1450" x1="16.5627" y1="4.4848" x2="16.5627" y2="3.2069" gradientUnits="userSpaceOnUse">
<stop offset="0.259609" stop-color="#023B8B"/>
<stop offset="0.70661" stop-color="#012558"/>
</linearGradient>
<linearGradient id="paint2_linear_1024_1450" x1="38.0038" y1="32.5172" x2="38.0038" y2="31.2439" gradientUnits="userSpaceOnUse">
<stop offset="0.259609" stop-color="#023B8B"/>
<stop offset="0.70661" stop-color="#012558"/>
</linearGradient>
<linearGradient id="paint3_linear_1024_1450" x1="12.6299" y1="8.16788" x2="12.6299" y2="6.97265" gradientUnits="userSpaceOnUse">
<stop offset="0.259609" stop-color="#023B8B"/>
<stop offset="0.70661" stop-color="#012558"/>
</linearGradient>
<linearGradient id="paint4_linear_1024_1450" x1="27.9848" y1="8.20312" x2="27.9848" y2="6.98381" gradientUnits="userSpaceOnUse">
<stop offset="0.259609" stop-color="#023B8B"/>
<stop offset="0.70661" stop-color="#012558"/>
</linearGradient>
<linearGradient id="paint5_linear_1024_1450" x1="10.541" y1="9.51562" x2="10.541" y2="8.28516" gradientUnits="userSpaceOnUse">
<stop offset="0.259609" stop-color="#023B8B"/>
<stop offset="0.70661" stop-color="#012558"/>
</linearGradient>
<linearGradient id="paint6_linear_1024_1450" x1="30.1452" y1="9.59808" x2="30.1452" y2="8.37732" gradientUnits="userSpaceOnUse">
<stop offset="0.259609" stop-color="#023B8B"/>
<stop offset="0.70661" stop-color="#012558"/>
</linearGradient>
<linearGradient id="paint7_linear_1024_1450" x1="8.67864" y1="11.1239" x2="8.67864" y2="9.92988" gradientUnits="userSpaceOnUse">
<stop offset="0.259609" stop-color="#023B8B"/>
<stop offset="0.70661" stop-color="#012558"/>
</linearGradient>
<linearGradient id="paint8_linear_1024_1450" x1="32.0332" y1="11.3262" x2="32.0332" y2="10.124" gradientUnits="userSpaceOnUse">
<stop offset="0.259609" stop-color="#023B8B"/>
<stop offset="0.70661" stop-color="#012558"/>
</linearGradient>
<linearGradient id="paint9_linear_1024_1450" x1="7.10022" y1="13.0059" x2="7.10022" y2="11.8156" gradientUnits="userSpaceOnUse">
<stop offset="0.259609" stop-color="#023B8B"/>
<stop offset="0.70661" stop-color="#012558"/>
</linearGradient>
<linearGradient id="paint10_linear_1024_1450" x1="33.6738" y1="13.3711" x2="33.6738" y2="12.1467" gradientUnits="userSpaceOnUse">
<stop offset="0.259609" stop-color="#023B8B"/>
<stop offset="0.70661" stop-color="#012558"/>
</linearGradient>
<linearGradient id="paint11_linear_1024_1450" x1="5.78626" y1="15.0999" x2="5.78626" y2="13.8763" gradientUnits="userSpaceOnUse">
<stop offset="0.259609" stop-color="#023B8B"/>
<stop offset="0.70661" stop-color="#012558"/>
</linearGradient>
<linearGradient id="paint12_linear_1024_1450" x1="34.9585" y1="15.5902" x2="34.9585" y2="14.352" gradientUnits="userSpaceOnUse">
<stop offset="0.259609" stop-color="#023B8B"/>
<stop offset="0.70661" stop-color="#012558"/>
</linearGradient>
<linearGradient id="paint13_linear_1024_1450" x1="4.85986" y1="17.3903" x2="4.85986" y2="16.1596" gradientUnits="userSpaceOnUse">
<stop offset="0.259609" stop-color="#023B8B"/>
<stop offset="0.70661" stop-color="#012558"/>
</linearGradient>
<linearGradient id="paint14_linear_1024_1450" x1="35.875" y1="17.9599" x2="35.875" y2="16.7459" gradientUnits="userSpaceOnUse">
<stop offset="0.259609" stop-color="#023B8B"/>
<stop offset="0.70661" stop-color="#012558"/>
</linearGradient>
<linearGradient id="paint15_linear_1024_1450" x1="4.24505" y1="19.7695" x2="4.24505" y2="18.552" gradientUnits="userSpaceOnUse">
<stop offset="0.259609" stop-color="#023B8B"/>
<stop offset="0.70661" stop-color="#012558"/>
</linearGradient>
<linearGradient id="paint16_linear_1024_1450" x1="36.3809" y1="20.5078" x2="36.3809" y2="19.2773" gradientUnits="userSpaceOnUse">
<stop offset="0.259609" stop-color="#023B8B"/>
<stop offset="0.70661" stop-color="#012558"/>
</linearGradient>
<linearGradient id="paint17_linear_1024_1450" x1="4.03702" y1="22.2305" x2="4.03702" y2="21" gradientUnits="userSpaceOnUse">
<stop offset="0.259609" stop-color="#023B8B"/>
<stop offset="0.70661" stop-color="#012558"/>
</linearGradient>
<linearGradient id="paint18_linear_1024_1450" x1="36.4629" y1="23.0567" x2="36.4629" y2="21.8645" gradientUnits="userSpaceOnUse">
<stop offset="0.259609" stop-color="#023B8B"/>
<stop offset="0.70661" stop-color="#012558"/>
</linearGradient>
<linearGradient id="paint19_linear_1024_1450" x1="4.16302" y1="24.6914" x2="4.16302" y2="23.4739" gradientUnits="userSpaceOnUse">
<stop offset="0.259609" stop-color="#023B8B"/>
<stop offset="0.70661" stop-color="#012558"/>
</linearGradient>
<linearGradient id="paint20_linear_1024_1450" x1="4.70248" y1="27.1418" x2="4.70248" y2="25.9257" gradientUnits="userSpaceOnUse">
<stop offset="0.259609" stop-color="#023B8B"/>
<stop offset="0.70661" stop-color="#012558"/>
</linearGradient>
<linearGradient id="paint21_linear_1024_1450" x1="26.7627" y1="37.405" x2="26.7627" y2="36.1752" gradientUnits="userSpaceOnUse">
<stop offset="0.259609" stop-color="#023B8B"/>
<stop offset="0.70661" stop-color="#012558"/>
</linearGradient>
<linearGradient id="paint22_linear_1024_1450" x1="14.7774" y1="37.8053" x2="14.7774" y2="36.5859" gradientUnits="userSpaceOnUse">
<stop offset="0.259609" stop-color="#023B8B"/>
<stop offset="0.70661" stop-color="#012558"/>
</linearGradient>
<linearGradient id="paint23_linear_1024_1450" x1="9.59766" y1="38.1445" x2="9.59766" y2="36.8433" gradientUnits="userSpaceOnUse">
<stop offset="0.259609" stop-color="#023B8B"/>
<stop offset="0.70661" stop-color="#012558"/>
</linearGradient>
<linearGradient id="paint24_linear_1024_1450" x1="24.4275" y1="38.2211" x2="24.4275" y2="36.9961" gradientUnits="userSpaceOnUse">
<stop offset="0.259609" stop-color="#023B8B"/>
<stop offset="0.70661" stop-color="#012558"/>
</linearGradient>
<linearGradient id="paint25_linear_1024_1450" x1="17.1153" y1="38.4621" x2="17.1153" y2="37.2422" gradientUnits="userSpaceOnUse">
<stop offset="0.259609" stop-color="#023B8B"/>
<stop offset="0.70661" stop-color="#012558"/>
</linearGradient>
<linearGradient id="paint26_linear_1024_1450" x1="22.0296" y1="38.6367" x2="22.0296" y2="37.4421" gradientUnits="userSpaceOnUse">
<stop offset="0.259609" stop-color="#023B8B"/>
<stop offset="0.70661" stop-color="#012558"/>
</linearGradient>
<linearGradient id="paint27_linear_1024_1450" x1="19.564" y1="38.7187" x2="19.564" y2="37.4989" gradientUnits="userSpaceOnUse">
<stop offset="0.259609" stop-color="#023B8B"/>
<stop offset="0.70661" stop-color="#012558"/>
</linearGradient>
<clipPath id="clip0_1024_1450">
<rect width="42" height="42" fill="white"/>
</clipPath>
</defs>
</svg>
