<svg width="42" height="42" viewBox="0 0 42 42" fill="none" xmlns="http://www.w3.org/2000/svg">
<path d="M20.6432 0.086132C20.3807 0.233791 20.2576 0.684963 20.2576 1.43145V2.12871H19.9377C18.6334 2.12871 15.7951 2.75215 14.1381 3.4002C7.40332 6.0416 2.70293 12.3662 2.16152 19.5029L2.1041 20.2576H1.39863C0.890039 20.2576 0.611133 20.2986 0.406055 20.4053C-0.135352 20.676 -0.135352 21.3158 0.406055 21.5865C0.611133 21.6932 0.890039 21.7342 1.39863 21.7342H2.1041L2.16152 22.4889C2.85879 31.6682 10.3318 39.1248 19.5522 39.8303L20.2576 39.8877V40.5932C20.2576 41.1018 20.2986 41.3807 20.4053 41.5857C20.676 42.1271 21.3158 42.1271 21.5865 41.5857C21.6932 41.3807 21.7342 41.1018 21.7342 40.5932V39.8959L22.7678 39.7975C31.5779 38.9689 38.608 32.1357 39.7318 23.3092C39.8057 22.7514 39.8631 22.1689 39.8631 22.0131V21.7342H40.585C41.4135 21.7342 41.8236 21.5783 41.9467 21.2256C42.0615 20.8893 41.9221 20.5693 41.5858 20.4053C41.3807 20.2986 41.1018 20.2576 40.585 20.2576H39.8631V19.9787C39.8631 19.8228 39.8057 19.2404 39.7318 18.6826C39.0264 13.1373 36.0404 8.33027 31.3729 5.22949C28.7561 3.49043 25.5732 2.39121 22.4643 2.16152L21.7342 2.1041V1.41504C21.7342 0.668556 21.6029 0.225586 21.3404 0.086132C21.1272 -0.0287094 20.8318 -0.0287094 20.6432 0.086132ZM20.2576 4.2123V4.90137L19.626 4.95879C11.915 5.66426 5.81191 11.6525 4.9916 19.3307L4.89317 20.2576H4.1959H3.49863L3.55606 19.5439C4.16309 12.1201 9.55254 5.81191 16.8123 4.02363C17.8377 3.76934 19.2568 3.54785 19.9131 3.53144L20.2576 3.52324V4.2123ZM23.99 3.76934C27.501 4.36816 30.7822 6.08261 33.3416 8.6502C36.3275 11.6361 38.0584 15.3768 38.4357 19.6178L38.485 20.2576H37.7959H37.0986L37.0002 19.3717C36.8115 17.6572 36.4342 16.1971 35.7943 14.7041C33.4975 9.32285 28.4854 5.62324 22.6611 4.9916L21.7342 4.89317V4.1959V3.49863L22.415 3.55605C22.7842 3.58887 23.4979 3.68731 23.99 3.76934ZM20.2576 6.64043C20.2576 7.37871 20.6596 7.80527 21.201 7.64941C21.5045 7.56738 21.7342 7.14082 21.7342 6.66504V6.32051L22.21 6.36972C23.1451 6.45176 24.5561 6.73066 25.4502 7.01777C26.6315 7.39511 28.4525 8.29746 29.4451 9.00293C30.3885 9.67559 31.8322 11.0455 32.5295 11.9314C34.1291 13.9822 35.1955 16.4924 35.5154 18.9451C35.5647 19.3307 35.6221 19.7818 35.6385 19.9459L35.6795 20.2576H35.3514C34.6131 20.2576 34.1865 20.6514 34.3424 21.201C34.4244 21.5045 34.851 21.7342 35.3268 21.7342H35.6713L35.6221 22.2018C35.5072 23.5061 34.933 25.9752 34.769 25.8768C34.7361 25.8521 34.0389 24.8924 33.2186 23.7521C32.4065 22.6037 31.6107 21.5537 31.4549 21.4143C30.8479 20.8811 29.8881 20.8646 29.2811 21.3814C29.1334 21.4963 28.5018 22.3248 27.8701 23.2271C27.2303 24.1213 26.6889 24.8514 26.6643 24.8432C26.6397 24.8432 25.6717 23.5143 24.5232 21.8818C23.3748 20.2576 22.2756 18.7893 22.0869 18.617L21.7342 18.3053V17.5588V16.8123H24.7283C27.985 16.8123 28.0998 16.7959 28.4443 16.3611C28.674 16.074 28.7479 15.6639 28.633 15.3193C28.5838 15.1717 28.2147 14.6549 27.8127 14.1791L27.0744 13.3096L27.8127 12.4236C28.633 11.4393 28.7889 11.0947 28.6412 10.5943C28.5182 10.1924 28.2311 9.92988 27.8291 9.83144C27.6568 9.79043 26.1967 9.75762 24.5889 9.75762C21.7424 9.75762 21.6522 9.74941 21.6522 9.60176C21.6522 9.38848 21.2748 9.10137 20.9877 9.10137C20.8647 9.10137 20.6514 9.1916 20.5283 9.29824L20.2986 9.49512L20.2576 13.9166L20.2166 18.3381L19.8885 18.6334C19.708 18.7975 18.617 20.2576 17.4686 21.89C16.3201 23.5143 15.3522 24.8432 15.3275 24.8432C15.3029 24.8514 14.7697 24.1295 14.1463 23.2436C13.5147 22.3658 12.883 21.5373 12.7354 21.4061C12.1283 20.8728 11.1522 20.8728 10.5369 21.4143C10.3811 21.5537 9.58535 22.6037 8.77324 23.7521C7.95293 24.8924 7.24746 25.8521 7.21465 25.8768C7.0752 25.9588 6.54199 23.867 6.43535 22.8416C6.41074 22.5709 6.36973 22.21 6.34512 22.0377L6.2959 21.7342H6.63223C7.37871 21.7342 7.80527 21.3404 7.64942 20.7908C7.55918 20.4873 7.14082 20.2576 6.65684 20.2576H6.31231L6.36152 19.7818C6.63223 17.1322 7.41973 14.9092 8.83887 12.7846C11.2014 9.26543 15.2127 6.84551 19.4373 6.40254C19.7736 6.36152 20.1018 6.32871 20.1592 6.32051C20.2248 6.31231 20.2576 6.42715 20.2576 6.64043ZM26.9022 11.2834C26.9022 11.308 26.6725 11.5951 26.4018 11.915C25.4256 13.0635 25.3928 13.4326 26.1967 14.4088C26.4674 14.7451 26.7627 15.1143 26.8447 15.2209L27.0006 15.4178H24.3674H21.7342V13.326V11.2342H24.3182C25.7373 11.2342 26.9022 11.2588 26.9022 11.2834ZM22.5791 21.5619L23.9572 23.4896L23.26 24.1869L22.5545 24.8924L22.1279 24.4658C21.89 24.2361 21.6111 24.0064 21.5127 23.9572C21.283 23.8424 20.7088 23.8424 20.4791 23.9572C20.3807 24.0064 19.8639 24.474 19.3389 24.999L18.3709 25.9588L17.7967 25.3846C17.485 25.0728 17.2225 24.7693 17.2225 24.7201C17.2225 24.6381 20.4381 20.0771 20.7334 19.7408C21.0041 19.4373 21.16 19.5932 22.5791 21.5619ZM4.91777 22.1361C4.91777 22.3658 4.9752 22.9646 5.04082 23.4732C5.5166 27.1072 7.43613 30.4951 10.4139 32.9889C13.0881 35.2365 16.1397 36.59 19.4619 36.992L20.2576 37.0904V37.7795V38.4685H20.0197C19.06 38.4685 16.7795 38.0174 15.426 37.5662C8.83887 35.3514 4.12207 29.3467 3.55606 22.4478L3.49863 21.7342H4.21231H4.91777V22.1361ZM38.4275 22.3658C38.1158 25.9424 36.8607 29.1006 34.6213 31.9471C33.965 32.792 32.4721 34.2439 31.5779 34.9084C28.8791 36.9346 25.7045 38.1486 22.415 38.4357L21.7342 38.4932V37.7959V37.0986L22.4971 37.0002C26.7135 36.4752 30.4459 34.6459 32.9807 31.865C35.2365 29.3877 36.59 26.1639 37.033 22.2018L37.0822 21.7342H37.7877H38.485L38.4275 22.3658ZM13.1209 24.2361C13.9412 25.3764 14.417 26.1228 14.3842 26.1885C14.2365 26.4428 10.7174 31.34 10.66 31.3728C10.5861 31.4221 9.75762 30.4869 9.13418 29.642C8.67481 29.0268 7.8709 27.665 7.8709 27.5092C7.8709 27.4271 11.0783 22.8744 11.3818 22.5299C11.6443 22.2264 11.7756 22.3494 13.1209 24.2361ZM32.2588 24.8103C33.2022 26.1146 34.0061 27.2713 34.0553 27.3697C34.1291 27.5092 34.0799 27.6486 33.8092 28.149C33.1611 29.3057 31.5041 31.4795 31.3318 31.3728C31.2744 31.34 27.7553 26.4346 27.6076 26.1803C27.5666 26.1146 27.9111 25.565 28.551 24.6627C30.208 22.333 30.1752 22.374 30.3721 22.4068C30.5033 22.4232 31.0365 23.1041 32.2588 24.8103ZM27.5584 28.5428L30.2736 32.3572L30.0029 32.5869C29.5354 32.9889 28.4443 33.6779 27.6486 34.0799C25.8932 34.9576 24.392 35.3842 22.1689 35.6385L21.7342 35.6877V35.335C21.7342 34.851 21.5045 34.4326 21.201 34.3424C20.6514 34.1865 20.2576 34.6131 20.2576 35.3514V35.6877L19.8311 35.6385C17.4522 35.3678 16.0412 34.9494 14.1053 33.9486C12.9979 33.3826 11.6854 32.4475 11.7756 32.2916C11.8248 32.2178 16.1889 26.0654 16.2955 25.926C16.3119 25.9014 16.6072 26.1639 16.96 26.5084C17.3045 26.8447 17.6818 27.1893 17.7967 27.2631C18.0264 27.4107 18.6252 27.4353 18.8877 27.3041C18.9861 27.2549 19.5029 26.7873 20.0279 26.2623L20.9959 25.3025L21.4225 25.7291C21.9557 26.2377 22.1197 26.3279 22.5545 26.3279C23.0221 26.3279 23.2354 26.1967 24.0311 25.3928C24.4084 24.999 24.7529 24.6955 24.7857 24.7037C24.8104 24.7201 26.0654 26.4428 27.5584 28.5428Z" fill="url(#paint0_linear_153_1033)"/>
<defs>
<linearGradient id="paint0_linear_153_1033" x1="20.9931" y1="41.9918" x2="20.9931" y2="0" gradientUnits="userSpaceOnUse">
<stop offset="0.259609" stop-color="#023B8B"/>
<stop offset="0.70661" stop-color="#012558"/>
</linearGradient>
</defs>
</svg>
