<svg width="42" height="42" viewBox="0 0 42 42" fill="none" xmlns="http://www.w3.org/2000/svg">
<g clip-path="url(#clip0_712_811)">
<path d="M18.9492 0.336338C13.8551 0.746494 8.99882 3.22384 5.69296 7.08751C3.21562 9.97501 1.64062 13.4285 1.09921 17.1856C0.918741 18.3914 0.902334 21.1641 1.05819 22.3125C1.77187 27.5297 4.25741 31.9758 8.27694 35.216C12.8789 38.932 19.0148 40.3512 24.8309 39.0551C27.2098 38.5219 29.8594 37.357 31.7461 36.0117L32.3449 35.5852L35.3883 38.6203C37.0617 40.2856 38.5137 41.6801 38.6121 41.7047C38.891 41.7949 39.1863 41.5899 40.0805 40.6711C40.9254 39.818 41.0976 39.5883 41.0976 39.3176C41.0976 39.2356 39.7934 37.8656 38.0871 36.1594C35.7656 33.8297 35.0848 33.116 35.1504 33.0258C35.1996 32.9602 35.4703 32.6238 35.7574 32.2793C37.6113 30.0481 39.1207 26.8899 39.7277 23.9942C40.0476 22.493 40.1461 21.5086 40.1461 19.8516C40.1379 16.7426 39.5144 14.052 38.1527 11.2793C37.1191 9.17931 35.9953 7.61251 34.3301 5.94728C31.6887 3.30587 28.1121 1.40274 24.3879 0.664463C22.5176 0.287121 20.8113 0.188683 18.9492 0.336338ZM21.607 1.44376C21.6973 1.47657 21.6152 1.62423 21.2297 2.0754C20.2781 3.21564 19.7613 4.71681 19.9336 5.84884C20.0402 6.56251 20.0894 6.71017 20.7129 7.96524C21.1969 8.94962 21.2625 9.13829 21.2707 9.58126C21.2789 9.97501 21.2461 10.1309 21.1148 10.3113C20.6555 10.9184 19.7859 11.0496 18.0879 10.7461C16.7508 10.5082 15.6598 10.541 15.0527 10.8281C14.1586 11.2629 13.609 12.1078 13.4367 13.2973C13.3547 13.8059 13.3711 14.1996 13.4777 15.3481C13.5844 16.3981 13.6008 16.8902 13.5434 17.202C13.2644 18.6703 12.4277 19.1789 11.1973 18.6293C11.0168 18.5473 10.4426 18.1699 9.92577 17.7844C8.24413 16.5375 8.03905 16.4801 5.43046 16.4637C3.54374 16.4473 3.46991 16.4391 2.99413 16.2422C2.41991 15.9961 2.42812 16.0453 2.76444 14.8477C4.95468 6.98087 12.1898 1.50118 20.5242 1.40274C21.0492 1.40274 21.5332 1.41915 21.607 1.44376ZM24.3879 1.8129C24.8473 1.90314 25.7086 2.14103 26.291 2.3297C28.5797 3.09259 30.3023 4.03595 32.2219 5.56993L32.9109 6.11134L32.8699 6.64454C32.8043 7.62892 32.5008 8.27696 31.3441 9.9422C30.6387 10.9594 30.4418 12.0996 30.8355 12.8953C31.1719 13.5926 31.9922 14.1586 33.116 14.4867C33.9281 14.7164 34.5762 15.0527 34.8059 15.3481C34.9207 15.5039 35.134 15.9387 35.2734 16.3242C35.4129 16.7016 35.6426 17.2266 35.782 17.4891C36.2906 18.4488 37.3816 19.425 38.5137 19.9418L39.0633 20.1879L39.0059 20.9426C38.8172 23.6004 38.2512 25.7168 37.1273 28.0137C36.3562 29.5723 35.5852 30.7535 34.4777 32.0578L34.248 32.3285L33.5672 31.6395L32.8781 30.9504L33.2144 30.2613C33.7969 29.0391 33.9199 28.4649 33.9117 26.8652C33.9117 25.5856 33.8953 25.4133 33.682 24.7324C33.1488 22.9852 32.0086 21.4348 30.5648 20.475C30.1137 20.1715 29.0965 19.6629 28.8012 19.5809C28.6453 19.5481 28.6453 19.5234 28.7684 19.1871C28.9652 18.6047 28.8832 17.4645 28.5961 16.8984C28.2762 16.2586 27.8824 15.8156 27.3082 15.4301C26.5699 14.9379 25.8398 14.741 24.9539 14.782C23.9531 14.8313 23.6168 15.0035 22.7309 15.9141C22.3371 16.316 21.9762 16.6524 21.9351 16.6606C20.3437 16.759 20.0156 16.8082 19.5562 17.0133C18.6211 17.4399 17.9484 18.4242 17.3414 20.2863C17.0953 21.0328 17.0379 21.3363 17.0297 21.9024C17.0215 22.534 17.0461 22.657 17.284 23.1328C17.4316 23.4363 17.809 23.9449 18.1371 24.3059L18.7277 24.9457L18.6211 25.6758C18.498 26.5617 18.5555 28.0465 18.7359 28.752C18.9492 29.5477 19.3512 30.4664 19.7367 31.057C19.9336 31.3606 20.0976 31.6313 20.0976 31.6723C20.0976 31.7871 19.3184 32.427 18.9902 32.5746C18.6211 32.7469 17.932 32.7715 17.4316 32.6402C16.7016 32.4516 15.4711 31.9594 14.9871 31.6641C14.3391 31.2785 14.0027 30.8027 13.8305 30.007C13.5762 28.875 13.3629 28.3828 12.8953 27.8742C12.1734 27.0949 11.9027 26.9719 8.32616 25.7414C5.20898 24.675 4.67577 24.5274 3.54374 24.4699L2.62499 24.4207L2.54296 24.1254C2.28866 23.1656 2.05077 21.1231 2.05077 19.8926C2.05077 19.1953 2.19843 17.3004 2.25585 17.243C2.27226 17.2266 2.53476 17.3004 2.84648 17.3988C3.35507 17.5711 3.56015 17.5875 5.37304 17.6039C7.76015 17.6121 7.84218 17.6367 9.2121 18.6703C10.2703 19.466 10.9512 19.827 11.6402 19.9418C12.9527 20.1797 14.0766 19.4004 14.5277 17.9567C14.7164 17.3578 14.7492 16.1192 14.6098 15.1348C14.3555 13.4285 14.6918 12.2637 15.5531 11.8535C15.9715 11.6567 16.8574 11.6731 18.0387 11.8863C18.5555 11.9848 19.2199 12.0586 19.5234 12.0586C20.6309 12.0586 21.5988 11.632 22.0582 10.9348C22.3453 10.5 22.4273 10.0488 22.3781 9.25314C22.3371 8.75275 22.2633 8.53946 21.7547 7.50587C21.041 6.06212 20.9344 5.61095 21.1148 4.77423C21.2953 3.88829 21.6644 3.27306 22.5258 2.39532C22.9359 1.98517 23.3379 1.64064 23.4117 1.64064C23.4937 1.64064 23.9367 1.71446 24.3879 1.8129ZM34.8879 8.23595C36.5121 10.2621 37.6277 12.4031 38.3496 14.8887C38.7598 16.2914 39.1125 18.8672 38.8992 18.8672C38.7434 18.8672 37.7836 18.1863 37.4391 17.8336C36.9633 17.3414 36.7254 16.9231 36.3398 15.9059C35.7574 14.3801 35.3801 14.0438 33.6328 13.4613C32.5992 13.125 32.0496 12.8051 31.8773 12.4442C31.5984 11.8453 31.7297 11.4434 32.6812 10.016C33.3949 8.94142 33.7559 8.19493 33.9199 7.44025C33.9855 7.13673 34.0266 7.17775 34.8879 8.23595ZM26.2828 16.1438C26.7832 16.3652 27.3492 16.9067 27.5707 17.3742C27.784 17.8336 27.8168 18.6211 27.6363 18.9738L27.5133 19.2035L26.168 19.2281C24.9785 19.2445 24.7242 19.2774 24.0926 19.466C22.0418 20.0977 20.2945 21.5332 19.3594 23.3789L19.1707 23.7399L18.8016 23.3379C18.0387 22.493 17.973 21.9598 18.4652 20.4996C19.1051 18.5883 19.7367 17.891 20.8359 17.8828C21.5578 17.8828 22.3289 17.727 22.6898 17.5137C22.8785 17.3988 23.223 17.0871 23.4609 16.8164C23.6988 16.5457 23.9941 16.2504 24.1254 16.152C24.593 15.8156 25.5363 15.8156 26.2828 16.1438ZM27.8496 20.516C29.8676 21.0082 31.5902 22.5012 32.3777 24.4453C32.993 25.9793 32.9602 28.0465 32.2793 29.5723C31.6312 31.0406 30.2859 32.3613 28.8012 32.9848C27.3984 33.5672 25.6348 33.6246 24.1582 33.1324C22.4273 32.5582 20.9426 31.2129 20.2043 29.5477C19.8105 28.6535 19.6629 27.8004 19.7121 26.6191C19.7695 25.159 20.0812 24.2074 20.8769 23.0918C22.4519 20.877 25.1836 19.868 27.8496 20.516ZM4.47069 25.7168C5.03671 25.8316 7.00546 26.4797 9.82733 27.4641C11.0906 27.907 11.8043 28.2926 12.157 28.7274C12.3129 28.916 12.4605 29.2934 12.641 29.9824C12.7805 30.5238 12.9855 31.1391 13.084 31.3441C13.5187 32.1891 14.7082 32.9602 16.5293 33.5672C17.243 33.8051 17.4562 33.8379 18.1699 33.8379C19.1461 33.8379 19.5809 33.6738 20.4012 32.993C20.6801 32.7551 20.9262 32.5664 20.9426 32.5664C20.959 32.5664 21.2215 32.7633 21.525 33.0094C22.2059 33.5508 23.1902 34.0512 24.1582 34.3383C24.8226 34.5434 25.0195 34.5598 26.209 34.568C27.2262 34.568 27.6445 34.5352 28.0547 34.4285C28.793 34.2234 29.4164 33.9856 29.884 33.7313L30.2777 33.518L30.8848 34.125C31.2211 34.4613 31.5 34.7566 31.5 34.7813C31.5 34.8551 29.8266 35.9051 29.0391 36.3234C27.3984 37.1848 25.2656 37.8738 23.2148 38.202C21.7793 38.4234 19.0148 38.3988 17.6121 38.1527C13.691 37.4637 10.5164 35.8723 7.76015 33.2227C5.66015 31.2047 4.13437 28.8668 3.1746 26.1844L2.95312 25.5938H3.41249C3.65858 25.5938 4.13437 25.6512 4.47069 25.7168ZM35.1504 34.8633L38.1035 37.8164L37.6277 38.284L37.1601 38.7598L34.1988 35.7984L31.2457 32.8453L31.6805 32.3859C31.9184 32.1399 32.1316 31.9266 32.1562 31.9184C32.1809 31.9184 33.5262 33.2391 35.1504 34.8633ZM39.2355 39.8836L38.768 40.3594L38.3742 39.9738L37.9805 39.5883L38.448 39.1125L38.9156 38.6367L39.3094 39.0223L39.7031 39.4078L39.2355 39.8836Z" fill="url(#paint0_linear_712_811)"/>
<path d="M25.2984 21.3281C24.1828 21.5332 23.1492 22.0746 22.3125 22.8867C20.5406 24.6258 20.1222 27.259 21.2625 29.482C21.9023 30.7207 23.2148 31.8281 24.5683 32.2711C26.7176 32.9684 29.2441 32.1973 30.6469 30.409C32.4762 28.0875 32.2629 24.9047 30.1547 22.8457C29.1621 21.8859 27.8988 21.3445 26.4961 21.2871C26.0695 21.2707 25.5281 21.2871 25.2984 21.3281ZM27.7429 22.6652C29.2277 23.2066 30.3187 24.4453 30.6387 25.9629C30.7863 26.6766 30.7945 27.1277 30.6469 27.8168C29.9086 31.2949 25.5937 32.5664 23.0754 30.048C21.3363 28.3172 21.3281 25.5281 23.0508 23.7809C23.6824 23.141 24.2976 22.7801 25.1179 22.5586C25.9219 22.3371 26.9637 22.3781 27.7429 22.6652Z" fill="url(#paint1_linear_712_811)"/>
</g>
<defs>
<linearGradient id="paint0_linear_712_811" x1="21.0247" y1="41.7241" x2="21.0247" y2="0.270752" gradientUnits="userSpaceOnUse">
<stop offset="0.259609" stop-color="#023B8B"/>
<stop offset="0.70661" stop-color="#012558"/>
</linearGradient>
<linearGradient id="paint1_linear_712_811" x1="26.2578" y1="32.5258" x2="26.2578" y2="21.2808" gradientUnits="userSpaceOnUse">
<stop offset="0.259609" stop-color="#023B8B"/>
<stop offset="0.70661" stop-color="#012558"/>
</linearGradient>
<clipPath id="clip0_712_811">
<rect width="42" height="42" fill="white"/>
</clipPath>
</defs>
</svg>
