<svg width="20" height="20" viewBox="0 0 20 20" fill="none" xmlns="http://www.w3.org/2000/svg">
<g clip-path="url(#clip0_712_121)">
<path d="M3.31091 16.9326C7.18947 20.6494 12.8102 20.6493 16.6888 16.9326C20.7297 13.0534 20.7294 6.94871 16.6888 3.06934L16.6898 3.06836C14.2831 0.739905 11.1715 -0.168553 7.94861 0.511719L7.63611 0.583008C5.91561 1.00807 4.43989 1.89911 3.06873 3.31055H3.06775C-0.730137 7.27005 -0.628956 13.1331 3.31091 16.9316V16.9326ZM15.9115 16.2275C12.6167 19.3691 7.80297 19.4678 4.37634 16.5039L4.04919 16.208C0.548673 12.8459 0.411213 7.60867 3.77283 4.08887C6.02918 1.7139 9.05204 0.80654 12.0746 1.59668C13.7355 2.03168 14.9799 2.78143 16.2279 4.08887C19.5894 7.60854 19.4514 12.8654 15.9115 16.2275Z" fill="white" stroke="white" stroke-width="0.2"/>
<path d="M7.28906 13.7612C8.18084 15.7314 10.6255 16.0945 12.2295 14.5317C12.5785 14.1933 12.7957 13.7623 12.9258 13.061C13.0551 12.3636 13.0996 11.3903 13.0996 9.96045C13.0996 8.31149 13.0302 7.24757 12.8105 6.50439C12.5877 5.75056 12.2102 5.32769 11.6123 4.95654C11.1642 4.67525 10.5818 4.52627 10.0234 4.5083C9.53611 4.49265 9.05458 4.57522 8.69141 4.76807L8.54297 4.85791C7.83498 5.3535 7.41423 5.76993 7.17969 6.51514C6.94922 7.2475 6.90039 8.29409 6.90039 10.0405C6.9004 12.3965 6.97843 13.0581 7.28809 13.7603L7.28906 13.7612ZM8.2041 12.6675C8.20068 12.6612 8.1964 12.6513 8.19141 12.6382C8.17612 12.5978 8.16096 12.5362 8.14648 12.4536C8.11765 12.2889 8.0948 12.056 8.0791 11.7739C8.04775 11.2105 8.0438 10.4628 8.0625 9.70068C8.08121 8.93861 8.12297 8.1639 8.18359 7.54736C8.21393 7.2389 8.24838 6.97102 8.28711 6.76514C8.30646 6.66229 8.32729 6.57653 8.34766 6.50928C8.36869 6.43983 8.3871 6.39772 8.40137 6.37744H8.40234C9.01648 5.4947 10.2312 5.26237 10.9365 5.8374L10.9375 5.83838L11.2949 6.12842L10.75 7.25635V7.25732C10.1797 8.39799 9.56927 9.68306 9.10156 10.7085C8.86762 11.2214 8.66855 11.6703 8.52832 12.0034C8.4583 12.1698 8.40275 12.3089 8.36426 12.4126C8.34514 12.4641 8.32996 12.5082 8.31934 12.5435C8.31009 12.5741 8.29983 12.6107 8.2998 12.6401C8.2998 12.6525 8.29616 12.6592 8.28613 12.6646C8.27396 12.671 8.24699 12.6767 8.2041 12.6675ZM10.8369 14.27C10.1435 14.5973 9.54605 14.5532 9.0625 14.1626L8.70312 13.8726L10.1699 10.7837L10.7627 9.5376C10.9448 9.14813 11.1084 8.79064 11.2461 8.48389C11.3837 8.17743 11.4958 7.92083 11.5732 7.73291C11.6119 7.63915 11.6421 7.56101 11.6631 7.50244C11.6736 7.47325 11.6824 7.44741 11.6885 7.42627C11.6934 7.40891 11.7002 7.38306 11.7002 7.35986C11.7003 7.34786 11.7041 7.34172 11.7139 7.33643C11.7268 7.32959 11.7561 7.32353 11.8037 7.33545C11.8057 7.33776 11.8095 7.34119 11.8135 7.34814C11.8252 7.36905 11.8393 7.40499 11.8525 7.46045C11.8788 7.57092 11.8994 7.73997 11.9131 7.98096C11.9403 8.46172 11.9399 9.2082 11.9199 10.2983C11.8898 11.893 11.8447 12.7884 11.6914 13.3384C11.6159 13.6093 11.5155 13.7893 11.3828 13.9263C11.249 14.0644 11.0753 14.166 10.8398 14.269L10.8369 14.27Z" fill="white" stroke="white" stroke-width="0.2"/>
</g>
<defs>
<clipPath id="clip0_712_121">
<rect width="20" height="20" fill="white"/>
</clipPath>
</defs>
</svg>
